<?xml version="1.0" encoding="utf-8"?>
<!-- Generator: Adobe Illustrator 27.0.1, SVG Export Plug-In . SVG Version: 6.00 Build 0)  -->
<svg version="1.1" id="Ebene_1" xmlns="http://www.w3.org/2000/svg" xmlns:xlink="http://www.w3.org/1999/xlink" x="0px" y="0px"
	 viewBox="0 0 170.1 170.1" style="enable-background:new 0 0 170.1 170.1;" xml:space="preserve">
<style type="text/css">
	.st0{fill-rule:evenodd;clip-rule:evenodd;fill:#221E1B;}
	.st1{fill:#221E1B;}
</style>
<g>
	<path class="st0" d="M85,2.1c-47,0-85,38.1-85,85c0,37.6,24.4,69.4,58.2,80.7c4.2,0.8,5.8-1.8,5.8-4.1c0-2-0.1-8.7-0.1-15.8
		c-23.7,5.1-28.7-10-28.7-10c-3.9-9.8-9.4-12.4-9.4-12.4c-7.7-5.3,0.6-5.2,0.6-5.2c8.5,0.6,13,8.8,13,8.8c7.6,13,19.9,9.2,24.7,7.1
		c0.8-5.5,3-9.2,5.4-11.4c-18.9-2.1-38.7-9.4-38.7-42c0-9.3,3.3-16.9,8.8-22.8c-0.9-2.1-3.8-10.8,0.8-22.5c0,0,7.1-2.3,23.4,8.7
		c6.8-1.9,14.1-2.8,21.3-2.9c7.2,0,14.5,1,21.3,2.9c16.2-11,23.4-8.7,23.4-8.7c4.6,11.7,1.7,20.4,0.8,22.5c5.5,6,8.8,13.5,8.8,22.8
		c0,32.7-19.9,39.9-38.8,42c3.1,2.6,5.8,7.8,5.8,15.7c0,11.4-0.1,20.5-0.1,23.3c0,2.3,1.5,4.9,5.8,4.1
		c33.8-11.3,58.1-43.1,58.1-80.7C170.1,40.2,132,2.1,85,2.1z"/>
	<path class="st1" d="M32.2,124.2c-0.2,0.4-0.9,0.6-1.5,0.3c-0.6-0.3-1-0.9-0.8-1.3c0.2-0.4,0.8-0.6,1.5-0.3
		C32.1,123.2,32.4,123.8,32.2,124.2L32.2,124.2z M31.2,123.4"/>
	<path class="st1" d="M35.7,128c-0.4,0.4-1.2,0.2-1.7-0.4c-0.6-0.6-0.7-1.4-0.2-1.8c0.4-0.4,1.2-0.2,1.7,0.4
		C36,126.9,36.1,127.7,35.7,128L35.7,128z M34.8,127.2"/>
	<path class="st1" d="M39,132.9c-0.5,0.4-1.4,0-1.9-0.7c-0.5-0.8-0.5-1.7,0-2c0.5-0.4,1.4,0,1.9,0.7C39.5,131.7,39.5,132.6,39,132.9
		L39,132.9z M39,132.9"/>
	<path class="st1" d="M43.6,137.7c-0.5,0.5-1.5,0.4-2.2-0.3c-0.7-0.7-1-1.7-0.5-2.2c0.5-0.5,1.5-0.4,2.2,0.3
		C43.9,136.2,44.1,137.2,43.6,137.7L43.6,137.7z M43.6,137.7"/>
	<path class="st1" d="M49.9,140.4c-0.2,0.7-1.2,1-2.1,0.7c-1-0.3-1.6-1.1-1.4-1.7c0.2-0.7,1.2-1,2.1-0.7
		C49.5,139,50.1,139.7,49.9,140.4L49.9,140.4z M49.9,140.4"/>
	<path class="st1" d="M56.9,140.9c0,0.7-0.8,1.3-1.8,1.3c-1,0-1.8-0.5-1.9-1.2c0-0.7,0.8-1.3,1.8-1.3
		C56.1,139.7,56.9,140.2,56.9,140.9L56.9,140.9z M56.9,140.9"/>
	<path class="st1" d="M63.4,139.8c0.1,0.7-0.6,1.4-1.6,1.6c-1,0.2-1.9-0.2-2-0.9c-0.1-0.7,0.6-1.4,1.6-1.6
		C62.3,138.7,63.2,139.1,63.4,139.8L63.4,139.8z M63.4,139.8"/>
</g>
</svg>
