<?xml version="1.0" encoding="UTF-8" standalone="no"?>
<!-- Created with Inkscape (http://www.inkscape.org/) -->

<svg
   xmlns:dc="http://purl.org/dc/elements/1.1/"
   xmlns:cc="http://creativecommons.org/ns#"
   xmlns:rdf="http://www.w3.org/1999/02/22-rdf-syntax-ns#"
   xmlns:svg="http://www.w3.org/2000/svg"
   xmlns="http://www.w3.org/2000/svg"
   xmlns:sodipodi="http://sodipodi.sourceforge.net/DTD/sodipodi-0.dtd"
   xmlns:inkscape="http://www.inkscape.org/namespaces/inkscape"
   version="1.1"
   id="svg2"
   xml:space="preserve"
   width="429.77332"
   height="152.06667"
   viewBox="0 0 429.77332 152.06667"
   sodipodi:docname="hbz-logo.svg"
   inkscape:version="0.92.3 (2405546, 2018-03-11)"><metadata
     id="metadata8"><rdf:RDF><cc:Work
         rdf:about=""><dc:format>image/svg+xml</dc:format><dc:type
           rdf:resource="http://purl.org/dc/dcmitype/StillImage" /><dc:title></dc:title></cc:Work></rdf:RDF></metadata><defs
     id="defs6" /><sodipodi:namedview
     pagecolor="#ffffff"
     bordercolor="#666666"
     borderopacity="1"
     objecttolerance="10"
     gridtolerance="10"
     guidetolerance="10"
     inkscape:pageopacity="0"
     inkscape:pageshadow="2"
     inkscape:window-width="928"
     inkscape:window-height="480"
     id="namedview4"
     showgrid="false"
     inkscape:zoom="0.80507558"
     inkscape:cx="214.88666"
     inkscape:cy="76.033333"
     inkscape:window-x="263"
     inkscape:window-y="0"
     inkscape:window-maximized="0"
     inkscape:current-layer="g10" /><g
     id="g10"
     inkscape:groupmode="layer"
     inkscape:label="ink_ext_XXXXXX"
     transform="matrix(1.3333333,0,0,-1.3333333,0,152.06667)"><g
       id="g12"
       transform="scale(0.1)"><path
         d="m 3223.31,199.629 v 132.219 h -98.32 c -41.81,0 -103.97,0 -127.7,-1.133 l 221.5,327.719 V 761.27 H 2825.51 V 632.441 h 99.44 c 54.25,0 98.33,1.133 119.8,2.262 L 2818.72,302.461 V 199.629 h 404.59 v 0"
         style="fill:#ef8923;fill-opacity:1;fill-rule:nonzero;stroke:none"
         id="path14"
         inkscape:connector-curvature="0" /><path
         d="M 1640.61,913.828 V 199.629 h 144.66 V 470.84 c 0,98.32 56.5,181.941 129.96,181.941 54.24,0 70.06,-35.031 70.06,-93.797 V 199.629 h 143.53 V 594.02 c 0,98.312 -40.68,179.679 -167.26,179.679 -88.15,0 -152.56,-41.808 -185.34,-105.094 l -1.13,1.125 c 7.91,32.774 10.18,80.243 10.18,114.137 V 1025.7 c -83.64,2.27 -170.66,-1.13 -242.98,-10.16 v -90.407 c 32.77,-2.262 71.19,-6.781 98.32,-11.305 v 0"
         style="fill:#ef8923;fill-opacity:1;fill-rule:nonzero;stroke:none"
         id="path16"
         inkscape:connector-curvature="0" /><path
         d="m 2395.35,1027.32 c -83.62,2.27 -170.64,-1.12 -242.97,-10.17 v -90.404 c 32.78,-2.258 71.19,-6.773 98.31,-11.297 V 217.063 c 64.43,-18.079 127.71,-27.122 209.08,-27.122 193.25,0 304,131.086 304,320.938 0,166.125 -72.32,263.312 -206.81,263.312 -79.11,0 -141.27,-38.425 -169.52,-99.449 h -1.13 c 5.65,29.379 9.04,75.715 9.04,109.617 v 242.961 z m 215.86,-531.129 c 0,-139.003 -58.77,-190.984 -141.27,-190.984 -30.51,0 -54.25,3.387 -74.59,10.176 v 158.199 c 0,93.801 45.21,180.816 119.79,180.816 65.55,0 96.07,-53.109 96.07,-158.207 v 0"
         style="fill:#ef8923;fill-opacity:1;fill-rule:evenodd;stroke:none"
         id="path18"
         inkscape:connector-curvature="0" /><path
         d="M 884.746,396.047 V 937.902 H 241.992 v 104.708 l 854.688,0.02 0.04,-646.583 H 884.746 v 0"
         style="fill:#236497;fill-opacity:1;fill-rule:nonzero;stroke:none"
         id="path20"
         inkscape:connector-curvature="0" /><path
         d="m 376.902,365.977 h 749.888 v 676.433 l 129.28,-0.03 -0.02,-842.368 H 376.902 v 165.965 0"
         style="fill:#236497;fill-opacity:1;fill-rule:nonzero;stroke:none"
         id="path22"
         inkscape:connector-curvature="0" /><path
         d="m 346.848,907.836 0.007,-737.895 H 1096.72 L 1096.68,0 H 241.992 v 907.836 h 104.856 v 0"
         style="fill:#236497;fill-opacity:1;fill-rule:nonzero;stroke:none"
         id="path24"
         inkscape:connector-curvature="0" /><path
         d="M 1096.68,1072.69 H 211.938 V 200.012 H 0 v 940.468 l 1096.68,0.03 v -67.82 0"
         style="fill:#236497;fill-opacity:1;fill-rule:nonzero;stroke:none"
         id="path26"
         inkscape:connector-curvature="0" /></g></g></svg>