<?xml version="1.0" encoding="utf-8"?>
<!-- Generator: Adobe Illustrator 27.0.0, SVG Export Plug-In . SVG Version: 6.00 Build 0)  -->
<svg version="1.1" id="Ebene_1" xmlns="http://www.w3.org/2000/svg" xmlns:xlink="http://www.w3.org/1999/xlink" x="0px" y="0px"
	 viewBox="0 0 226.8 80.8" style="enable-background:new 0 0 226.8 80.8;" xml:space="preserve">
<style type="text/css">
	.st0{fill:#FFFFFF;}
	.st1{fill-rule:evenodd;clip-rule:evenodd;fill:#FFFFFF;}
</style>
<g id="g10_00000133521717747333988560000007740695817897524636_" transform="matrix(1.3333333,0,0,-1.3333333,0,152.06667)">
	<g id="g12_00000176723973283922500370000004752053642781374861_" transform="scale(0.1)">
		<path id="path14_00000124134574094662751270000013329599308632571533_" class="st0" d="M1700.8,642v69.8h-51.9
			c-22.1,0-54.9,0-67.4-0.6l116.9,172.9v54.3h-207.5v-68h52.5c28.6,0,51.9,0.6,63.2,1.2l-119.3-175.3V642H1700.8L1700.8,642"/>
		<path id="path16_00000161603059096627543690000002961734800720689310_" class="st0" d="M865.7,1018.8V642H942v143.1
			c0,51.9,29.8,96,68.6,96c28.6,0,37-18.5,37-49.5V642h75.7v208.1c0,51.9-21.5,94.8-88.3,94.8c-46.5,0-80.5-22.1-97.8-55.5l-0.6,0.6
			c4.2,17.3,5.4,42.3,5.4,60.2v127.6c-44.1,1.2-90-0.6-128.2-5.4v-47.7C831.1,1023.6,851.4,1021.2,865.7,1018.8L865.7,1018.8"/>
		<path id="path18_00000008849043474554237990000017068668437121605509_" class="st1" d="M1263.9,1078.7c-44.1,1.2-90-0.6-128.2-5.4
			v-47.7c17.3-1.2,37.6-3.6,51.9-6V651.2c34-9.5,67.4-14.3,110.3-14.3c102,0,160.4,69.2,160.4,169.3c0,87.7-38.2,138.9-109.1,138.9
			c-41.7,0-74.5-20.3-89.4-52.5h-0.6c3,15.5,4.8,40,4.8,57.8L1263.9,1078.7L1263.9,1078.7z M1377.8,798.5
			c0-73.3-31-100.8-74.5-100.8c-16.1,0-28.6,1.8-39.4,5.4v83.5c0,49.5,23.9,95.4,63.2,95.4C1361.7,881.9,1377.8,853.9,1377.8,798.5
			L1377.8,798.5"/>
		<path id="path20_00000029725565033538086840000012791524952724580795_" class="st0" d="M466.8,745.6v285.9H127.7v55.2l451,0
			l0-341.2H466.8L466.8,745.6"/>
		<path id="path22_00000183247850192248266160000002412489451667232674_" class="st0" d="M198.9,729.8h395.7v356.9l68.2,0l0-444.5
			H198.9V729.8L198.9,729.8"/>
		<path id="path24_00000075123025090599424990000002753912581780155571_" class="st0" d="M183,1015.7l0-389.4h395.7l0-89.7h-451v479
			H183L183,1015.7"/>
		<path id="path26_00000137090900216853206460000003445367745237315511_" class="st0" d="M578.7,1102.7H111.8V642.2H0v496.2l578.7,0
			V1102.7L578.7,1102.7"/>
	</g>
</g>
</svg>
