<?xml version="1.0" encoding="utf-8"?>
<!-- Generator: Adobe Illustrator 27.0.1, SVG Export Plug-In . SVG Version: 6.00 Build 0)  -->
<svg version="1.1" id="Ebene_1" xmlns="http://www.w3.org/2000/svg" xmlns:xlink="http://www.w3.org/1999/xlink" x="0px" y="0px"
	 viewBox="0 0 170.1 170.1" style="enable-background:new 0 0 170.1 170.1;" xml:space="preserve">
<style type="text/css">
	.st0{fill:#2B90D9;}
</style>
<path class="st0" d="M164.4,55.8c0-36.9-24.2-47.7-24.2-47.7C128,2.5,107.1,0.2,85.3,0h-0.5C63,0.2,42.1,2.5,29.9,8.1
	c0,0-24.2,10.8-24.2,47.7c0,8.4-0.2,18.6,0.1,29.3c0.9,36.1,6.6,71.6,40,80.5c15.4,4.1,28.6,4.9,39.2,4.3
	c19.3-1.1,30.1-6.9,30.1-6.9l-0.6-14c0,0-13.8,4.3-29.3,3.8c-15.3-0.5-31.5-1.7-34-20.5c-0.2-1.7-0.3-3.4-0.3-5.3
	c0,0,15.1,3.7,34.1,4.6c11.7,0.5,22.6-0.7,33.7-2c21.3-2.5,39.9-15.7,42.2-27.7C164.7,83.1,164.4,55.8,164.4,55.8z M135.8,103.4
	h-17.7V60c0-9.1-3.8-13.8-11.5-13.8c-8.5,0-12.8,5.5-12.8,16.4v23.7H76.2V62.6c0-10.9-4.3-16.4-12.8-16.4c-7.7,0-11.5,4.6-11.5,13.8
	v43.4H34.2V58.7c0-9.1,2.3-16.4,7-21.8c4.8-5.4,11.1-8.1,18.9-8.1c9.1,0,15.9,3.5,20.5,10.4l4.4,7.4l4.4-7.4
	c4.5-7,11.4-10.4,20.5-10.4c7.8,0,14.1,2.8,18.9,8.1c4.7,5.4,7,12.6,7,21.8V103.4z"/>
</svg>
