<?xml version="1.0" encoding="utf-8"?>
<!-- Generator: Adobe Illustrator 27.0.1, SVG Export Plug-In . SVG Version: 6.00 Build 0)  -->
<svg version="1.1" id="Ebene_1" xmlns="http://www.w3.org/2000/svg" xmlns:xlink="http://www.w3.org/1999/xlink" x="0px" y="0px"
	 viewBox="0 0 1133.9 708.7" style="enable-background:new 0 0 1133.9 708.7;" xml:space="preserve">
<style type="text/css">
	.st0{fill:#14968C;}
	.st1{fill:url(#SVGID_1_);}
	.st2{opacity:0.2;fill:url(#SVGID_00000015332610485927041980000001374049351314342813_);enable-background:new    ;}
	.st3{opacity:0.2;fill:url(#SVGID_00000075862521443811908790000017302349883458696365_);enable-background:new    ;}
	.st4{fill:url(#SVGID_00000086662020540894257300000011951858522282710929_);}
	.st5{opacity:0.2;fill:url(#SVGID_00000041296769716702115710000009149818396908293807_);enable-background:new    ;}
	.st6{opacity:0.2;fill:url(#SVGID_00000173861847083231219950000002866023647694163898_);enable-background:new    ;}
	.st7{fill:#FFFFFF;}
	
		.st8{fill:#EBEBEB;stroke:url(#SVGID_00000050648372758593751000000016130194083490478739_);stroke-width:4.8142;stroke-linecap:round;stroke-linejoin:round;stroke-miterlimit:10;stroke-dasharray:0.1605,12.8379;}
	.st9{fill:#0F554B;}
	
		.st10{fill:#EBEBEB;stroke:url(#SVGID_00000160880493784323750460000009231748461145137342_);stroke-width:4.8142;stroke-linecap:round;stroke-linejoin:round;stroke-miterlimit:10;stroke-dasharray:0.1605,12.8379;}
	
		.st11{fill:none;stroke:url(#SVGID_00000138570847290927273510000011959045872601613222_);stroke-width:4.8142;stroke-linecap:round;stroke-linejoin:round;stroke-miterlimit:10;stroke-dasharray:0.1605,12.8379;}
	
		.st12{fill:none;stroke:url(#SVGID_00000007397780038844977020000006925618930680206219_);stroke-width:4.8142;stroke-linecap:round;stroke-linejoin:round;stroke-miterlimit:10;stroke-dasharray:0.1605,12.8379;}
	.st13{fill:url(#SVGID_00000111869750612586998720000018273304214838295208_);}
	
		.st14{fill:#EBEBEB;stroke:url(#SVGID_00000142892934885408555960000006014996587494642354_);stroke-width:4.8142;stroke-linecap:round;stroke-linejoin:round;stroke-miterlimit:10;stroke-dasharray:0.1605,12.8379;}
	
		.st15{fill:none;stroke:url(#SVGID_00000036974364382023468600000006865248148923636154_);stroke-width:4.8142;stroke-linecap:round;stroke-linejoin:round;stroke-miterlimit:10;stroke-dasharray:0.1605,12.8379;}
</style>
<g>
	<path class="st0" d="M971.5-100.2v229.1c0,21.3,17.4,38.7,38.7,38.7l0,0c21.3,0,38.7-17.4,38.7-38.7v-229.1H971.5z M1000.5,134.3
		c-5.3,0-9.7-4.4-9.7-9.7v-5.3c1.3,2.6,3.7,4.3,5.5,5.3l16.5,9.7H1000.5z M1027.7,131.6l-1.5,2.7c-0.6-3.9-4-6.3-6.2-7.7l-22.8-13.4
		c-3.4-2-9.3-6.5-4.5-14.9l1.5-2.7c0.6,3.9,4,6.3,6.2,7.7l22.8,13.4C1026.5,118.6,1032.5,123.2,1027.7,131.6z M1029.5,110.6
		c-1.3-2.6-3.7-4.3-5.5-5.3l-16.5-9.7h12.3c5.3,0,9.7,4.4,9.7,9.7V110.6z"/>
</g>
<linearGradient id="SVGID_1_" gradientUnits="userSpaceOnUse" x1="414.8662" y1="443.0419" x2="548.9338" y2="577.1093" gradientTransform="matrix(1 0 0 -1 0 707.2756)">
	<stop  offset="0" style="stop-color:#28C8AF"/>
	<stop  offset="1" style="stop-color:#0F554B"/>
</linearGradient>
<circle class="st1" cx="481.9" cy="197.2" r="94.8"/>
<linearGradient id="SVGID_00000072963836830783804690000013056240279755572367_" gradientUnits="userSpaceOnUse" x1="584.8248" y1="442.9004" x2="719.1752" y2="577.2507" gradientTransform="matrix(1 0 0 -1 0 707.2756)">
	<stop  offset="0" style="stop-color:#28C8AF"/>
	<stop  offset="1" style="stop-color:#0F554B"/>
</linearGradient>
<circle style="opacity:0.2;fill:url(#SVGID_00000072963836830783804690000013056240279755572367_);enable-background:new    ;" cx="652" cy="197.2" r="95"/>
<linearGradient id="SVGID_00000101074336774283278060000008038655075314584754_" gradientUnits="userSpaceOnUse" x1="329.7249" y1="301.2004" x2="464.0751" y2="435.5507" gradientTransform="matrix(1 0 0 -1 0 707.2756)">
	<stop  offset="0" style="stop-color:#28C8AF"/>
	<stop  offset="1" style="stop-color:#0F554B"/>
</linearGradient>
<circle style="opacity:0.2;fill:url(#SVGID_00000101074336774283278060000008038655075314584754_);enable-background:new    ;" cx="396.9" cy="338.9" r="95"/>
<linearGradient id="SVGID_00000168095317989685877810000001478025187770563467_" gradientUnits="userSpaceOnUse" x1="584.9663" y1="159.5419" x2="719.0337" y2="293.6093" gradientTransform="matrix(1 0 0 -1 0 707.2756)">
	<stop  offset="0" style="stop-color:#28C8AF"/>
	<stop  offset="1" style="stop-color:#0F554B"/>
</linearGradient>
<circle style="fill:url(#SVGID_00000168095317989685877810000001478025187770563467_);" cx="652" cy="480.7" r="94.8"/>
<linearGradient id="SVGID_00000178893447050328596210000003736628571717326244_" gradientUnits="userSpaceOnUse" x1="414.7248" y1="159.4004" x2="549.0752" y2="293.7507" gradientTransform="matrix(1 0 0 -1 0 707.2756)">
	<stop  offset="0" style="stop-color:#28C8AF"/>
	<stop  offset="1" style="stop-color:#0F554B"/>
</linearGradient>
<circle style="opacity:0.2;fill:url(#SVGID_00000178893447050328596210000003736628571717326244_);enable-background:new    ;" cx="481.9" cy="480.7" r="95"/>
<linearGradient id="SVGID_00000145777417258445136750000010540258009696161155_" gradientUnits="userSpaceOnUse" x1="669.8248" y1="301.2004" x2="804.1752" y2="435.5507" gradientTransform="matrix(1 0 0 -1 0 707.2756)">
	<stop  offset="0" style="stop-color:#28C8AF"/>
	<stop  offset="1" style="stop-color:#0F554B"/>
</linearGradient>
<circle style="opacity:0.2;fill:url(#SVGID_00000145777417258445136750000010540258009696161155_);enable-background:new    ;" cx="737" cy="338.9" r="95"/>
<g>
	<g>
		<g>
			<path class="st7" d="M663.4,441.2l-20.1-11.8c-2-1.1-4.9-3.3-5.5-6.7l-1.3,2.4c-4.2,7.4,1,11.4,4,13.1l20.1,11.8
				c2,1.1,4.9,3.3,5.5,6.7l1.3-2.4C671.6,447,666.4,443,663.4,441.2z"/>
		</g>
		<g>
			<path class="st7" d="M635,443.5v4.7c0,4.7,3.8,8.5,8.5,8.5h10.8l-14.5-8.5C638.2,447.3,636.1,445.8,635,443.5z"/>
		</g>
		<g>
			<path class="st7" d="M660.5,422.7h-10.8l14.5,8.5c1.5,0.9,3.7,2.4,4.8,4.7v-4.7C669,426.5,665.2,422.7,660.5,422.7z"/>
		</g>
	</g>
</g>
<g>
	<path class="st7" d="M597.4,492.5c0.8,0,1.4-0.1,1.9-0.2s0.9-0.3,1.2-0.5s0.5-0.5,0.6-0.8s0.2-0.6,0.2-1c0-0.8-0.4-1.5-1.1-2
		c-0.7-0.5-2-1.1-3.8-1.7c-0.8-0.3-1.6-0.6-2.4-1s-1.5-0.8-2.1-1.4c-0.6-0.5-1.1-1.2-1.5-2s-0.6-1.7-0.6-2.9s0.2-2.1,0.6-3
		s1-1.7,1.8-2.3c0.8-0.6,1.7-1.1,2.8-1.5c1.1-0.3,2.3-0.5,3.7-0.5c1.6,0,3,0.2,4.2,0.5s2.2,0.7,2.9,1.2l-1.6,4.3
		c-0.7-0.3-1.4-0.7-2.3-0.9c-0.8-0.3-1.8-0.4-3-0.4c-1.3,0-2.2,0.2-2.8,0.5c-0.6,0.4-0.9,0.9-0.9,1.7c0,0.4,0.1,0.8,0.3,1.1
		c0.2,0.3,0.5,0.6,0.9,0.8s0.8,0.5,1.3,0.7s1.1,0.4,1.7,0.6c1.3,0.5,2.4,0.9,3.3,1.4c0.9,0.5,1.7,1,2.3,1.6s1.1,1.3,1.4,2.1
		c0.3,0.8,0.5,1.8,0.5,3c0,2.3-0.8,4-2.4,5.3c-1.6,1.2-4,1.9-7.2,1.9c-1.1,0-2-0.1-2.9-0.2s-1.6-0.3-2.3-0.5s-1.2-0.4-1.7-0.6
		s-0.9-0.4-1.2-0.6l1.5-4.3c0.7,0.4,1.6,0.8,2.7,1.1C594.5,492.3,595.8,492.5,597.4,492.5z"/>
	<path class="st7" d="M616,484.8c0.5-0.6,1-1.1,1.6-1.7c0.5-0.6,1.1-1.2,1.6-1.8c0.5-0.6,1-1.2,1.5-1.7s0.8-1,1.2-1.4h6.2
		c-1.2,1.4-2.4,2.8-3.6,4.1c-1.2,1.3-2.5,2.6-3.9,4c0.7,0.6,1.4,1.4,2.2,2.3c0.7,0.9,1.5,1.8,2.2,2.7c0.7,0.9,1.3,1.9,1.9,2.8
		c0.6,0.9,1.1,1.8,1.5,2.6h-6c-0.4-0.6-0.8-1.3-1.3-2s-1-1.5-1.5-2.2s-1.1-1.4-1.7-2.1c-0.6-0.7-1.2-1.3-1.8-1.7v8.1h-5.2v-26.3
		l5.2-0.8v15.1H616z"/>
	<path class="st7" d="M647,487.4c0,1.4-0.2,2.8-0.6,4c-0.4,1.2-1,2.2-1.8,3.1s-1.7,1.5-2.9,2c-1.1,0.5-2.4,0.7-3.7,0.7
		c-1.4,0-2.6-0.2-3.7-0.7s-2.1-1.1-2.9-2c-0.8-0.9-1.4-1.9-1.9-3.1c-0.4-1.2-0.7-2.5-0.7-4c0-1.4,0.2-2.8,0.7-4s1.1-2.2,1.9-3
		c0.8-0.8,1.8-1.5,2.9-2c1.1-0.5,2.3-0.7,3.6-0.7s2.5,0.2,3.7,0.7c1.1,0.5,2.1,1.1,2.9,2c0.8,0.8,1.4,1.9,1.9,3
		C646.8,484.6,647,485.9,647,487.4z M641.7,487.4c0-1.6-0.3-2.9-1-3.8s-1.6-1.4-2.7-1.4c-1.2,0-2.1,0.5-2.8,1.4s-1,2.2-1,3.8
		c0,1.6,0.3,2.9,1,3.8s1.6,1.4,2.8,1.4s2.1-0.5,2.7-1.4C641.4,490.3,641.7,489,641.7,487.4z"/>
	<path class="st7" d="M666,472.4h5.5v24.3H666v-10.3h-9.2v10.3h-5.5v-24.3h5.5v9.3h9.2V472.4z"/>
	<path class="st7" d="M692.4,496c-0.9,0.3-2,0.5-3.4,0.7s-2.9,0.3-4.4,0.3c-1.6,0-2.9-0.2-3.9-0.6s-1.9-1-2.5-1.8s-1-1.7-1.3-2.7
		s-0.4-2.2-0.4-3.5v-10.3h5.2v9.6c0,1.7,0.2,2.9,0.7,3.6c0.4,0.7,1.3,1.1,2.5,1.1c0.4,0,0.8,0,1.2-0.1c0.4,0,0.8-0.1,1.1-0.1V478
		h5.2L692.4,496L692.4,496z"/>
	<path class="st7" d="M714.4,487.4c0,1.5-0.2,2.8-0.6,4c-0.4,1.2-1.1,2.2-1.9,3c-0.8,0.8-1.8,1.5-3,1.9c-1.2,0.5-2.5,0.7-4.1,0.7
		c-0.6,0-1.3,0-2-0.1s-1.4-0.1-2-0.2c-0.7-0.1-1.3-0.2-1.9-0.3s-1.1-0.3-1.6-0.4v-25.7l5.2-0.8v9.2c0.6-0.3,1.2-0.5,1.8-0.6
		s1.3-0.2,2-0.2c1.3,0,2.5,0.2,3.5,0.7s1.8,1.1,2.5,1.9s1.2,1.8,1.5,3C714.3,484.7,714.4,486,714.4,487.4z M709.1,487.3
		c0-3.4-1.2-5-3.7-5c-0.5,0-1.1,0.1-1.6,0.2s-1,0.3-1.3,0.5v9.5c0.3,0,0.6,0.1,1,0.1s0.8,0.1,1.3,0.1c1.4,0,2.5-0.5,3.2-1.5
		C708.8,490.2,709.1,488.9,709.1,487.3z"/>
	<path class="st7" d="M593.7,506.3c3,0,5.3,0.5,6.9,1.6s2.4,2.7,2.4,5c0,1.4-0.3,2.6-1,3.4c-0.6,0.9-1.6,1.6-2.8,2.1
		c0.4,0.5,0.8,1.1,1.3,1.7c0.4,0.6,0.9,1.3,1.3,2c0.4,0.7,0.9,1.4,1.3,2.2s0.8,1.5,1.1,2.2h-5.1c-0.4-0.7-0.7-1.3-1.1-2
		c-0.4-0.7-0.8-1.3-1.2-2c-0.4-0.6-0.8-1.2-1.2-1.8s-0.8-1.1-1.2-1.6h-2.2v7.3h-4.5v-19.8c1-0.2,2-0.3,3.1-0.4
		S592.9,506.3,593.7,506.3z M594,510.2c-0.3,0-0.6,0-0.9,0c-0.3,0-0.5,0-0.7,0.1v5.5h1.3c1.7,0,2.9-0.2,3.7-0.6
		c0.7-0.4,1.1-1.1,1.1-2.2c0-1-0.4-1.7-1.1-2.1C596.5,510.4,595.4,510.2,594,510.2z"/>
	<path class="st7" d="M605.4,519.1c0-1.4,0.2-2.5,0.6-3.6c0.4-1,1-1.9,1.6-2.5s1.5-1.2,2.3-1.5c0.9-0.3,1.8-0.5,2.7-0.5
		c2.2,0,3.9,0.7,5.1,2c1.3,1.3,1.9,3.3,1.9,5.8c0,0.3,0,0.5,0,0.8s0,0.6-0.1,0.8h-9.8c0.1,0.9,0.5,1.6,1.2,2.1s1.7,0.8,3,0.8
		c0.8,0,1.6-0.1,2.3-0.2c0.8-0.1,1.4-0.3,1.9-0.5l0.6,3.5c-0.2,0.1-0.5,0.2-0.9,0.3s-0.8,0.2-1.3,0.3s-1,0.2-1.5,0.2
		c-0.5,0.1-1.1,0.1-1.6,0.1c-1.4,0-2.6-0.2-3.6-0.6s-1.9-1-2.5-1.7s-1.2-1.5-1.5-2.5S605.4,520.2,605.4,519.1z M615.6,517.5
		c0-0.4-0.1-0.7-0.2-1.1c-0.1-0.3-0.3-0.7-0.5-0.9c-0.2-0.3-0.5-0.5-0.8-0.7s-0.8-0.3-1.3-0.3s-0.9,0.1-1.2,0.2
		c-0.3,0.2-0.6,0.4-0.9,0.7c-0.2,0.3-0.4,0.6-0.5,0.9c-0.1,0.4-0.2,0.7-0.3,1.1L615.6,517.5L615.6,517.5z"/>
	<path class="st7" d="M622.4,519c0-1.1,0.2-2.1,0.5-3.1c0.4-1,0.9-1.8,1.6-2.6c0.7-0.7,1.5-1.3,2.5-1.7c1-0.4,2.1-0.6,3.3-0.6
		c0.8,0,1.6,0.1,2.2,0.2c0.7,0.1,1.3,0.4,2,0.6l-0.9,3.5c-0.4-0.2-0.9-0.3-1.3-0.4c-0.5-0.1-1-0.2-1.6-0.2c-1.3,0-2.2,0.4-2.9,1.2
		c-0.6,0.8-0.9,1.8-0.9,3.1c0,1.4,0.3,2.4,0.9,3.2c0.6,0.8,1.6,1.1,3.1,1.1c0.5,0,1.1,0,1.7-0.1c0.6-0.1,1.1-0.3,1.7-0.5l0.6,3.5
		c-0.5,0.2-1.1,0.4-1.9,0.6c-0.8,0.2-1.6,0.2-2.5,0.2c-1.4,0-2.6-0.2-3.6-0.6c-1-0.4-1.8-1-2.5-1.7c-0.6-0.7-1.1-1.6-1.4-2.5
		S622.4,520.1,622.4,519z"/>
	<path class="st7" d="M651.1,519c0,1.2-0.2,2.3-0.5,3.3s-0.9,1.8-1.5,2.6c-0.7,0.7-1.4,1.3-2.4,1.6c-0.9,0.4-1.9,0.6-3.1,0.6
		c-1.1,0-2.1-0.2-3.1-0.6s-1.7-0.9-2.4-1.6c-0.7-0.7-1.2-1.6-1.5-2.6s-0.6-2.1-0.6-3.3s0.2-2.3,0.6-3.3c0.4-1,0.9-1.8,1.6-2.5
		s1.5-1.2,2.4-1.6s1.9-0.6,3-0.6s2.1,0.2,3,0.6s1.7,0.9,2.4,1.6s1.2,1.5,1.5,2.5C650.9,516.7,651.1,517.8,651.1,519z M646.7,519
		c0-1.3-0.3-2.4-0.8-3.1c-0.5-0.8-1.3-1.1-2.3-1.1s-1.8,0.4-2.3,1.1c-0.5,0.8-0.8,1.8-0.8,3.1s0.3,2.4,0.8,3.2s1.3,1.2,2.3,1.2
		s1.7-0.4,2.3-1.2C646.4,521.4,646.7,520.3,646.7,519z"/>
	<path class="st7" d="M654.5,511.9c0.7-0.2,1.7-0.4,2.8-0.6s2.4-0.3,3.7-0.3s2.4,0.2,3.2,0.5c0.9,0.3,1.5,0.8,2,1.4
		c0.5,0.6,0.9,1.4,1.1,2.2s0.3,1.8,0.3,2.8v8.6h-4.3v-8.1c0-1.4-0.2-2.4-0.6-3s-1.1-0.9-2.1-0.9c-0.3,0-0.6,0-1,0
		c-0.3,0-0.7,0.1-0.9,0.1v11.8h-4.3L654.5,511.9L654.5,511.9z"/>
	<path class="st7" d="M670.8,519c0-1.1,0.2-2.1,0.5-3.1c0.4-1,0.9-1.8,1.6-2.6c0.7-0.7,1.5-1.3,2.5-1.7c1-0.4,2.1-0.6,3.3-0.6
		c0.8,0,1.6,0.1,2.2,0.2c0.7,0.1,1.3,0.4,2,0.6l-0.9,3.5c-0.4-0.2-0.9-0.3-1.3-0.4c-0.5-0.1-1-0.2-1.6-0.2c-1.3,0-2.2,0.4-2.9,1.2
		c-0.6,0.8-0.9,1.8-0.9,3.1c0,1.4,0.3,2.4,0.9,3.2c0.6,0.8,1.6,1.1,3.1,1.1c0.5,0,1.1,0,1.7-0.1c0.6-0.1,1.1-0.3,1.7-0.5l0.6,3.5
		c-0.5,0.2-1.1,0.4-1.9,0.6c-0.8,0.2-1.6,0.2-2.5,0.2c-1.4,0-2.6-0.2-3.6-0.6c-1-0.4-1.8-1-2.5-1.7c-0.6-0.7-1.1-1.6-1.4-2.5
		S670.8,520.1,670.8,519z"/>
	<path class="st7" d="M690.8,507c0,0.8-0.3,1.4-0.8,1.9s-1.1,0.7-1.8,0.7s-1.3-0.2-1.8-0.7s-0.8-1.1-0.8-1.9s0.3-1.4,0.8-1.9
		s1.1-0.7,1.8-0.7s1.3,0.2,1.8,0.7S690.8,506.2,690.8,507z M690.4,526.6H686v-15.3h4.3v15.3H690.4z"/>
	<path class="st7" d="M700.5,526.9c-1.3,0-2.3-0.2-3.1-0.4s-1.4-0.6-1.9-1.1s-0.8-1-0.9-1.7s-0.2-1.4-0.2-2.2v-16.8l4.3-0.7v16.6
		c0,0.4,0,0.7,0.1,1s0.2,0.6,0.3,0.8s0.4,0.4,0.7,0.5s0.7,0.2,1.2,0.3L700.5,526.9z"/>
	<path class="st7" d="M702.9,519.1c0-1.4,0.2-2.5,0.6-3.6s1-1.9,1.6-2.5s1.5-1.2,2.3-1.5c0.9-0.3,1.8-0.5,2.7-0.5
		c2.2,0,3.9,0.7,5.1,2c1.3,1.3,1.9,3.3,1.9,5.8c0,0.3,0,0.5,0,0.8s0,0.6-0.1,0.8h-9.8c0.1,0.9,0.5,1.6,1.2,2.1s1.7,0.8,3,0.8
		c0.8,0,1.6-0.1,2.3-0.2c0.8-0.1,1.4-0.3,1.9-0.5l0.6,3.5c-0.2,0.1-0.5,0.2-0.9,0.3s-0.8,0.2-1.3,0.3s-1,0.2-1.5,0.2
		c-0.5,0.1-1.1,0.1-1.6,0.1c-1.4,0-2.6-0.2-3.6-0.6c-1-0.4-1.9-1-2.5-1.7s-1.2-1.5-1.5-2.5C703,521.3,702.9,520.2,702.9,519.1z
		 M713,517.5c0-0.4-0.1-0.7-0.2-1.1c-0.1-0.3-0.3-0.7-0.5-0.9c-0.2-0.3-0.5-0.5-0.8-0.7s-0.8-0.3-1.3-0.3s-0.9,0.1-1.2,0.2
		c-0.3,0.2-0.6,0.4-0.9,0.7c-0.2,0.3-0.4,0.6-0.5,0.9c-0.1,0.4-0.2,0.7-0.3,1.1L713,517.5L713,517.5z"/>
</g>
<g>
	<g>
		<g>
			<path class="st7" d="M493.4,157.8L473.3,146c-2-1.1-4.9-3.3-5.5-6.7l-1.3,2.4c-4.2,7.4,1,11.4,4,13.1l20.1,11.8
				c2,1.1,4.9,3.3,5.5,6.7l1.3-2.4C501.6,163.5,496.3,159.5,493.4,157.8z"/>
		</g>
		<g>
			<path class="st7" d="M464.9,160.1v4.7c0,4.7,3.8,8.5,8.5,8.5h10.8l-14.5-8.5C468.2,163.9,466,162.4,464.9,160.1z"/>
		</g>
		<g>
			<path class="st7" d="M490.4,139.3h-10.8l14.5,8.5c1.5,0.9,3.7,2.4,4.8,4.7v-4.7C498.9,143.1,495.1,139.3,490.4,139.3z"/>
		</g>
	</g>
</g>
<g>
	<path class="st7" d="M427.3,209c0.8,0,1.4-0.1,1.9-0.2c0.5-0.1,0.9-0.3,1.2-0.5c0.3-0.2,0.5-0.5,0.6-0.8s0.2-0.6,0.2-1
		c0-0.8-0.4-1.5-1.1-2s-2-1.1-3.8-1.7c-0.8-0.3-1.6-0.6-2.4-1s-1.5-0.8-2.1-1.4c-0.6-0.5-1.1-1.2-1.5-2s-0.6-1.7-0.6-2.9
		s0.2-2.1,0.6-3s1-1.7,1.8-2.3s1.7-1.1,2.8-1.5c1.1-0.3,2.3-0.5,3.7-0.5c1.6,0,3,0.2,4.2,0.5s2.2,0.7,2.9,1.2l-1.6,4.3
		c-0.7-0.3-1.4-0.7-2.3-0.9c-0.8-0.3-1.8-0.4-3-0.4c-1.3,0-2.2,0.2-2.8,0.5s-0.9,0.9-0.9,1.7c0,0.4,0.1,0.8,0.3,1.1
		c0.2,0.3,0.5,0.6,0.9,0.8s0.8,0.5,1.3,0.7s1.1,0.4,1.7,0.6c1.3,0.5,2.4,0.9,3.3,1.4s1.7,1,2.3,1.6s1.1,1.3,1.4,2.1s0.5,1.8,0.5,3
		c0,2.3-0.8,4-2.4,5.3c-1.6,1.2-4,1.9-7.2,1.9c-1.1,0-2-0.1-2.9-0.2c-0.9-0.1-1.6-0.3-2.3-0.5c-0.7-0.2-1.2-0.4-1.7-0.6
		c-0.5-0.2-0.9-0.4-1.2-0.6l1.5-4.3c0.7,0.4,1.6,0.8,2.7,1.1C424.5,208.8,425.8,209,427.3,209z"/>
	<path class="st7" d="M445.9,201.4c0.5-0.6,1-1.1,1.6-1.7c0.5-0.6,1.1-1.2,1.6-1.8s1-1.2,1.5-1.7s0.8-1,1.2-1.4h6.2
		c-1.2,1.4-2.4,2.8-3.6,4.1s-2.5,2.6-3.9,4c0.7,0.6,1.4,1.4,2.2,2.3c0.7,0.9,1.5,1.8,2.2,2.7s1.3,1.9,1.9,2.8
		c0.6,0.9,1.1,1.8,1.5,2.6h-6c-0.4-0.6-0.8-1.3-1.3-2s-1-1.5-1.5-2.2s-1.1-1.4-1.7-2.1c-0.6-0.7-1.2-1.3-1.8-1.7v8.1h-5.2v-26.3
		l5.2-0.8v15.1H445.9z"/>
	<path class="st7" d="M476.9,203.9c0,1.4-0.2,2.8-0.6,4s-1,2.2-1.8,3.1c-0.8,0.9-1.7,1.5-2.9,2c-1.1,0.5-2.4,0.7-3.7,0.7
		c-1.4,0-2.6-0.2-3.7-0.7s-2.1-1.1-2.9-2s-1.4-1.9-1.9-3.1c-0.4-1.2-0.7-2.5-0.7-4c0-1.4,0.2-2.8,0.7-4s1.1-2.2,1.9-3s1.8-1.5,2.9-2
		s2.3-0.7,3.6-0.7c1.3,0,2.5,0.2,3.7,0.7c1.1,0.5,2.1,1.1,2.9,2c0.8,0.8,1.4,1.9,1.9,3C476.7,201.2,476.9,202.5,476.9,203.9z
		 M471.6,203.9c0-1.6-0.3-2.9-1-3.8c-0.6-0.9-1.6-1.4-2.7-1.4s-2.1,0.5-2.8,1.4c-0.7,0.9-1,2.2-1,3.8s0.3,2.9,1,3.8
		c0.7,0.9,1.6,1.4,2.8,1.4s2.1-0.5,2.7-1.4C471.3,206.8,471.6,205.5,471.6,203.9z"/>
	<path class="st7" d="M495.9,188.9h5.5v24.3h-5.5v-10.3h-9.2v10.3h-5.5v-24.3h5.5v9.3h9.2V188.9z"/>
	<path class="st7" d="M522.4,212.5c-0.9,0.3-2,0.5-3.4,0.7s-2.9,0.3-4.4,0.3c-1.6,0-2.9-0.2-3.9-0.6c-1-0.4-1.9-1-2.5-1.8
		s-1-1.7-1.3-2.7s-0.4-2.2-0.4-3.5v-10.3h5.2v9.6c0,1.7,0.2,2.9,0.7,3.6c0.4,0.7,1.3,1.1,2.5,1.1c0.4,0,0.8,0,1.2-0.1
		c0.4,0,0.8-0.1,1.1-0.1v-14.2h5.2V212.5z"/>
	<path class="st7" d="M544.4,204c0,1.5-0.2,2.8-0.6,4c-0.4,1.2-1.1,2.2-1.9,3c-0.8,0.8-1.8,1.5-3,1.9s-2.5,0.7-4.1,0.7
		c-0.6,0-1.3,0-2-0.1s-1.4-0.1-2-0.2c-0.7-0.1-1.3-0.2-1.9-0.3c-0.6-0.1-1.1-0.3-1.6-0.4v-25.7l5.2-0.8v9.2c0.6-0.3,1.2-0.5,1.8-0.6
		s1.3-0.2,2-0.2c1.3,0,2.5,0.2,3.5,0.7s1.8,1.1,2.5,1.9c0.7,0.8,1.2,1.8,1.5,3C544.2,201.2,544.4,202.5,544.4,204z M539,203.8
		c0-3.4-1.2-5-3.7-5c-0.5,0-1.1,0.1-1.6,0.2c-0.5,0.1-1,0.3-1.3,0.5v9.5c0.3,0,0.6,0.1,1,0.1s0.8,0.1,1.3,0.1c1.4,0,2.5-0.5,3.2-1.5
		C538.7,206.7,539,205.4,539,203.8z"/>
	<path class="st7" d="M439.3,222.8c3,0,5.3,0.5,6.9,1.6s2.4,2.8,2.4,5.2s-0.8,4.2-2.4,5.2c-1.6,1.1-3.9,1.6-7,1.6h-1.4v6.7h-4.5
		v-19.8c1-0.2,2-0.3,3.1-0.4S438.5,222.8,439.3,222.8z M439.6,226.7c-0.3,0-0.7,0-1,0s-0.6,0-0.8,0.1v5.8h1.4c1.6,0,2.7-0.2,3.5-0.6
		c0.8-0.4,1.2-1.2,1.2-2.4c0-0.6-0.1-1-0.3-1.4s-0.5-0.7-0.9-0.9s-0.8-0.4-1.4-0.5C440.8,226.7,440.2,226.7,439.6,226.7z"/>
	<path class="st7" d="M464.7,242.6c-0.7,0.2-1.7,0.4-2.8,0.6s-2.4,0.3-3.7,0.3c-1.3,0-2.4-0.2-3.2-0.5c-0.9-0.3-1.5-0.8-2-1.5
		c-0.5-0.6-0.9-1.4-1.1-2.2c-0.2-0.9-0.3-1.8-0.3-2.9v-8.5h4.3v8c0,1.4,0.2,2.4,0.6,3s1.1,0.9,2.1,0.9c0.3,0,0.6,0,1,0
		c0.3,0,0.7-0.1,0.9-0.1v-11.8h4.3L464.7,242.6L464.7,242.6z"/>
	<path class="st7" d="M482.9,235.5c0,1.2-0.2,2.3-0.5,3.3c-0.4,1-0.9,1.8-1.6,2.5s-1.5,1.2-2.5,1.6c-1,0.4-2.1,0.6-3.4,0.6
		c-0.5,0-1.1,0-1.6-0.1c-0.6,0-1.1-0.1-1.7-0.2c-0.6-0.1-1.1-0.2-1.6-0.3s-0.9-0.2-1.3-0.3v-21.3l4.3-0.7v7.6c0.5-0.2,1-0.4,1.5-0.5
		s1.1-0.2,1.7-0.2c1.1,0,2,0.2,2.9,0.6c0.8,0.4,1.5,0.9,2.1,1.6c0.6,0.7,1,1.5,1.3,2.5C482.8,233.3,482.9,234.3,482.9,235.5z
		 M478.5,235.4c0-2.8-1-4.2-3.1-4.2c-0.4,0-0.9,0.1-1.3,0.2s-0.8,0.3-1.1,0.4v7.9c0.2,0,0.5,0.1,0.8,0.1s0.7,0,1.1,0
		c1.2,0,2.1-0.4,2.7-1.2C478.2,237.8,478.5,236.8,478.5,235.4z"/>
	<path class="st7" d="M490.6,240.1c0.8,0,1.4-0.1,1.7-0.2c0.3-0.2,0.5-0.5,0.5-0.9c0-0.3-0.2-0.7-0.6-0.9s-1.1-0.6-1.9-0.9
		c-0.7-0.3-1.3-0.5-1.8-0.8c-0.6-0.3-1-0.6-1.4-1s-0.7-0.8-0.9-1.3c-0.2-0.5-0.3-1.2-0.3-1.9c0-1.4,0.5-2.6,1.6-3.4
		c1.1-0.8,2.5-1.2,4.4-1.2c0.9,0,1.8,0.1,2.7,0.2c0.9,0.2,1.5,0.3,2,0.5l-0.8,3.4c-0.5-0.2-1-0.3-1.6-0.5c-0.6-0.1-1.3-0.2-2-0.2
		c-1.4,0-2,0.4-2,1.1c0,0.2,0,0.3,0.1,0.5c0.1,0.1,0.2,0.3,0.3,0.4c0.2,0.1,0.4,0.3,0.7,0.4c0.3,0.1,0.7,0.3,1.1,0.5
		c0.9,0.4,1.7,0.7,2.3,1c0.6,0.3,1.1,0.7,1.5,1.1c0.4,0.4,0.6,0.8,0.8,1.3c0.1,0.5,0.2,1,0.2,1.7c0,1.5-0.6,2.6-1.7,3.4
		c-1.1,0.8-2.7,1.2-4.8,1.2c-1.4,0-2.5-0.1-3.4-0.3s-1.5-0.4-1.9-0.6l0.7-3.5c0.7,0.3,1.5,0.5,2.3,0.7
		C489.1,240,489.9,240.1,490.6,240.1z"/>
	<path class="st7" d="M513.3,242.6c-0.7,0.2-1.7,0.4-2.8,0.6s-2.4,0.3-3.7,0.3c-1.3,0-2.4-0.2-3.2-0.5c-0.9-0.3-1.5-0.8-2-1.5
		c-0.5-0.6-0.9-1.4-1.1-2.2c-0.2-0.9-0.3-1.8-0.3-2.9v-8.5h4.3v8c0,1.4,0.2,2.4,0.6,3s1.1,0.9,2.1,0.9c0.3,0,0.6,0,1,0
		c0.3,0,0.7-0.1,0.9-0.1v-11.8h4.3L513.3,242.6L513.3,242.6z"/>
	<path class="st7" d="M531.6,235.5c0,1.2-0.2,2.3-0.5,3.3c-0.4,1-0.9,1.8-1.6,2.5c-0.7,0.7-1.5,1.2-2.5,1.6c-1,0.4-2.1,0.6-3.4,0.6
		c-0.5,0-1.1,0-1.6-0.1c-0.6,0-1.1-0.1-1.7-0.2c-0.6-0.1-1.1-0.2-1.6-0.3s-0.9-0.2-1.3-0.3v-21.3l4.3-0.7v7.6c0.5-0.2,1-0.4,1.5-0.5
		s1.1-0.2,1.7-0.2c1.1,0,2,0.2,2.9,0.6c0.8,0.4,1.5,0.9,2.1,1.6c0.6,0.7,1,1.5,1.3,2.5C531.4,233.3,531.6,234.3,531.6,235.5z
		 M527.2,235.4c0-2.8-1-4.2-3.1-4.2c-0.4,0-0.9,0.1-1.3,0.2s-0.8,0.3-1.1,0.4v7.9c0.2,0,0.5,0.1,0.8,0.1s0.7,0,1.1,0
		c1.2,0,2.1-0.4,2.7-1.2C526.9,237.8,527.2,236.8,527.2,235.4z"/>
</g>
<linearGradient id="SVGID_00000024705687621579455220000009169550738688406416_" gradientUnits="userSpaceOnUse" x1="876.3929" y1="191.3256" x2="1051.2072" y2="191.3256" gradientTransform="matrix(1 0 0 -1 0 707.2756)">
	<stop  offset="0" style="stop-color:#28C8AF"/>
	<stop  offset="1" style="stop-color:#0F554B"/>
</linearGradient>
<path style="fill:#EBEBEB;stroke:url(#SVGID_00000024705687621579455220000009169550738688406416_);stroke-width:4.8142;stroke-linecap:round;stroke-linejoin:round;stroke-miterlimit:10;stroke-dasharray:0.1605,12.8379;" d="
	M1048.8,429.2v173.5c0,22.5-18.4,40.8-40.8,40.8h-88.4c-22.5,0-40.8-18.4-40.8-40.8V429.2c0-22.5,18.4-40.8,40.8-40.8h88.4
	C1030.5,388.4,1048.8,406.7,1048.8,429.2z"/>
<g>
	<path class="st9" d="M951.5,439.9c0,1.7-0.3,3.2-0.8,4.5s-1.2,2.4-2.1,3.3c-0.9,0.9-1.9,1.5-3.2,2c-1.2,0.4-2.5,0.7-4,0.7
		c-1.4,0-2.7-0.2-3.9-0.7s-2.3-1.1-3.2-2s-1.6-2-2.1-3.3s-0.8-2.8-0.8-4.5s0.3-3.2,0.8-4.5s1.3-2.4,2.2-3.3s2-1.6,3.2-2
		s2.5-0.7,3.8-0.7c1.4,0,2.7,0.2,3.9,0.7c1.2,0.4,2.3,1.1,3.2,2s1.6,2,2.1,3.3C951.3,436.7,951.5,438.2,951.5,439.9z M936.2,439.9
		c0,1,0.1,1.9,0.4,2.7c0.2,0.8,0.6,1.5,1,2s1,1,1.7,1.3s1.4,0.5,2.3,0.5c0.8,0,1.6-0.2,2.2-0.5c0.7-0.3,1.2-0.7,1.7-1.3s0.8-1.3,1-2
		c0.2-0.8,0.4-1.7,0.4-2.7s-0.1-1.9-0.4-2.7c-0.2-0.8-0.6-1.5-1-2.1s-1-1-1.7-1.3s-1.4-0.5-2.2-0.5c-0.9,0-1.6,0.2-2.3,0.5
		s-1.2,0.8-1.7,1.3s-0.8,1.3-1,2.1C936.3,438.1,936.2,439,936.2,439.9z"/>
	<path class="st9" d="M969.2,442.4c0,1.2-0.1,2.3-0.4,3.2s-0.7,1.8-1.3,2.5s-1.3,1.2-2.1,1.6s-1.8,0.6-2.9,0.6
		c-0.6,0-1.2-0.1-1.7-0.2s-1-0.3-1.5-0.5v5.7H955v-20.1c0.4-0.1,0.8-0.2,1.3-0.3s1-0.2,1.6-0.3c0.6-0.1,1.1-0.1,1.7-0.2
		c0.6,0,1.1-0.1,1.6-0.1c1.3,0,2.4,0.2,3.4,0.6s1.8,0.9,2.5,1.6s1.2,1.5,1.6,2.5C969,440.1,969.2,441.2,969.2,442.4z M964.8,442.5
		c0-1.3-0.3-2.4-0.9-3.2c-0.6-0.8-1.5-1.2-2.7-1.2c-0.4,0-0.7,0-1.1,0c-0.3,0-0.6,0.1-0.8,0.1v7.8c0.3,0.2,0.6,0.3,1.1,0.4
		c0.4,0.1,0.9,0.2,1.3,0.2C963.7,446.6,964.8,445.3,964.8,442.5z"/>
	<path class="st9" d="M971.8,442.5c0-1.4,0.2-2.5,0.6-3.6s1-1.9,1.6-2.5s1.5-1.2,2.3-1.5c0.9-0.3,1.8-0.5,2.7-0.5
		c2.2,0,3.9,0.7,5.1,2c1.3,1.3,1.9,3.3,1.9,5.8c0,0.3,0,0.5,0,0.8s0,0.6-0.1,0.8h-9.8c0.1,0.9,0.5,1.6,1.2,2.1s1.7,0.8,3,0.8
		c0.8,0,1.6-0.1,2.3-0.2c0.8-0.1,1.4-0.3,1.9-0.5l0.6,3.5c-0.2,0.1-0.5,0.2-0.9,0.3c-0.4,0.1-0.8,0.2-1.3,0.3s-1,0.2-1.5,0.2
		c-0.5,0.1-1.1,0.1-1.6,0.1c-1.4,0-2.6-0.2-3.6-0.6s-1.9-1-2.5-1.7s-1.2-1.5-1.5-2.5C971.9,444.7,971.8,443.6,971.8,442.5z
		 M981.9,440.8c0-0.4-0.1-0.7-0.2-1.1c-0.1-0.3-0.3-0.7-0.5-0.9c-0.2-0.3-0.5-0.5-0.8-0.7s-0.8-0.3-1.3-0.3s-0.9,0.1-1.2,0.2
		c-0.3,0.2-0.6,0.4-0.9,0.7c-0.2,0.3-0.4,0.6-0.5,0.9c-0.1,0.4-0.2,0.7-0.3,1.1L981.9,440.8L981.9,440.8z"/>
	<path class="st9" d="M989.5,435.3c0.7-0.2,1.7-0.4,2.8-0.6s2.4-0.3,3.7-0.3s2.4,0.2,3.2,0.5c0.9,0.3,1.5,0.8,2,1.4s0.9,1.4,1.1,2.2
		c0.2,0.9,0.3,1.8,0.3,2.8v8.6h-4.3v-8.1c0-1.4-0.2-2.4-0.6-3c-0.4-0.6-1.1-0.9-2.1-0.9c-0.3,0-0.6,0-1,0c-0.3,0-0.7,0.1-0.9,0.1v12
		h-4.3L989.5,435.3L989.5,435.3z"/>
	<path class="st9" d="M927,459.7c3,0,5.3,0.5,6.9,1.6c1.6,1.1,2.4,2.7,2.4,5c0,1.4-0.3,2.6-1,3.4c-0.6,0.9-1.6,1.6-2.8,2.1
		c0.4,0.5,0.8,1.1,1.3,1.7c0.4,0.6,0.9,1.3,1.3,2c0.4,0.7,0.9,1.4,1.3,2.2c0.4,0.8,0.8,1.5,1.1,2.2h-5.1c-0.4-0.7-0.7-1.3-1.1-2
		c-0.4-0.7-0.8-1.3-1.2-2c-0.4-0.6-0.8-1.2-1.2-1.8c-0.4-0.6-0.8-1.1-1.2-1.6h-2.2v7.3H921V460c1-0.2,2-0.3,3.1-0.4
		S926.1,459.7,927,459.7z M927.2,463.5c-0.3,0-0.6,0-0.9,0c-0.3,0-0.5,0-0.7,0.1v5.5h1.3c1.7,0,2.9-0.2,3.7-0.6
		c0.7-0.4,1.1-1.1,1.1-2.2c0-1-0.4-1.7-1.1-2.1C929.8,463.7,928.7,463.5,927.2,463.5z"/>
	<path class="st9" d="M938.7,472.5c0-1.4,0.2-2.5,0.6-3.6s1-1.9,1.6-2.5s1.5-1.2,2.3-1.5c0.9-0.3,1.8-0.5,2.7-0.5
		c2.2,0,3.9,0.7,5.1,2c1.3,1.3,1.9,3.3,1.9,5.8c0,0.3,0,0.5,0,0.8s0,0.6-0.1,0.8H943c0.1,0.9,0.5,1.6,1.2,2.1s1.7,0.8,3,0.8
		c0.8,0,1.6-0.1,2.3-0.2c0.8-0.1,1.4-0.3,1.9-0.5l0.6,3.5c-0.2,0.1-0.5,0.2-0.9,0.3c-0.4,0.1-0.8,0.2-1.3,0.3s-1,0.2-1.5,0.2
		c-0.5,0.1-1.1,0.1-1.6,0.1c-1.4,0-2.6-0.2-3.6-0.6s-1.9-1-2.5-1.7s-1.2-1.5-1.5-2.5C938.8,474.7,938.7,473.6,938.7,472.5z
		 M948.8,470.8c0-0.4-0.1-0.7-0.2-1.1c-0.1-0.3-0.3-0.7-0.5-0.9c-0.2-0.3-0.5-0.5-0.8-0.7s-0.8-0.3-1.3-0.3s-0.9,0.1-1.2,0.2
		c-0.3,0.2-0.6,0.4-0.9,0.7c-0.2,0.3-0.4,0.6-0.5,0.9c-0.1,0.4-0.2,0.7-0.3,1.1L948.8,470.8L948.8,470.8z"/>
	<path class="st9" d="M962.9,457.5c0.8,0,1.5,0.1,2,0.2s1,0.3,1.3,0.4l-0.8,3.4c-0.3-0.1-0.7-0.2-1-0.3c-0.4-0.1-0.8-0.1-1.1-0.1
		c-0.5,0-1,0.1-1.3,0.2c-0.4,0.1-0.6,0.3-0.8,0.6c-0.2,0.3-0.3,0.6-0.4,0.9c-0.1,0.3-0.1,0.7-0.1,1.1v0.8h5.3v3.6h-5.3V480h-4.3
		v-16.1c0-2,0.6-3.5,1.7-4.7C959.1,458.1,960.8,457.5,962.9,457.5z M973.2,460.3c0,0.8-0.3,1.4-0.8,1.9s-1.1,0.7-1.8,0.7
		s-1.3-0.2-1.8-0.7s-0.8-1.1-0.8-1.9s0.3-1.4,0.8-1.9s1.1-0.7,1.8-0.7s1.3,0.2,1.8,0.7C973,458.9,973.2,459.6,973.2,460.3z
		 M972.8,480h-4.3v-15.3h4.3V480z"/>
	<path class="st9" d="M976.9,465.3c0.7-0.2,1.7-0.4,2.8-0.6s2.4-0.3,3.7-0.3s2.4,0.2,3.2,0.5c0.9,0.3,1.5,0.8,2,1.4s0.9,1.4,1.1,2.2
		s0.3,1.8,0.3,2.8v8.6h-4.3v-8.1c0-1.4-0.2-2.4-0.6-3s-1.1-0.9-2.1-0.9c-0.3,0-0.6,0-1,0c-0.3,0-0.7,0.1-0.9,0.1v12h-4.3
		L976.9,465.3L976.9,465.3z"/>
	<path class="st9" d="M993.2,472.5c0-1.4,0.2-2.5,0.6-3.6c0.4-1,1-1.9,1.6-2.5s1.5-1.2,2.3-1.5c0.9-0.3,1.8-0.5,2.7-0.5
		c2.2,0,3.9,0.7,5.1,2c1.3,1.3,1.9,3.3,1.9,5.8c0,0.3,0,0.5,0,0.8s0,0.6-0.1,0.8h-9.8c0.1,0.9,0.5,1.6,1.2,2.1s1.7,0.8,3,0.8
		c0.8,0,1.6-0.1,2.3-0.2c0.8-0.1,1.4-0.3,1.9-0.5l0.6,3.5c-0.2,0.1-0.5,0.2-0.9,0.3s-0.8,0.2-1.3,0.3c-0.5,0.1-1,0.2-1.5,0.2
		c-0.5,0.1-1.1,0.1-1.6,0.1c-1.4,0-2.6-0.2-3.6-0.6s-1.9-1-2.5-1.7s-1.2-1.5-1.5-2.5S993.2,473.6,993.2,472.5z M1003.4,470.8
		c0-0.4-0.1-0.7-0.2-1.1c-0.1-0.3-0.3-0.7-0.5-0.9c-0.2-0.3-0.5-0.5-0.8-0.7s-0.8-0.3-1.3-0.3s-0.9,0.1-1.2,0.2
		c-0.3,0.2-0.6,0.4-0.9,0.7c-0.2,0.3-0.4,0.6-0.5,0.9c-0.1,0.4-0.2,0.7-0.3,1.1L1003.4,470.8L1003.4,470.8z"/>
	<path class="st9" d="M924.8,540.4c-3.3,0-5.8-0.9-7.5-2.7s-2.6-4.4-2.6-7.7c0-1.7,0.3-3.1,0.8-4.5c0.5-1.3,1.2-2.4,2.1-3.3
		c0.9-0.9,2-1.6,3.2-2s2.6-0.7,4.1-0.7c0.9,0,1.6,0.1,2.3,0.2s1.3,0.3,1.8,0.4c0.5,0.2,1,0.3,1.3,0.5s0.6,0.3,0.8,0.4l-1.3,3.7
		c-0.6-0.3-1.3-0.6-2.2-0.8c-0.8-0.2-1.8-0.3-2.8-0.3c-0.7,0-1.4,0.1-2,0.3s-1.3,0.6-1.8,1.1s-0.9,1.2-1.2,2s-0.5,1.8-0.5,3
		c0,0.9,0.1,1.8,0.3,2.6s0.5,1.5,1,2.1s1,1,1.8,1.4c0.7,0.3,1.6,0.5,2.7,0.5c0.7,0,1.2,0,1.8-0.1c0.5-0.1,1-0.2,1.4-0.3
		s0.8-0.2,1.1-0.4c0.3-0.1,0.6-0.3,0.8-0.4l1.2,3.6c-0.6,0.4-1.5,0.7-2.7,1C927.7,540.3,926.3,540.4,924.8,540.4z"/>
	<path class="st9" d="M948.1,532.3c0,1.2-0.2,2.3-0.5,3.3s-0.9,1.8-1.5,2.6c-0.7,0.7-1.4,1.3-2.4,1.6c-0.9,0.4-1.9,0.6-3.1,0.6
		c-1.1,0-2.1-0.2-3.1-0.6s-1.7-0.9-2.4-1.6c-0.7-0.7-1.2-1.6-1.5-2.6s-0.6-2.1-0.6-3.3s0.2-2.3,0.6-3.3c0.4-1,0.9-1.8,1.6-2.5
		s1.5-1.2,2.4-1.6c0.9-0.4,1.9-0.6,3-0.6s2.1,0.2,3,0.6c0.9,0.4,1.7,0.9,2.4,1.6s1.2,1.5,1.5,2.5
		C947.9,530.1,948.1,531.1,948.1,532.3z M943.6,532.3c0-1.3-0.3-2.4-0.8-3.1c-0.5-0.8-1.3-1.1-2.3-1.1s-1.8,0.4-2.3,1.1
		c-0.5,0.8-0.8,1.8-0.8,3.1s0.3,2.4,0.8,3.2s1.3,1.2,2.3,1.2s1.7-0.4,2.3-1.2C943.4,534.7,943.6,533.7,943.6,532.3z"/>
	<path class="st9" d="M950.7,532.4c0-1.1,0.2-2.1,0.5-3.1c0.4-1,0.9-1.8,1.6-2.6c0.7-0.7,1.5-1.3,2.5-1.7s2.1-0.6,3.3-0.6
		c0.8,0,1.6,0.1,2.2,0.2c0.7,0.1,1.3,0.4,2,0.6l-0.9,3.5c-0.4-0.2-0.9-0.3-1.3-0.4c-0.5-0.1-1-0.2-1.6-0.2c-1.3,0-2.2,0.4-2.9,1.2
		c-0.6,0.8-0.9,1.8-0.9,3.1c0,1.4,0.3,2.4,0.9,3.2c0.6,0.8,1.6,1.1,3.1,1.1c0.5,0,1.1,0,1.7-0.1c0.6-0.1,1.2-0.3,1.7-0.5l0.6,3.5
		c-0.5,0.2-1.1,0.4-1.9,0.6c-0.8,0.2-1.6,0.2-2.5,0.2c-1.4,0-2.6-0.2-3.6-0.6c-1-0.4-1.8-1-2.5-1.7c-0.6-0.7-1.1-1.6-1.4-2.5
		S950.7,533.5,950.7,532.4z"/>
	<path class="st9" d="M979.4,532.3c0,1.2-0.2,2.3-0.5,3.3s-0.9,1.8-1.5,2.6c-0.7,0.7-1.4,1.3-2.4,1.6c-0.9,0.4-1.9,0.6-3.1,0.6
		c-1.1,0-2.1-0.2-3.1-0.6c-0.9-0.4-1.7-0.9-2.4-1.6c-0.7-0.7-1.2-1.6-1.5-2.6c-0.4-1-0.6-2.1-0.6-3.3s0.2-2.3,0.6-3.3
		c0.4-1,0.9-1.8,1.6-2.5s1.5-1.2,2.4-1.6s1.9-0.6,3-0.6s2.1,0.2,3,0.6s1.7,0.9,2.4,1.6s1.2,1.5,1.5,2.5
		C979.2,530.1,979.4,531.1,979.4,532.3z M975,532.3c0-1.3-0.3-2.4-0.8-3.1c-0.5-0.8-1.3-1.1-2.3-1.1s-1.8,0.4-2.3,1.1
		c-0.5,0.8-0.8,1.8-0.8,3.1s0.3,2.4,0.8,3.2s1.3,1.2,2.3,1.2s1.7-0.4,2.3-1.2S975,533.7,975,532.3z"/>
	<path class="st9" d="M996.2,539.5c-0.4,0.1-0.8,0.2-1.3,0.3s-1,0.2-1.6,0.3s-1.1,0.1-1.7,0.2c-0.6,0-1.1,0.1-1.6,0.1
		c-1.3,0-2.4-0.2-3.4-0.6c-1-0.4-1.8-0.9-2.5-1.6c-0.7-0.7-1.2-1.5-1.6-2.5c-0.4-1-0.5-2.1-0.5-3.3s0.2-2.4,0.5-3.3
		c0.3-1,0.8-1.8,1.3-2.5c0.6-0.7,1.3-1.2,2.1-1.6c0.8-0.4,1.8-0.6,2.9-0.6c0.6,0,1.1,0.1,1.6,0.2c0.5,0.1,1,0.3,1.4,0.5v-6.9
		l4.3-0.7L996.2,539.5L996.2,539.5z M986.4,532.3c0,1.3,0.3,2.4,0.9,3.2c0.6,0.8,1.5,1.2,2.7,1.2c0.4,0,0.7,0,1.1,0
		c0.3,0,0.6-0.1,0.8-0.1v-7.9c-0.3-0.2-0.6-0.3-1.1-0.4c-0.4-0.1-0.9-0.2-1.3-0.2C987.5,528.1,986.4,529.5,986.4,532.3z"/>
	<path class="st9" d="M1005.8,524.3c1.3,0,2.3,0.1,3.2,0.4s1.5,0.7,2,1.2s0.9,1.2,1.1,2s0.3,1.6,0.3,2.6v9c-0.6,0.1-1.5,0.3-2.6,0.5
		s-2.4,0.3-4,0.3c-1,0-1.9-0.1-2.7-0.3s-1.5-0.5-2.1-0.9s-1-0.9-1.3-1.6c-0.3-0.6-0.5-1.4-0.5-2.3c0-0.9,0.2-1.6,0.5-2.3
		c0.4-0.6,0.8-1.1,1.4-1.5c0.6-0.4,1.3-0.6,2.1-0.8s1.6-0.2,2.4-0.2c0.6,0,1.1,0,1.5,0.1c0.4,0,0.8,0.1,1.1,0.2v-0.4
		c0-0.7-0.2-1.3-0.7-1.8c-0.4-0.4-1.2-0.7-2.3-0.7c-0.7,0-1.5,0.1-2.2,0.2c-0.7,0.1-1.3,0.3-1.9,0.4l-0.6-3.5
		c0.3-0.1,0.6-0.2,0.9-0.2s0.8-0.2,1.2-0.2c0.4-0.1,0.9-0.1,1.4-0.2C1004.8,524.4,1005.3,524.3,1005.8,524.3z M1006.1,537
		c0.4,0,0.8,0,1.2,0s0.7,0,0.9-0.1v-3.3c-0.2,0-0.4-0.1-0.8-0.1c-0.3,0-0.7-0.1-1-0.1c-0.4,0-0.8,0-1.1,0.1c-0.4,0-0.7,0.1-0.9,0.3
		c-0.3,0.1-0.5,0.3-0.6,0.6c-0.2,0.2-0.2,0.5-0.2,0.9c0,0.7,0.2,1.1,0.7,1.4C1004.7,536.9,1005.3,537,1006.1,537z"/>
	<path class="st9" d="M959.4,597.7c0,0.9-0.3,1.5-0.8,2s-1.2,0.7-1.9,0.7s-1.3-0.2-1.9-0.7s-0.8-1.1-0.8-2s0.3-1.5,0.8-2
		s1.2-0.7,1.9-0.7s1.3,0.2,1.9,0.7S959.4,596.8,959.4,597.7z"/>
	<path class="st9" d="M966.5,597.7c0,0.9-0.3,1.5-0.8,2s-1.2,0.7-1.9,0.7s-1.3-0.2-1.9-0.7s-0.8-1.1-0.8-2s0.3-1.5,0.8-2
		s1.2-0.7,1.9-0.7s1.3,0.2,1.9,0.7S966.5,596.8,966.5,597.7z"/>
	<path class="st9" d="M973.6,597.7c0,0.9-0.3,1.5-0.8,2s-1.2,0.7-1.9,0.7s-1.3-0.2-1.9-0.7c-0.6-0.5-0.8-1.1-0.8-2s0.3-1.5,0.8-2
		c0.6-0.5,1.2-0.7,1.9-0.7s1.3,0.2,1.9,0.7S973.6,596.8,973.6,597.7z"/>
</g>
<linearGradient id="SVGID_00000052093560667662905160000011362245993651035565_" gradientUnits="userSpaceOnUse" x1="82.6929" y1="514.5256" x2="257.5071" y2="514.5256" gradientTransform="matrix(1 0 0 -1 0 707.2756)">
	<stop  offset="0" style="stop-color:#28C8AF"/>
	<stop  offset="1" style="stop-color:#0F554B"/>
</linearGradient>
<path style="fill:#EBEBEB;stroke:url(#SVGID_00000052093560667662905160000011362245993651035565_);stroke-width:4.8142;stroke-linecap:round;stroke-linejoin:round;stroke-miterlimit:10;stroke-dasharray:0.1605,12.8379;" d="
	M255.1,106v173.5c0,22.5-18.4,40.8-40.8,40.8h-88.4c-22.5,0-40.8-18.4-40.8-40.8V106c0-22.5,18.4-40.8,40.8-40.8h88.4
	C236.8,65.2,255.1,83.6,255.1,106z"/>
<g>
	<path class="st9" d="M108.6,121.7c0.3,0.6,0.8,1.4,1.2,2.4c0.5,0.9,0.9,2,1.4,3c0.5,1.1,1,2.2,1.5,3.3c0.5,1.1,0.9,2.2,1.4,3.2
		c0.4-1,0.9-2.1,1.4-3.2c0.5-1.1,1-2.3,1.5-3.3c0.5-1.1,1-2.1,1.4-3c0.5-0.9,0.9-1.7,1.2-2.4h4.1c0.2,1.3,0.4,2.8,0.5,4.5
		c0.2,1.7,0.3,3.4,0.4,5.2s0.2,3.6,0.3,5.4c0.1,1.8,0.2,3.5,0.3,5.1h-4.4c-0.1-2-0.1-4.1-0.2-6.4c-0.1-2.3-0.2-4.6-0.4-7
		c-0.3,0.8-0.7,1.7-1.2,2.7c-0.4,1-0.8,2-1.3,3c-0.4,1-0.8,1.9-1.2,2.8c-0.4,0.9-0.7,1.7-1,2.3h-3.2c-0.3-0.6-0.6-1.4-1-2.3
		c-0.4-0.9-0.8-1.8-1.2-2.8c-0.4-1-0.8-2-1.3-3c-0.4-1-0.8-1.9-1.2-2.7c-0.2,2.3-0.3,4.7-0.4,7s-0.2,4.4-0.2,6.4h-4.4
		c0.1-1.6,0.2-3.3,0.3-5.1c0.1-1.8,0.2-3.6,0.3-5.4s0.3-3.5,0.4-5.2c0.2-1.7,0.3-3.1,0.5-4.5H108.6z"/>
	<path class="st9" d="M134.5,126.2c1.3,0,2.3,0.1,3.2,0.4s1.5,0.7,2,1.2c0.5,0.5,0.9,1.2,1.1,2c0.2,0.8,0.3,1.6,0.3,2.6v9
		c-0.6,0.1-1.5,0.3-2.6,0.5s-2.4,0.3-4,0.3c-1,0-1.9-0.1-2.7-0.3s-1.5-0.5-2.1-0.9s-1-0.9-1.3-1.6c-0.3-0.6-0.5-1.4-0.5-2.3
		c0-0.9,0.2-1.6,0.5-2.3c0.4-0.6,0.8-1.1,1.4-1.5c0.6-0.4,1.3-0.6,2.1-0.8s1.6-0.2,2.4-0.2c0.6,0,1.1,0,1.5,0.1
		c0.4,0,0.8,0.1,1.1,0.2v-0.4c0-0.7-0.2-1.3-0.7-1.8c-0.4-0.4-1.2-0.7-2.3-0.7c-0.7,0-1.5,0.1-2.2,0.2s-1.3,0.3-1.9,0.4l-0.6-3.5
		c0.3-0.1,0.6-0.2,0.9-0.2s0.8-0.2,1.2-0.2c0.4-0.1,0.9-0.1,1.4-0.2C133.5,126.2,134,126.2,134.5,126.2z M134.9,138.8
		c0.4,0,0.8,0,1.2,0s0.7,0,0.9-0.1v-3.3c-0.2,0-0.4-0.1-0.8-0.1c-0.3,0-0.7-0.1-1-0.1c-0.4,0-0.8,0-1.1,0.1c-0.4,0-0.7,0.1-0.9,0.3
		c-0.3,0.1-0.5,0.3-0.6,0.6c-0.2,0.2-0.2,0.5-0.2,0.9c0,0.7,0.2,1.1,0.7,1.4C133.4,138.7,134.1,138.8,134.9,138.8z"/>
	<path class="st9" d="M149.5,138.7c0.8,0,1.4-0.1,1.7-0.2c0.3-0.2,0.5-0.5,0.5-0.9c0-0.3-0.2-0.7-0.6-0.9s-1.1-0.6-1.9-0.9
		c-0.7-0.3-1.3-0.5-1.8-0.8c-0.6-0.3-1-0.6-1.4-1s-0.7-0.8-0.9-1.3s-0.3-1.2-0.3-1.9c0-1.4,0.5-2.6,1.6-3.4c1.1-0.8,2.5-1.2,4.4-1.2
		c0.9,0,1.8,0.1,2.7,0.2c0.9,0.2,1.5,0.3,2,0.5l-0.8,3.4c-0.5-0.2-1-0.3-1.6-0.5c-0.6-0.1-1.3-0.2-2-0.2c-1.4,0-2,0.4-2,1.1
		c0,0.2,0,0.3,0.1,0.5c0.1,0.1,0.2,0.3,0.3,0.4c0.2,0.1,0.4,0.3,0.7,0.4c0.3,0.1,0.7,0.3,1.1,0.5c0.9,0.4,1.7,0.7,2.3,1
		s1.1,0.7,1.5,1.1c0.4,0.4,0.6,0.8,0.8,1.3c0.1,0.5,0.2,1,0.2,1.7c0,1.5-0.6,2.6-1.7,3.4c-1.1,0.8-2.7,1.2-4.8,1.2
		c-1.4,0-2.5-0.1-3.4-0.3s-1.5-0.4-1.9-0.6l0.7-3.5c0.7,0.3,1.5,0.5,2.3,0.7C147.9,138.7,148.7,138.7,149.5,138.7z"/>
	<path class="st9" d="M159,122.8l4.3-0.7v4.5h5.2v3.6h-5.2v5.4c0,0.9,0.2,1.6,0.5,2.2c0.3,0.5,1,0.8,1.9,0.8c0.5,0,0.9,0,1.4-0.1
		s0.9-0.2,1.3-0.4l0.6,3.4c-0.5,0.2-1.1,0.4-1.7,0.6c-0.6,0.2-1.4,0.2-2.3,0.2c-1.2,0-2.2-0.2-2.9-0.5c-0.8-0.3-1.4-0.8-1.9-1.3
		c-0.5-0.6-0.8-1.3-1-2.1s-0.3-1.7-0.3-2.7L159,122.8L159,122.8z"/>
	<path class="st9" d="M185.7,134.2c0,1.2-0.2,2.3-0.5,3.3s-0.9,1.8-1.5,2.6c-0.7,0.7-1.4,1.3-2.4,1.6s-1.9,0.6-3.1,0.6
		c-1.1,0-2.1-0.2-3.1-0.6c-0.9-0.4-1.7-0.9-2.4-1.6c-0.7-0.7-1.2-1.6-1.5-2.6c-0.4-1-0.6-2.1-0.6-3.3s0.2-2.3,0.6-3.3
		c0.4-1,0.9-1.8,1.6-2.5c0.7-0.7,1.5-1.2,2.4-1.6s1.9-0.6,3-0.6s2.1,0.2,3,0.6s1.7,0.9,2.4,1.6s1.2,1.5,1.5,2.5
		C185.5,131.9,185.7,133,185.7,134.2z M181.3,134.2c0-1.3-0.3-2.4-0.8-3.1c-0.5-0.8-1.3-1.1-2.3-1.1s-1.8,0.4-2.3,1.1
		c-0.5,0.8-0.8,1.8-0.8,3.1s0.3,2.4,0.8,3.2s1.3,1.2,2.3,1.2s1.7-0.4,2.3-1.2S181.3,135.5,181.3,134.2z"/>
	<path class="st9" d="M202.5,141.3c-0.4,0.1-0.8,0.2-1.3,0.3s-1,0.2-1.6,0.3s-1.1,0.1-1.7,0.2c-0.6,0-1.1,0.1-1.6,0.1
		c-1.3,0-2.4-0.2-3.4-0.6c-1-0.4-1.8-0.9-2.5-1.6c-0.7-0.7-1.2-1.5-1.6-2.5c-0.4-1-0.5-2.1-0.5-3.3s0.2-2.4,0.5-3.3
		c0.3-1,0.8-1.8,1.3-2.5c0.6-0.7,1.3-1.2,2.1-1.6s1.8-0.6,2.9-0.6c0.6,0,1.1,0.1,1.6,0.2s1,0.3,1.4,0.5V120l4.3-0.7v22H202.5z
		 M192.7,134.1c0,1.3,0.3,2.4,0.9,3.2c0.6,0.8,1.5,1.2,2.7,1.2c0.4,0,0.7,0,1.1,0c0.3,0,0.6-0.1,0.8-0.1v-7.9
		c-0.3-0.2-0.6-0.3-1.1-0.4s-0.9-0.2-1.3-0.2C193.7,129.9,192.7,131.3,192.7,134.1z"/>
	<path class="st9" d="M220.8,134.2c0,1.2-0.2,2.3-0.5,3.3s-0.9,1.8-1.5,2.6c-0.7,0.7-1.4,1.3-2.4,1.6s-1.9,0.6-3.1,0.6
		c-1.1,0-2.1-0.2-3.1-0.6c-0.9-0.4-1.7-0.9-2.4-1.6c-0.7-0.7-1.2-1.6-1.5-2.6c-0.4-1-0.6-2.1-0.6-3.3s0.2-2.3,0.6-3.3
		c0.4-1,0.9-1.8,1.6-2.5c0.7-0.7,1.5-1.2,2.4-1.6s1.9-0.6,3-0.6s2.1,0.2,3,0.6s1.7,0.9,2.4,1.6s1.2,1.5,1.5,2.5
		C220.6,131.9,220.8,133,220.8,134.2z M216.4,134.2c0-1.3-0.3-2.4-0.8-3.1c-0.5-0.8-1.3-1.1-2.3-1.1s-1.8,0.4-2.3,1.1
		c-0.5,0.8-0.8,1.8-0.8,3.1s0.3,2.4,0.8,3.2s1.3,1.2,2.3,1.2s1.7-0.4,2.3-1.2S216.4,135.5,216.4,134.2z"/>
	<path class="st9" d="M224.2,127.1c0.7-0.2,1.7-0.4,2.8-0.6s2.4-0.3,3.7-0.3s2.4,0.2,3.2,0.5c0.9,0.3,1.5,0.8,2,1.4
		c0.5,0.6,0.9,1.4,1.1,2.2c0.2,0.9,0.3,1.8,0.3,2.8v8.6H233v-8.1c0-1.4-0.2-2.4-0.6-3c-0.4-0.6-1.1-0.9-2.1-0.9c-0.3,0-0.6,0-1,0
		c-0.3,0-0.7,0.1-0.9,0.1v11.8h-4.3v-14.5H224.2z"/>
	<path class="st9" d="M112.6,181.5c3,0,5.3,0.5,6.9,1.6s2.4,2.8,2.4,5.2s-0.8,4.2-2.4,5.2c-1.6,1.1-3.9,1.6-7,1.6h-1.4v6.7h-4.5V182
		c1-0.2,2-0.3,3.1-0.4S111.8,181.5,112.6,181.5z M112.9,185.4c-0.3,0-0.7,0-1,0s-0.6,0-0.8,0.1v5.8h1.4c1.6,0,2.7-0.2,3.5-0.6
		c0.8-0.4,1.2-1.2,1.2-2.4c0-0.6-0.1-1-0.3-1.4s-0.5-0.7-0.9-0.9s-0.8-0.4-1.4-0.5C114.2,185.4,113.6,185.4,112.9,185.4z"/>
	<path class="st9" d="M123.8,194.3c0-1.4,0.2-2.5,0.6-3.6c0.4-1,1-1.9,1.6-2.5s1.5-1.2,2.3-1.5c0.9-0.3,1.8-0.5,2.7-0.5
		c2.2,0,3.9,0.7,5.1,2c1.3,1.3,1.9,3.3,1.9,5.8c0,0.3,0,0.5,0,0.8s0,0.6-0.1,0.8h-9.8c0.1,0.9,0.5,1.6,1.2,2.1s1.7,0.8,3,0.8
		c0.8,0,1.6-0.1,2.3-0.2c0.8-0.1,1.4-0.3,1.9-0.5l0.6,3.5c-0.2,0.1-0.5,0.2-0.9,0.3s-0.8,0.2-1.3,0.3s-1,0.2-1.5,0.2
		c-0.5,0.1-1.1,0.1-1.6,0.1c-1.4,0-2.6-0.2-3.6-0.6c-1-0.4-1.9-1-2.5-1.7s-1.2-1.5-1.5-2.5C124,196.5,123.8,195.4,123.8,194.3z
		 M134,192.7c0-0.4-0.1-0.7-0.2-1.1c-0.1-0.3-0.3-0.7-0.5-0.9c-0.2-0.3-0.5-0.5-0.8-0.7s-0.8-0.3-1.3-0.3s-0.9,0.1-1.2,0.2
		c-0.3,0.2-0.6,0.4-0.9,0.7c-0.2,0.3-0.4,0.6-0.5,0.9c-0.1,0.4-0.2,0.7-0.3,1.1h5.7V192.7z"/>
	<path class="st9" d="M140.7,194.3c0-1.4,0.2-2.5,0.6-3.6c0.4-1,1-1.9,1.6-2.5s1.5-1.2,2.3-1.5c0.9-0.3,1.8-0.5,2.7-0.5
		c2.2,0,3.9,0.7,5.1,2c1.3,1.3,1.9,3.3,1.9,5.8c0,0.3,0,0.5,0,0.8s0,0.6-0.1,0.8H145c0.1,0.9,0.5,1.6,1.2,2.1s1.7,0.8,3,0.8
		c0.8,0,1.6-0.1,2.3-0.2c0.8-0.1,1.4-0.3,1.9-0.5l0.6,3.5c-0.2,0.1-0.5,0.2-0.9,0.3s-0.8,0.2-1.3,0.3s-1,0.2-1.5,0.2
		c-0.5,0.1-1.1,0.1-1.6,0.1c-1.4,0-2.6-0.2-3.6-0.6c-1-0.4-1.9-1-2.5-1.7s-1.2-1.5-1.5-2.5C140.9,196.5,140.7,195.4,140.7,194.3z
		 M150.9,192.7c0-0.4-0.1-0.7-0.2-1.1c-0.1-0.3-0.3-0.7-0.5-0.9c-0.2-0.3-0.5-0.5-0.8-0.7s-0.8-0.3-1.3-0.3s-0.9,0.1-1.2,0.2
		c-0.3,0.2-0.6,0.4-0.9,0.7c-0.2,0.3-0.4,0.6-0.5,0.9c-0.1,0.4-0.2,0.7-0.3,1.1h5.7V192.7z"/>
	<path class="st9" d="M167.6,190.4c-0.4-0.1-0.8-0.2-1.4-0.3s-1.1-0.2-1.7-0.2c-0.3,0-0.6,0-1,0.1c-0.4,0-0.7,0.1-0.9,0.2v11.7h-4.3
		v-14.4c0.8-0.3,1.7-0.5,2.7-0.8c1.1-0.2,2.2-0.4,3.5-0.4c0.2,0,0.5,0,0.8,0s0.7,0.1,1,0.1s0.7,0.1,1,0.2c0.3,0.1,0.6,0.1,0.8,0.2
		L167.6,190.4z"/>
	<path class="st9" d="M185.8,181.7v3.9h-6.1v16.2h-4.5v-16.2h-6.1v-3.9H185.8z"/>
	<path class="st9" d="M199.5,201.3c-0.7,0.2-1.7,0.4-2.8,0.6s-2.4,0.3-3.7,0.3s-2.4-0.2-3.2-0.5c-0.9-0.3-1.5-0.8-2-1.5
		c-0.5-0.6-0.9-1.4-1.1-2.2c-0.2-0.9-0.3-1.8-0.3-2.9v-8.5h4.3v8c0,1.4,0.2,2.4,0.6,3s1.1,0.9,2.1,0.9c0.3,0,0.6,0,1,0
		c0.3,0,0.7-0.1,0.9-0.1v-11.8h4.3v14.7H199.5z"/>
	<path class="st9" d="M217.7,194.2c0,1.2-0.2,2.3-0.5,3.3c-0.4,1-0.9,1.8-1.6,2.5c-0.7,0.7-1.5,1.2-2.5,1.6c-1,0.4-2.1,0.6-3.4,0.6
		c-0.5,0-1.1,0-1.6-0.1c-0.6,0-1.1-0.1-1.7-0.2c-0.6-0.1-1.1-0.2-1.6-0.3s-0.9-0.2-1.3-0.3V180l4.3-0.7v7.6c0.5-0.2,1-0.4,1.5-0.5
		s1.1-0.2,1.7-0.2c1.1,0,2,0.2,2.9,0.6c0.8,0.4,1.5,0.9,2.1,1.6c0.6,0.7,1,1.5,1.3,2.5C217.6,191.9,217.7,193,217.7,194.2z
		 M213.3,194.1c0-2.8-1-4.2-3.1-4.2c-0.4,0-0.9,0.1-1.3,0.2s-0.8,0.3-1.1,0.4v7.9c0.2,0,0.5,0.1,0.8,0.1s0.7,0,1.1,0
		c1.2,0,2.1-0.4,2.7-1.2C213,196.5,213.3,195.4,213.3,194.1z"/>
	<path class="st9" d="M220.3,194.3c0-1.4,0.2-2.5,0.6-3.6c0.4-1,1-1.9,1.6-2.5s1.5-1.2,2.3-1.5c0.9-0.3,1.8-0.5,2.7-0.5
		c2.2,0,3.9,0.7,5.1,2c1.3,1.3,1.9,3.3,1.9,5.8c0,0.3,0,0.5,0,0.8s0,0.6-0.1,0.8h-9.8c0.1,0.9,0.5,1.6,1.2,2.1s1.7,0.8,3,0.8
		c0.8,0,1.6-0.1,2.3-0.2c0.8-0.1,1.4-0.3,1.9-0.5l0.6,3.5c-0.2,0.1-0.5,0.2-0.9,0.3s-0.8,0.2-1.3,0.3s-1,0.2-1.5,0.2
		c-0.5,0.1-1.1,0.1-1.6,0.1c-1.4,0-2.6-0.2-3.6-0.6c-1-0.4-1.9-1-2.5-1.7s-1.2-1.5-1.5-2.5C220.5,196.5,220.3,195.4,220.3,194.3z
		 M230.5,192.7c0-0.4-0.1-0.7-0.2-1.1c-0.1-0.3-0.3-0.7-0.5-0.9c-0.2-0.3-0.5-0.5-0.8-0.7s-0.8-0.3-1.3-0.3s-0.9,0.1-1.2,0.2
		c-0.3,0.2-0.6,0.4-0.9,0.7c-0.2,0.3-0.4,0.6-0.5,0.9c-0.1,0.4-0.2,0.7-0.3,1.1h5.7V192.7z"/>
	<path class="st9" d="M165.7,259.5c0,0.9-0.3,1.5-0.8,2s-1.2,0.7-1.9,0.7s-1.3-0.2-1.9-0.7c-0.6-0.5-0.8-1.1-0.8-2s0.3-1.5,0.8-2
		c0.6-0.5,1.2-0.7,1.9-0.7s1.3,0.2,1.9,0.7S165.7,258.7,165.7,259.5z"/>
	<path class="st9" d="M172.8,259.5c0,0.9-0.3,1.5-0.8,2s-1.2,0.7-1.9,0.7s-1.3-0.2-1.9-0.7c-0.6-0.5-0.8-1.1-0.8-2s0.3-1.5,0.8-2
		c0.6-0.5,1.2-0.7,1.9-0.7s1.3,0.2,1.9,0.7S172.8,258.7,172.8,259.5z"/>
	<path class="st9" d="M179.9,259.5c0,0.9-0.3,1.5-0.8,2s-1.2,0.7-1.9,0.7s-1.3-0.2-1.9-0.7c-0.6-0.5-0.8-1.1-0.8-2s0.3-1.5,0.8-2
		c0.6-0.5,1.2-0.7,1.9-0.7s1.3,0.2,1.9,0.7S179.9,258.7,179.9,259.5z"/>
</g>
<g>
	<path class="st9" d="M873.8,307.6c3,0,5.3,0.5,6.9,1.6c1.6,1.1,2.4,2.7,2.4,5c0,1.4-0.3,2.6-1,3.4c-0.6,0.9-1.6,1.6-2.8,2.1
		c0.4,0.5,0.8,1.1,1.3,1.7c0.4,0.6,0.9,1.3,1.3,2c0.4,0.7,0.9,1.4,1.3,2.2c0.4,0.8,0.8,1.5,1.1,2.2h-5.1c-0.4-0.7-0.7-1.3-1.1-2
		c-0.4-0.7-0.8-1.3-1.2-2c-0.4-0.6-0.8-1.2-1.2-1.8c-0.4-0.6-0.8-1.1-1.2-1.6h-2.2v7.3h-4.5v-19.8c1-0.2,2-0.3,3.1-0.4
		S873,307.6,873.8,307.6z M874.1,311.5c-0.3,0-0.6,0-0.9,0c-0.3,0-0.5,0-0.7,0.1v5.5h1.3c1.7,0,2.9-0.2,3.7-0.6
		c0.7-0.4,1.1-1.1,1.1-2.2c0-1-0.4-1.7-1.1-2.1C876.6,311.7,875.5,311.5,874.1,311.5z"/>
	<path class="st9" d="M885.5,320.4c0-1.4,0.2-2.5,0.6-3.6s1-1.9,1.6-2.5s1.5-1.2,2.3-1.5c0.9-0.3,1.8-0.5,2.7-0.5
		c2.2,0,3.9,0.7,5.1,2c1.3,1.3,1.9,3.3,1.9,5.8c0,0.3,0,0.5,0,0.8s0,0.6-0.1,0.8H890c0.1,0.9,0.5,1.6,1.2,2.1s1.7,0.8,3,0.8
		c0.8,0,1.6-0.1,2.3-0.2c0.8-0.1,1.4-0.3,1.9-0.5l0.6,3.5c-0.2,0.1-0.5,0.2-0.9,0.3c-0.4,0.1-0.8,0.2-1.3,0.3s-1,0.2-1.5,0.2
		c-0.5,0.1-1.1,0.1-1.6,0.1c-1.4,0-2.6-0.2-3.6-0.6s-1.9-1-2.5-1.7c-0.7-0.7-1.2-1.5-1.5-2.5C885.7,322.6,885.5,321.5,885.5,320.4z
		 M895.7,318.8c0-0.4-0.1-0.7-0.2-1.1c-0.1-0.3-0.3-0.7-0.5-0.9c-0.2-0.3-0.5-0.5-0.8-0.7s-0.8-0.3-1.3-0.3s-0.9,0.1-1.2,0.2
		c-0.3,0.2-0.6,0.4-0.9,0.7c-0.2,0.3-0.4,0.6-0.5,0.9c-0.1,0.4-0.2,0.7-0.3,1.1L895.7,318.8L895.7,318.8z"/>
	<path class="st9" d="M902.5,320.3c0-1.1,0.2-2.1,0.5-3.1c0.4-1,0.9-1.8,1.6-2.6c0.7-0.7,1.5-1.3,2.5-1.7c1-0.4,2.1-0.6,3.3-0.6
		c0.8,0,1.6,0.1,2.2,0.2c0.7,0.1,1.3,0.4,2,0.6l-0.9,3.5c-0.4-0.2-0.9-0.3-1.3-0.4c-0.5-0.1-1-0.2-1.6-0.2c-1.3,0-2.2,0.4-2.9,1.2
		c-0.6,0.8-0.9,1.8-0.9,3.1c0,1.4,0.3,2.4,0.9,3.2c0.6,0.8,1.6,1.1,3.1,1.1c0.5,0,1.1,0,1.7-0.1c0.6-0.1,1.1-0.3,1.7-0.5l0.6,3.5
		c-0.5,0.2-1.1,0.4-1.9,0.6c-0.8,0.2-1.6,0.2-2.5,0.2c-1.4,0-2.6-0.2-3.6-0.6s-1.8-1-2.5-1.7c-0.6-0.7-1.1-1.6-1.4-2.5
		S902.5,321.4,902.5,320.3z"/>
	<path class="st9" d="M931.2,320.3c0,1.2-0.2,2.3-0.5,3.3s-0.9,1.8-1.5,2.6c-0.7,0.7-1.4,1.3-2.4,1.6c-0.9,0.4-1.9,0.6-3.1,0.6
		c-1.1,0-2.1-0.2-3.1-0.6c-0.9-0.4-1.7-0.9-2.4-1.6s-1.2-1.6-1.5-2.6c-0.4-1-0.6-2.1-0.6-3.3c0-1.2,0.2-2.3,0.6-3.3
		c0.4-1,0.9-1.8,1.6-2.5s1.5-1.2,2.4-1.6s1.9-0.6,3-0.6s2.1,0.2,3,0.6s1.7,0.9,2.4,1.6s1.2,1.5,1.5,2.5
		C931,318,931.2,319.1,931.2,320.3z M926.8,320.3c0-1.3-0.3-2.4-0.8-3.1c-0.5-0.8-1.3-1.1-2.3-1.1s-1.8,0.4-2.3,1.1
		c-0.5,0.8-0.8,1.8-0.8,3.1s0.3,2.4,0.8,3.2c0.5,0.8,1.3,1.2,2.3,1.2s1.7-0.4,2.3-1.2C926.5,322.7,926.8,321.6,926.8,320.3z"/>
	<path class="st9" d="M934.6,313.2c0.7-0.2,1.7-0.4,2.8-0.6s2.4-0.3,3.7-0.3s2.4,0.2,3.2,0.5c0.9,0.3,1.5,0.8,2,1.4s0.9,1.4,1.1,2.2
		c0.2,0.9,0.3,1.8,0.3,2.8v8.6h-4.3v-8.1c0-1.4-0.2-2.4-0.6-3c-0.4-0.6-1.1-0.9-2.1-0.9c-0.3,0-0.6,0-1,0c-0.3,0-0.7,0.1-0.9,0.1
		v11.8h-4.3L934.6,313.2L934.6,313.2z"/>
	<path class="st9" d="M950.9,320.3c0-1.1,0.2-2.1,0.5-3.1c0.4-1,0.9-1.8,1.6-2.6c0.7-0.7,1.5-1.3,2.5-1.7c1-0.4,2.1-0.6,3.3-0.6
		c0.8,0,1.6,0.1,2.2,0.2c0.7,0.1,1.3,0.4,2,0.6l-0.9,3.5c-0.4-0.2-0.9-0.3-1.3-0.4c-0.5-0.1-1-0.2-1.6-0.2c-1.3,0-2.2,0.4-2.9,1.2
		c-0.6,0.8-0.9,1.8-0.9,3.1c0,1.4,0.3,2.4,0.9,3.2c0.6,0.8,1.6,1.1,3.1,1.1c0.5,0,1.1,0,1.7-0.1c0.6-0.1,1.2-0.3,1.7-0.5l0.6,3.5
		c-0.5,0.2-1.1,0.4-1.9,0.6c-0.8,0.2-1.6,0.2-2.5,0.2c-1.4,0-2.6-0.2-3.6-0.6s-1.8-1-2.5-1.7c-0.6-0.7-1.1-1.6-1.4-2.5
		S950.9,321.4,950.9,320.3z"/>
	<path class="st9" d="M970.9,308.3c0,0.8-0.3,1.4-0.8,1.9s-1.1,0.7-1.8,0.7s-1.3-0.2-1.8-0.7s-0.8-1.1-0.8-1.9s0.3-1.4,0.8-1.9
		s1.1-0.7,1.8-0.7s1.3,0.2,1.8,0.7C970.6,306.9,970.9,307.5,970.9,308.3z M970.5,327.9h-4.3v-15.3h4.3V327.9z"/>
	<path class="st9" d="M980.6,328.2c-1.3,0-2.3-0.2-3.1-0.4c-0.8-0.3-1.4-0.6-1.9-1.1s-0.8-1-0.9-1.7c-0.2-0.6-0.2-1.4-0.2-2.2V306
		l4.3-0.7V322c0,0.4,0,0.7,0.1,1s0.2,0.6,0.3,0.8c0.2,0.2,0.4,0.4,0.7,0.5s0.7,0.2,1.2,0.3L980.6,328.2z"/>
	<path class="st9" d="M988.4,308.3c0,0.8-0.3,1.4-0.8,1.9s-1.1,0.7-1.8,0.7s-1.3-0.2-1.8-0.7s-0.8-1.1-0.8-1.9s0.3-1.4,0.8-1.9
		s1.1-0.7,1.8-0.7s1.3,0.2,1.8,0.7C988.2,306.9,988.4,307.5,988.4,308.3z M988,327.9h-4.3v-15.3h4.3V327.9z"/>
	<path class="st9" d="M997.5,312.3c1.3,0,2.3,0.1,3.2,0.4s1.5,0.7,2,1.2s0.9,1.2,1.1,2s0.3,1.6,0.3,2.6v9c-0.6,0.1-1.5,0.3-2.6,0.5
		s-2.4,0.3-4,0.3c-1,0-1.9-0.1-2.7-0.3c-0.8-0.2-1.5-0.5-2.1-0.9s-1-0.9-1.3-1.6c-0.3-0.6-0.5-1.4-0.5-2.3s0.2-1.6,0.5-2.3
		c0.4-0.6,0.8-1.1,1.4-1.5c0.6-0.4,1.3-0.6,2.1-0.8s1.6-0.2,2.4-0.2c0.6,0,1.1,0,1.5,0.1c0.4,0,0.8,0.1,1.1,0.2v-0.4
		c0-0.7-0.2-1.3-0.7-1.8c-0.4-0.4-1.2-0.7-2.3-0.7c-0.7,0-1.5,0.1-2.2,0.2s-1.3,0.3-1.9,0.4l-0.6-3.5c0.3-0.1,0.6-0.2,0.9-0.2
		s0.8-0.2,1.2-0.2c0.4-0.1,0.9-0.1,1.4-0.2C996.5,312.3,997,312.3,997.5,312.3z M997.9,324.9c0.4,0,0.8,0,1.2,0s0.7,0,0.9-0.1v-3.3
		c-0.2,0-0.4-0.1-0.8-0.1c-0.3,0-0.7-0.1-1-0.1c-0.4,0-0.8,0-1.1,0.1c-0.4,0-0.7,0.1-0.9,0.3c-0.3,0.1-0.5,0.3-0.6,0.6
		c-0.2,0.2-0.2,0.5-0.2,0.9c0,0.7,0.2,1.1,0.7,1.4C996.5,324.8,997.1,324.9,997.9,324.9z"/>
	<path class="st9" d="M1008,308.9l4.3-0.7v4.5h5.2v3.6h-5.2v5.4c0,0.9,0.2,1.6,0.5,2.2c0.3,0.5,1,0.8,1.9,0.8c0.5,0,0.9,0,1.4-0.1
		s0.9-0.2,1.3-0.4l0.6,3.4c-0.5,0.2-1.1,0.4-1.7,0.6s-1.4,0.2-2.3,0.2c-1.2,0-2.2-0.2-2.9-0.5c-0.8-0.3-1.4-0.8-1.9-1.3
		c-0.5-0.6-0.8-1.3-1-2.1c-0.2-0.8-0.3-1.7-0.3-2.7v-12.9H1008z"/>
	<path class="st9" d="M1025.7,308.3c0,0.8-0.3,1.4-0.8,1.9s-1.1,0.7-1.8,0.7s-1.3-0.2-1.8-0.7s-0.8-1.1-0.8-1.9s0.3-1.4,0.8-1.9
		s1.1-0.7,1.8-0.7s1.3,0.2,1.8,0.7C1025.4,306.9,1025.7,307.5,1025.7,308.3z M1025.3,327.9h-4.3v-15.3h4.3V327.9z"/>
	<path class="st9" d="M1043.6,320.3c0,1.2-0.2,2.3-0.5,3.3s-0.9,1.8-1.5,2.6c-0.7,0.7-1.4,1.3-2.4,1.6c-0.9,0.4-1.9,0.6-3.1,0.6
		c-1.1,0-2.1-0.2-3.1-0.6s-1.7-0.9-2.4-1.6c-0.7-0.7-1.2-1.6-1.5-2.6s-0.6-2.1-0.6-3.3c0-1.2,0.2-2.3,0.6-3.3s0.9-1.8,1.6-2.5
		s1.5-1.2,2.4-1.6s1.9-0.6,3-0.6s2.1,0.2,3,0.6s1.7,0.9,2.4,1.6s1.2,1.5,1.5,2.5C1043.4,318,1043.6,319.1,1043.6,320.3z
		 M1039.2,320.3c0-1.3-0.3-2.4-0.8-3.1c-0.5-0.8-1.3-1.1-2.3-1.1s-1.8,0.4-2.3,1.1c-0.5,0.8-0.8,1.8-0.8,3.1s0.3,2.4,0.8,3.2
		s1.3,1.2,2.3,1.2s1.7-0.4,2.3-1.2C1038.9,322.7,1039.2,321.6,1039.2,320.3z"/>
	<path class="st9" d="M1047,313.2c0.7-0.2,1.7-0.4,2.8-0.6s2.4-0.3,3.7-0.3c1.3,0,2.4,0.2,3.2,0.5c0.9,0.3,1.5,0.8,2,1.4
		s0.9,1.4,1.1,2.2s0.3,1.8,0.3,2.8v8.6h-4.3v-8.1c0-1.4-0.2-2.4-0.6-3s-1.1-0.9-2.1-0.9c-0.3,0-0.6,0-1,0c-0.3,0-0.7,0.1-0.9,0.1
		v11.8h-4.3v-14.5H1047z"/>
	<path class="st9" d="M892.8,354.5c0.6,0,1.2-0.1,1.6-0.2c0.4-0.1,0.7-0.3,1-0.4c0.3-0.2,0.4-0.4,0.5-0.7c0.1-0.3,0.1-0.5,0.1-0.8
		c0-0.7-0.3-1.2-0.9-1.6c-0.6-0.4-1.7-0.9-3.2-1.4c-0.7-0.2-1.3-0.5-2-0.8s-1.2-0.7-1.8-1.1c-0.5-0.5-0.9-1-1.3-1.7
		c-0.3-0.6-0.5-1.4-0.5-2.4c0-0.9,0.2-1.8,0.5-2.5s0.8-1.4,1.5-1.9c0.6-0.5,1.4-0.9,2.3-1.2c0.9-0.3,1.9-0.4,3.1-0.4
		c1.4,0,2.5,0.1,3.5,0.4s1.8,0.6,2.4,1l-1.3,3.6c-0.6-0.3-1.2-0.5-1.9-0.8c-0.7-0.2-1.5-0.3-2.5-0.3c-1.1,0-1.9,0.2-2.3,0.4
		c-0.5,0.3-0.7,0.8-0.7,1.4c0,0.4,0.1,0.7,0.3,0.9c0.2,0.3,0.4,0.5,0.7,0.7s0.7,0.4,1.1,0.6c0.4,0.2,0.9,0.3,1.4,0.5
		c1,0.4,2,0.8,2.7,1.1c0.8,0.4,1.4,0.8,1.9,1.3s0.9,1.1,1.1,1.8s0.4,1.5,0.4,2.5c0,1.9-0.7,3.3-2,4.4s-3.3,1.6-5.9,1.6
		c-0.9,0-1.7-0.1-2.4-0.2s-1.3-0.2-1.9-0.4c-0.6-0.2-1-0.3-1.4-0.5s-0.7-0.3-1-0.5l1.3-3.6c0.6,0.3,1.3,0.6,2.2,0.9
		C890.4,354.3,891.5,354.5,892.8,354.5z"/>
	<path class="st9" d="M903.1,350.4c0-1.4,0.2-2.5,0.6-3.6c0.4-1,1-1.9,1.6-2.5s1.5-1.2,2.3-1.5c0.9-0.3,1.8-0.5,2.7-0.5
		c2.2,0,3.9,0.7,5.1,2c1.3,1.3,1.9,3.3,1.9,5.8c0,0.3,0,0.5,0,0.8s0,0.6-0.1,0.8h-9.8c0.1,0.9,0.5,1.6,1.2,2.1s1.7,0.8,3,0.8
		c0.8,0,1.6-0.1,2.3-0.2c0.8-0.1,1.4-0.3,1.9-0.5l0.6,3.5c-0.2,0.1-0.5,0.2-0.9,0.3s-0.8,0.2-1.3,0.3c-0.5,0.1-1,0.2-1.5,0.2
		c-0.5,0.1-1.1,0.1-1.6,0.1c-1.4,0-2.6-0.2-3.6-0.6s-1.9-1-2.5-1.7s-1.2-1.5-1.5-2.5S903.1,351.5,903.1,350.4z M913.3,348.8
		c0-0.4-0.1-0.7-0.2-1.1c-0.1-0.3-0.3-0.7-0.5-0.9c-0.2-0.3-0.5-0.5-0.8-0.7s-0.8-0.3-1.3-0.3s-0.9,0.1-1.2,0.2
		c-0.3,0.2-0.6,0.4-0.9,0.7c-0.2,0.3-0.4,0.6-0.5,0.9c-0.1,0.4-0.2,0.7-0.3,1.1L913.3,348.8L913.3,348.8z"/>
	<path class="st9" d="M930,346.5c-0.4-0.1-0.8-0.2-1.4-0.3c-0.5-0.1-1.1-0.2-1.7-0.2c-0.3,0-0.6,0-1,0.1c-0.4,0-0.7,0.1-0.9,0.2V358
		h-4.3v-14.4c0.8-0.3,1.7-0.5,2.7-0.8c1.1-0.2,2.2-0.4,3.5-0.4c0.2,0,0.5,0,0.8,0s0.7,0.1,1,0.1s0.7,0.1,1,0.2s0.6,0.1,0.8,0.2
		L930,346.5z"/>
	<path class="st9" d="M938.1,357.9c-1-1.9-2-4.2-3-6.8s-2-5.4-2.9-8.5h4.6c0.2,0.8,0.4,1.6,0.7,2.5s0.5,1.8,0.8,2.7
		c0.3,0.9,0.6,1.8,0.8,2.6c0.3,0.9,0.6,1.6,0.8,2.3c0.3-0.7,0.5-1.5,0.8-2.3s0.6-1.7,0.9-2.6c0.3-0.9,0.6-1.8,0.8-2.7
		c0.3-0.9,0.5-1.7,0.7-2.5h4.5c-0.9,3.1-1.9,5.9-2.9,8.5s-2,4.9-3,6.8H938.1z"/>
	<path class="st9" d="M954.6,338.3c0,0.8-0.3,1.4-0.8,1.9s-1.1,0.7-1.8,0.7s-1.3-0.2-1.8-0.7s-0.8-1.1-0.8-1.9s0.3-1.4,0.8-1.9
		s1.1-0.7,1.8-0.7s1.3,0.2,1.8,0.7C954.4,336.9,954.6,337.5,954.6,338.3z M954.2,357.9h-4.3v-15.3h4.3V357.9z"/>
	<path class="st9" d="M957.5,350.3c0-1.1,0.2-2.1,0.5-3.1c0.4-1,0.9-1.8,1.6-2.6c0.7-0.7,1.5-1.3,2.5-1.7c1-0.4,2.1-0.6,3.3-0.6
		c0.8,0,1.6,0.1,2.2,0.2c0.7,0.1,1.3,0.4,2,0.6l-0.9,3.5c-0.4-0.2-0.9-0.3-1.3-0.4c-0.5-0.1-1-0.2-1.6-0.2c-1.3,0-2.2,0.4-2.9,1.2
		c-0.6,0.8-0.9,1.8-0.9,3.1c0,1.4,0.3,2.4,0.9,3.2c0.6,0.8,1.6,1.1,3.1,1.1c0.5,0,1.1,0,1.7-0.1c0.6-0.1,1.2-0.3,1.7-0.5l0.6,3.5
		c-0.5,0.2-1.1,0.4-1.9,0.6c-0.8,0.2-1.6,0.2-2.5,0.2c-1.4,0-2.6-0.2-3.6-0.6s-1.8-1-2.5-1.7c-0.6-0.7-1.1-1.6-1.4-2.5
		S957.5,351.4,957.5,350.3z"/>
	<path class="st9" d="M971.3,350.4c0-1.4,0.2-2.5,0.6-3.6c0.4-1,1-1.9,1.6-2.5s1.5-1.2,2.3-1.5c0.9-0.3,1.8-0.5,2.7-0.5
		c2.2,0,3.9,0.7,5.1,2c1.3,1.3,1.9,3.3,1.9,5.8c0,0.3,0,0.5,0,0.8s0,0.6-0.1,0.8h-9.8c0.1,0.9,0.5,1.6,1.2,2.1s1.7,0.8,3,0.8
		c0.8,0,1.6-0.1,2.3-0.2c0.8-0.1,1.4-0.3,1.9-0.5l0.6,3.5c-0.2,0.1-0.5,0.2-0.9,0.3s-0.8,0.2-1.3,0.3c-0.5,0.1-1,0.2-1.5,0.2
		c-0.5,0.1-1.1,0.1-1.6,0.1c-1.4,0-2.6-0.2-3.6-0.6s-1.9-1-2.5-1.7s-1.2-1.5-1.5-2.5S971.3,351.5,971.3,350.4z M981.5,348.8
		c0-0.4-0.1-0.7-0.2-1.1c-0.1-0.3-0.3-0.7-0.5-0.9c-0.2-0.3-0.5-0.5-0.8-0.7s-0.8-0.3-1.3-0.3s-0.9,0.1-1.2,0.2
		c-0.3,0.2-0.6,0.4-0.9,0.7c-0.2,0.3-0.4,0.6-0.5,0.9c-0.1,0.4-0.2,0.7-0.3,1.1L981.5,348.8L981.5,348.8z"/>
	<path class="st9" d="M1009.7,357.9c-0.2-0.7-0.5-1.4-0.7-2.2c-0.3-0.7-0.5-1.5-0.8-2.2h-7.8c-0.3,0.7-0.5,1.5-0.8,2.2
		s-0.5,1.5-0.7,2.1h-4.7c0.8-2.2,1.5-4.2,2.2-6s1.3-3.6,2-5.2s1.3-3.2,1.9-4.6c0.6-1.5,1.3-2.9,2-4.3h4.3c0.7,1.4,1.3,2.8,2,4.3
		s1.3,3,1.9,4.6s1.3,3.4,2,5.2s1.4,3.8,2.2,6h-5V357.9z M1004.3,342.4c-0.1,0.3-0.2,0.7-0.4,1.2s-0.4,1.1-0.7,1.7
		c-0.2,0.7-0.5,1.4-0.8,2.2c-0.3,0.8-0.6,1.6-0.9,2.5h5.7c-0.3-0.9-0.6-1.7-0.9-2.5s-0.6-1.5-0.8-2.2c-0.3-0.7-0.5-1.2-0.7-1.7
		C1004.5,343.1,1004.4,342.7,1004.3,342.4z"/>
	<path class="st9" d="M1023.2,337.6c3,0,5.3,0.5,6.9,1.6s2.4,2.8,2.4,5.2c0,2.4-0.8,4.2-2.4,5.2c-1.6,1.1-3.9,1.6-7,1.6h-1.4v6.7
		h-4.5v-19.8c1-0.2,2-0.3,3.1-0.4C1021.4,337.6,1022.3,337.6,1023.2,337.6z M1023.5,341.5c-0.3,0-0.7,0-1,0s-0.6,0-0.8,0.1v5.8h1.4
		c1.6,0,2.7-0.2,3.5-0.6s1.2-1.2,1.2-2.4c0-0.6-0.1-1-0.3-1.4s-0.5-0.7-0.9-0.9c-0.4-0.2-0.8-0.4-1.4-0.5
		C1024.7,341.5,1024.1,341.5,1023.5,341.5z"/>
	<path class="st9" d="M1035.8,337.8h4.5v20.1h-4.5V337.8z"/>
</g>
<g>
	<path class="st9" d="M101.2,372.1c-0.2-0.7-0.5-1.4-0.7-2.2c-0.3-0.7-0.5-1.5-0.8-2.2h-7.8c-0.3,0.7-0.5,1.5-0.8,2.2
		s-0.5,1.5-0.7,2.1h-4.7c0.8-2.2,1.5-4.2,2.2-6s1.3-3.6,2-5.2c0.6-1.6,1.3-3.2,1.9-4.6s1.3-2.9,2-4.3H98c0.7,1.4,1.3,2.8,2,4.3
		c0.6,1.5,1.3,3,1.9,4.6c0.7,1.6,1.3,3.4,2,5.2s1.4,3.8,2.2,6h-4.9V372.1z M95.7,356.6c-0.1,0.3-0.2,0.7-0.4,1.2s-0.4,1.1-0.7,1.7
		c-0.2,0.7-0.5,1.4-0.8,2.2c-0.3,0.8-0.6,1.6-0.9,2.5h5.7c-0.3-0.9-0.6-1.7-0.9-2.5s-0.6-1.5-0.8-2.2c-0.3-0.7-0.5-1.2-0.7-1.7
		S95.9,356.8,95.7,356.6z"/>
	<path class="st9" d="M107.3,364.5c0-1.1,0.2-2.1,0.5-3.1s0.9-1.8,1.6-2.6c0.7-0.7,1.5-1.3,2.5-1.7c1-0.4,2.1-0.6,3.3-0.6
		c0.8,0,1.6,0.1,2.2,0.2c0.7,0.1,1.3,0.4,2,0.6l-0.9,3.5c-0.4-0.2-0.9-0.3-1.3-0.4c-0.5-0.1-1-0.2-1.6-0.2c-1.3,0-2.2,0.4-2.9,1.2
		s-0.9,1.8-0.9,3.1c0,1.4,0.3,2.4,0.9,3.2c0.6,0.8,1.6,1.1,3.1,1.1c0.5,0,1.1,0,1.7-0.1s1.1-0.3,1.7-0.5l0.6,3.5
		c-0.5,0.2-1.1,0.4-1.9,0.6s-1.6,0.2-2.5,0.2c-1.4,0-2.6-0.2-3.6-0.6s-1.8-1-2.5-1.7c-0.6-0.7-1.1-1.6-1.4-2.5
		S107.3,365.6,107.3,364.5z"/>
	<path class="st9" d="M122.3,353l4.3-0.7v4.5h5.2v3.6h-5.2v5.4c0,0.9,0.2,1.6,0.5,2.2c0.3,0.5,1,0.8,1.9,0.8c0.5,0,0.9,0,1.4-0.1
		s0.9-0.2,1.3-0.4l0.6,3.4c-0.5,0.2-1.1,0.4-1.7,0.6c-0.6,0.2-1.4,0.2-2.3,0.2c-1.2,0-2.2-0.2-2.9-0.5c-0.8-0.3-1.4-0.8-1.9-1.3
		c-0.5-0.6-0.8-1.3-1-2.1c-0.2-0.8-0.3-1.7-0.3-2.7V353H122.3z"/>
	<path class="st9" d="M140.1,352.4c0,0.8-0.3,1.4-0.8,1.9s-1.1,0.7-1.8,0.7s-1.3-0.2-1.8-0.7s-0.8-1.1-0.8-1.9s0.3-1.4,0.8-1.9
		s1.1-0.7,1.8-0.7s1.3,0.2,1.8,0.7S140.1,351.6,140.1,352.4z M139.7,372.1h-4.3v-15.3h4.3V372.1z"/>
	<path class="st9" d="M147.4,372.1c-1-1.9-2-4.2-3-6.8s-2-5.4-2.9-8.5h4.6c0.2,0.8,0.4,1.6,0.7,2.5s0.5,1.8,0.8,2.7
		c0.3,0.9,0.6,1.8,0.8,2.6s0.6,1.6,0.8,2.3c0.3-0.7,0.5-1.5,0.8-2.3s0.6-1.7,0.9-2.6c0.3-0.9,0.6-1.8,0.8-2.7
		c0.3-0.9,0.5-1.7,0.7-2.5h4.5c-0.9,3.1-1.9,5.9-2.9,8.5s-2,4.9-3,6.8H147.4z"/>
	<path class="st9" d="M164,352.4c0,0.8-0.3,1.4-0.8,1.9s-1.1,0.7-1.8,0.7s-1.3-0.2-1.8-0.7s-0.8-1.1-0.8-1.9s0.3-1.4,0.8-1.9
		s1.1-0.7,1.8-0.7s1.3,0.2,1.8,0.7S164,351.6,164,352.4z M163.5,372.1h-4.3v-15.3h4.3V372.1z"/>
	<path class="st9" d="M167.5,353l4.3-0.7v4.5h5.2v3.6h-5.2v5.4c0,0.9,0.2,1.6,0.5,2.2c0.3,0.5,1,0.8,1.9,0.8c0.5,0,0.9,0,1.4-0.1
		s0.9-0.2,1.3-0.4l0.6,3.4c-0.5,0.2-1.1,0.4-1.7,0.6c-0.6,0.2-1.4,0.2-2.3,0.2c-1.2,0-2.2-0.2-2.9-0.5c-0.8-0.3-1.4-0.8-1.9-1.3
		c-0.5-0.6-0.8-1.3-1-2.1c-0.2-0.8-0.3-1.7-0.3-2.7L167.5,353L167.5,353z"/>
	<path class="st9" d="M194.3,356.8c-0.9,2.9-1.8,5.7-2.7,8.3c-0.9,2.6-2,5.1-3.1,7.5c-0.4,0.9-0.8,1.6-1.2,2.2s-0.9,1.1-1.3,1.5
		c-0.5,0.4-1,0.7-1.6,0.9c-0.6,0.2-1.3,0.3-2.1,0.3c-0.7,0-1.3-0.1-1.9-0.2c-0.6-0.1-1-0.3-1.4-0.4l0.8-3.5c0.4,0.2,0.8,0.3,1.2,0.3
		s0.7,0.1,1.1,0.1c0.8,0,1.4-0.2,1.8-0.6c0.4-0.4,0.8-1,1.1-1.7c-1-1.9-2-4.1-3-6.5s-1.9-5.1-2.8-8.1h4.6c0.2,0.8,0.4,1.6,0.7,2.5
		s0.5,1.8,0.8,2.7c0.3,0.9,0.6,1.8,0.9,2.6s0.6,1.6,0.9,2.3c0.3-0.7,0.5-1.5,0.8-2.3c0.3-0.9,0.5-1.7,0.8-2.6s0.5-1.8,0.8-2.7
		c0.2-0.9,0.5-1.7,0.7-2.5L194.3,356.8L194.3,356.8z"/>
	<path class="st9" d="M209.9,351.8c3,0,5.3,0.5,6.9,1.6c1.6,1.1,2.4,2.8,2.4,5.2c0,2.4-0.8,4.2-2.4,5.2c-1.6,1.1-3.9,1.6-7,1.6h-1.4
		v6.7h-4.5v-19.8c1-0.2,2-0.3,3.1-0.4S209.1,351.8,209.9,351.8z M210.2,355.6c-0.3,0-0.7,0-1,0s-0.6,0-0.8,0.1v5.8h1.4
		c1.6,0,2.7-0.2,3.5-0.6s1.2-1.2,1.2-2.4c0-0.6-0.1-1-0.3-1.4s-0.5-0.7-0.9-0.9c-0.4-0.2-0.8-0.4-1.4-0.5
		C211.5,355.7,210.9,355.6,210.2,355.6z"/>
	<path class="st9" d="M235.3,371.6c-0.7,0.2-1.7,0.4-2.8,0.6s-2.4,0.3-3.7,0.3s-2.4-0.2-3.2-0.5c-0.9-0.3-1.5-0.8-2-1.5
		c-0.5-0.6-0.9-1.4-1.1-2.2c-0.2-0.9-0.3-1.8-0.3-2.9v-8.5h4.3v8c0,1.4,0.2,2.4,0.6,3s1.1,0.9,2.1,0.9c0.3,0,0.6,0,1,0
		c0.3,0,0.7-0.1,0.9-0.1v-11.8h4.3v14.7H235.3z"/>
	<path class="st9" d="M253.5,364.5c0,1.2-0.2,2.3-0.5,3.3c-0.4,1-0.9,1.8-1.6,2.5c-0.7,0.7-1.5,1.2-2.5,1.6s-2.1,0.6-3.4,0.6
		c-0.5,0-1.1,0-1.6-0.1c-0.6,0-1.1-0.1-1.7-0.2c-0.6-0.1-1.1-0.2-1.6-0.3s-0.9-0.2-1.3-0.3v-21.3l4.3-0.7v7.6c0.5-0.2,1-0.4,1.5-0.5
		s1.1-0.2,1.7-0.2c1.1,0,2,0.2,2.9,0.6c0.8,0.4,1.5,0.9,2.1,1.6s1,1.5,1.3,2.5S253.5,363.3,253.5,364.5z M249.1,364.4
		c0-2.8-1-4.2-3.1-4.2c-0.4,0-0.9,0.1-1.3,0.2s-0.8,0.3-1.1,0.4v7.9c0.2,0,0.5,0.1,0.8,0.1s0.7,0,1.1,0c1.2,0,2.1-0.4,2.7-1.2
		C248.8,366.8,249.1,365.7,249.1,364.4z"/>
</g>
<linearGradient id="SVGID_00000109736912127524265750000014137285837889109144_" gradientUnits="userSpaceOnUse" x1="253.082" y1="589.3944" x2="391.8924" y2="589.3944" gradientTransform="matrix(0.9603 -0.1128 -8.423639e-02 -0.9892 62.064 762.4055)">
	<stop  offset="0" style="stop-color:#28C8AF"/>
	<stop  offset="1" style="stop-color:#0F554B"/>
</linearGradient>
<line style="fill:none;stroke:url(#SVGID_00000109736912127524265750000014137285837889109144_);stroke-width:4.8142;stroke-linecap:round;stroke-linejoin:round;stroke-miterlimit:10;stroke-dasharray:0.1605,12.8379;" x1="255.1" y1="119.3" x2="389.1" y2="166.7"/>
<linearGradient id="SVGID_00000023970217835566054510000000974578483294772401_" gradientUnits="userSpaceOnUse" x1="740.7161" y1="165.1285" x2="879.4814" y2="165.1285" gradientTransform="matrix(0.9242 -0.1303 -7.289945e-02 -0.9829 83.4445 824.2607)">
	<stop  offset="0" style="stop-color:#28C8AF"/>
	<stop  offset="1" style="stop-color:#0F554B"/>
</linearGradient>
<line style="fill:none;stroke:url(#SVGID_00000023970217835566054510000000974578483294772401_);stroke-width:4.8142;stroke-linecap:round;stroke-linejoin:round;stroke-miterlimit:10;stroke-dasharray:0.1605,12.8379;" x1="755.9" y1="534.1" x2="884.3" y2="578.7"/>
<circle class="st7" cx="567" cy="338.9" r="99.2"/>
<linearGradient id="SVGID_00000152983833730791820740000011565618695350346112_" gradientUnits="userSpaceOnUse" x1="499.8248" y1="301.2005" x2="634.1752" y2="435.5507" gradientTransform="matrix(1 0 0 -1 0 707.2756)">
	<stop  offset="0" style="stop-color:#28C8AF"/>
	<stop  offset="1" style="stop-color:#0F554B"/>
</linearGradient>
<circle style="fill:url(#SVGID_00000152983833730791820740000011565618695350346112_);" cx="567" cy="338.9" r="95"/>
<g>
	<g>
		<g>
			<path class="st7" d="M578.4,299.5l-20.1-11.8c-2-1.1-4.9-3.3-5.5-6.7l-1.3,2.4c-4.2,7.4,1,11.4,4,13.1l20.1,11.8
				c2,1.1,4.9,3.3,5.5,6.7l1.3-2.4C586.6,305.2,581.4,301.2,578.4,299.5z"/>
		</g>
		<g>
			<path class="st7" d="M549.9,301.8v4.7c0,4.7,3.8,8.5,8.5,8.5h10.8l-14.5-8.5C553.2,305.6,551.1,304.1,549.9,301.8z"/>
		</g>
		<g>
			<path class="st7" d="M575.5,281h-10.8l14.5,8.5c1.5,0.9,3.7,2.4,4.8,4.7v-4.7C584,284.8,580.1,281,575.5,281z"/>
		</g>
	</g>
</g>
<g>
	<path class="st7" d="M512.3,350.7c0.8,0,1.4-0.1,1.9-0.2s0.9-0.3,1.2-0.5s0.5-0.5,0.6-0.8s0.2-0.6,0.2-1c0-0.8-0.4-1.5-1.1-2
		c-0.7-0.5-2-1.1-3.8-1.7c-0.8-0.3-1.6-0.6-2.4-1s-1.5-0.8-2.1-1.4c-0.6-0.5-1.1-1.2-1.5-2s-0.6-1.7-0.6-2.9s0.2-2.1,0.6-3
		s1-1.7,1.8-2.3c0.8-0.6,1.7-1.1,2.8-1.5c1.1-0.3,2.3-0.5,3.7-0.5c1.6,0,3,0.2,4.2,0.5s2.2,0.7,2.9,1.2l-1.6,4.3
		c-0.7-0.3-1.4-0.7-2.3-0.9c-0.8-0.3-1.8-0.4-3-0.4c-1.3,0-2.2,0.2-2.8,0.5s-0.9,0.9-0.9,1.7c0,0.4,0.1,0.8,0.3,1.1
		c0.2,0.3,0.5,0.6,0.9,0.8c0.4,0.2,0.8,0.5,1.3,0.7s1.1,0.4,1.7,0.6c1.3,0.5,2.4,0.9,3.3,1.4c0.9,0.5,1.7,1,2.3,1.6s1.1,1.3,1.4,2.1
		c0.3,0.8,0.5,1.8,0.5,3c0,2.3-0.8,4-2.4,5.3c-1.6,1.2-4,1.9-7.2,1.9c-1.1,0-2-0.1-2.9-0.2s-1.6-0.3-2.3-0.5
		c-0.7-0.2-1.2-0.4-1.7-0.6s-0.9-0.4-1.2-0.6l1.5-4.3c0.7,0.4,1.6,0.8,2.7,1.1C509.5,350.6,510.8,350.7,512.3,350.7z"/>
	<path class="st7" d="M531,343.1c0.5-0.6,1-1.1,1.6-1.7c0.5-0.6,1.1-1.2,1.6-1.8c0.5-0.6,1-1.2,1.5-1.7s0.8-1,1.2-1.4h6.2
		c-1.2,1.4-2.4,2.8-3.6,4.1s-2.5,2.6-3.9,4c0.7,0.6,1.4,1.4,2.2,2.3c0.7,0.9,1.5,1.8,2.2,2.7c0.7,0.9,1.3,1.9,1.9,2.8
		c0.6,0.9,1.1,1.8,1.5,2.6h-6c-0.4-0.6-0.8-1.3-1.3-2s-1-1.5-1.5-2.2s-1.1-1.4-1.7-2.1c-0.6-0.7-1.2-1.3-1.8-1.7v8.1h-5.2v-26.3
		l5.2-0.8v15.1H531z"/>
	<path class="st7" d="M562,345.7c0,1.4-0.2,2.8-0.6,4c-0.4,1.2-1,2.2-1.8,3.1s-1.7,1.5-2.9,2c-1.1,0.5-2.4,0.7-3.7,0.7
		c-1.4,0-2.6-0.2-3.7-0.7s-2.1-1.1-2.9-2c-0.8-0.9-1.4-1.9-1.9-3.1c-0.4-1.2-0.7-2.5-0.7-4c0-1.4,0.2-2.8,0.7-4s1.1-2.2,1.9-3
		s1.8-1.5,2.9-2c1.1-0.5,2.3-0.7,3.6-0.7s2.5,0.2,3.7,0.7c1.1,0.5,2.1,1.1,2.9,2c0.8,0.8,1.4,1.9,1.9,3
		C561.7,342.9,562,344.2,562,345.7z M556.6,345.7c0-1.6-0.3-2.9-1-3.8c-0.6-0.9-1.6-1.4-2.7-1.4s-2.1,0.5-2.8,1.4s-1,2.2-1,3.8
		c0,1.6,0.3,2.9,1,3.8s1.6,1.4,2.8,1.4s2.1-0.5,2.7-1.4C556.3,348.5,556.6,347.3,556.6,345.7z"/>
	<path class="st7" d="M581,330.6h5.5v24.3H581v-10.3h-9.2v10.3h-5.5v-24.3h5.5v9.3h9.2V330.6z"/>
	<path class="st7" d="M607.4,354.3c-0.9,0.3-2,0.5-3.4,0.7s-2.9,0.3-4.4,0.3c-1.6,0-2.9-0.2-3.9-0.6s-1.9-1-2.5-1.8s-1-1.7-1.3-2.7
		s-0.4-2.2-0.4-3.5v-10.3h5.2v9.6c0,1.7,0.2,2.9,0.7,3.6c0.4,0.7,1.3,1.1,2.5,1.1c0.4,0,0.8,0,1.2-0.1c0.4,0,0.8-0.1,1.1-0.1v-14.2
		h5.2L607.4,354.3L607.4,354.3z"/>
	<path class="st7" d="M629.4,345.7c0,1.5-0.2,2.8-0.6,4c-0.4,1.2-1.1,2.2-1.9,3s-1.8,1.5-3,1.9c-1.2,0.5-2.5,0.7-4.1,0.7
		c-0.6,0-1.3,0-2-0.1s-1.4-0.1-2-0.2c-0.7-0.1-1.3-0.2-1.9-0.3c-0.6-0.1-1.1-0.3-1.6-0.4v-25.7l5.2-0.8v9.2c0.6-0.3,1.2-0.5,1.8-0.6
		s1.3-0.2,2-0.2c1.3,0,2.5,0.2,3.5,0.7s1.8,1.1,2.5,1.9s1.2,1.8,1.5,3C629.2,342.9,629.4,344.2,629.4,345.7z M624.1,345.6
		c0-3.4-1.2-5-3.7-5c-0.5,0-1.1,0.1-1.6,0.2s-1,0.3-1.3,0.5v9.5c0.3,0,0.6,0.1,1,0.1s0.8,0.1,1.3,0.1c1.4,0,2.5-0.5,3.2-1.5
		C623.7,348.5,624.1,347.2,624.1,345.6z"/>
	<path class="st7" d="M526.1,384.9c-0.8-1.7-1.6-3.4-2.4-5.3c-0.8-1.8-1.5-3.6-2.2-5.4s-1.3-3.5-1.9-5.1c-0.6-1.6-1.1-3.1-1.5-4.4h5
		c0.4,1.2,0.8,2.4,1.3,3.8s0.9,2.7,1.4,4s0.9,2.6,1.4,3.8c0.4,1.2,0.9,2.3,1.3,3.2c0.4-0.9,0.8-1.9,1.2-3.2c0.4-1.2,0.9-2.5,1.4-3.8
		s0.9-2.7,1.4-4s0.9-2.6,1.3-3.8h4.8c-0.5,1.3-1,2.7-1.6,4.4c-0.6,1.6-1.2,3.3-1.9,5.1c-0.7,1.8-1.4,3.6-2.2,5.4s-1.6,3.6-2.4,5.2
		L526.1,384.9L526.1,384.9z"/>
	<path class="st7" d="M553.4,377.2c0,1.2-0.2,2.3-0.5,3.3s-0.9,1.8-1.5,2.6c-0.7,0.7-1.4,1.3-2.4,1.6s-1.9,0.6-3.1,0.6
		c-1.1,0-2.1-0.2-3.1-0.6c-0.9-0.4-1.7-0.9-2.4-1.6s-1.2-1.6-1.5-2.6c-0.4-1-0.6-2.1-0.6-3.3c0-1.2,0.2-2.3,0.6-3.3
		c0.4-1,0.9-1.8,1.6-2.5s1.5-1.2,2.4-1.6s1.9-0.6,3-0.6s2.1,0.2,3,0.6s1.7,0.9,2.4,1.6s1.2,1.5,1.5,2.5
		C553.2,375,553.4,376,553.4,377.2z M549,377.2c0-1.3-0.3-2.4-0.8-3.1c-0.5-0.8-1.3-1.1-2.3-1.1s-1.8,0.4-2.3,1.1
		c-0.5,0.8-0.8,1.8-0.8,3.1s0.3,2.4,0.8,3.2c0.5,0.8,1.3,1.2,2.3,1.2s1.7-0.4,2.3-1.2S549,378.6,549,377.2z"/>
	<path class="st7" d="M556,377.3c0-1.1,0.2-2.1,0.5-3.1s0.9-1.8,1.6-2.6c0.7-0.7,1.5-1.3,2.5-1.7c1-0.4,2.1-0.6,3.3-0.6
		c0.8,0,1.6,0.1,2.2,0.2c0.7,0.1,1.3,0.4,2,0.6l-0.9,3.5c-0.4-0.2-0.9-0.3-1.3-0.4c-0.5-0.1-1-0.2-1.6-0.2c-1.3,0-2.2,0.4-2.9,1.2
		s-0.9,1.8-0.9,3.1c0,1.4,0.3,2.4,0.9,3.2c0.6,0.8,1.6,1.1,3.1,1.1c0.5,0,1.1,0,1.7-0.1c0.6-0.1,1.1-0.3,1.7-0.5l0.6,3.5
		c-0.5,0.2-1.1,0.4-1.9,0.6c-0.8,0.2-1.6,0.2-2.5,0.2c-1.4,0-2.6-0.2-3.6-0.6s-1.8-1-2.5-1.7c-0.6-0.7-1.1-1.6-1.4-2.5
		S556,378.4,556,377.3z"/>
	<path class="st7" d="M576,369.2c1.3,0,2.3,0.1,3.2,0.4s1.5,0.7,2,1.2s0.9,1.2,1.1,2c0.2,0.8,0.3,1.6,0.3,2.6v9
		c-0.6,0.1-1.5,0.3-2.6,0.5s-2.4,0.3-4,0.3c-1,0-1.9-0.1-2.7-0.3c-0.8-0.2-1.5-0.5-2.1-0.9s-1-0.9-1.3-1.6c-0.3-0.6-0.5-1.4-0.5-2.3
		s0.2-1.6,0.5-2.3c0.4-0.6,0.8-1.1,1.4-1.5c0.6-0.4,1.3-0.6,2.1-0.8c0.8-0.2,1.6-0.2,2.4-0.2c0.6,0,1.1,0,1.5,0.1
		c0.4,0,0.8,0.1,1.1,0.2v-0.4c0-0.7-0.2-1.3-0.7-1.8c-0.4-0.4-1.2-0.7-2.3-0.7c-0.7,0-1.5,0.1-2.2,0.2s-1.3,0.3-1.9,0.4l-0.6-3.5
		c0.3-0.1,0.6-0.2,0.9-0.2s0.8-0.2,1.2-0.2c0.4-0.1,0.9-0.1,1.4-0.2C575,369.3,575.5,369.2,576,369.2z M576.4,381.9
		c0.4,0,0.8,0,1.2,0s0.7,0,0.9-0.1v-3.3c-0.2,0-0.4-0.1-0.8-0.1c-0.3,0-0.7-0.1-1-0.1c-0.4,0-0.8,0-1.1,0.1c-0.4,0-0.7,0.1-0.9,0.3
		c-0.3,0.1-0.5,0.3-0.6,0.6c-0.2,0.2-0.2,0.5-0.2,0.9c0,0.7,0.2,1.1,0.7,1.4C574.9,381.8,575.6,381.9,576.4,381.9z"/>
	<path class="st7" d="M600.8,377.3c0,1.2-0.2,2.3-0.5,3.3c-0.4,1-0.9,1.8-1.6,2.5c-0.7,0.7-1.5,1.2-2.5,1.6s-2.1,0.6-3.4,0.6
		c-0.5,0-1.1,0-1.6-0.1c-0.6,0-1.1-0.1-1.7-0.2c-0.6-0.1-1.1-0.2-1.6-0.3c-0.5-0.1-0.9-0.2-1.3-0.3v-21.3l4.3-0.7v7.6
		c0.5-0.2,1-0.4,1.5-0.5s1.1-0.2,1.7-0.2c1.1,0,2,0.2,2.9,0.6c0.8,0.4,1.5,0.9,2.1,1.6s1,1.5,1.3,2.5
		C600.6,375,600.8,376.1,600.8,377.3z M596.3,377.2c0-2.8-1-4.2-3.1-4.2c-0.4,0-0.9,0.1-1.3,0.2c-0.4,0.1-0.8,0.3-1.1,0.4v7.9
		c0.2,0,0.5,0.1,0.8,0.1s0.7,0,1.1,0c1.2,0,2.1-0.4,2.7-1.2C596,379.6,596.3,378.5,596.3,377.2z"/>
	<path class="st7" d="M608.5,381.8c0.8,0,1.4-0.1,1.7-0.2c0.3-0.2,0.5-0.5,0.5-0.9c0-0.3-0.2-0.7-0.6-0.9c-0.4-0.3-1.1-0.6-1.9-0.9
		c-0.7-0.3-1.3-0.5-1.8-0.8c-0.6-0.3-1-0.6-1.4-1s-0.7-0.8-0.9-1.3s-0.3-1.2-0.3-1.9c0-1.4,0.5-2.6,1.6-3.4s2.5-1.2,4.4-1.2
		c0.9,0,1.8,0.1,2.7,0.2c0.8,0.2,1.5,0.3,2,0.5l-0.8,3.4c-0.5-0.2-1-0.3-1.6-0.5c-0.6-0.1-1.3-0.2-2-0.2c-1.4,0-2,0.4-2,1.1
		c0,0.2,0,0.3,0.1,0.5c0.1,0.1,0.2,0.3,0.3,0.4c0.2,0.1,0.4,0.3,0.7,0.4s0.7,0.3,1.1,0.5c0.9,0.4,1.7,0.7,2.3,1s1.1,0.7,1.5,1.1
		s0.6,0.8,0.8,1.3c0.1,0.5,0.2,1,0.2,1.7c0,1.5-0.6,2.6-1.7,3.4c-1.1,0.8-2.7,1.2-4.8,1.2c-1.4,0-2.5-0.1-3.4-0.3
		c-0.9-0.2-1.5-0.4-1.9-0.6l0.7-3.5c0.7,0.3,1.5,0.5,2.3,0.7C606.9,381.7,607.7,381.8,608.5,381.8z"/>
</g>
<linearGradient id="SVGID_00000075130337113177818890000011758848168259281280_" gradientUnits="userSpaceOnUse" x1="82.6929" y1="541.3528" x2="257.5858" y2="541.3528">
	<stop  offset="0" style="stop-color:#28C8AF"/>
	<stop  offset="1" style="stop-color:#0F554B"/>
</linearGradient>
<path style="fill:#EBEBEB;stroke:url(#SVGID_00000075130337113177818890000011758848168259281280_);stroke-width:4.8142;stroke-linecap:round;stroke-linejoin:round;stroke-miterlimit:10;stroke-dasharray:0.1605,12.8379;" d="
	M255.2,480.1v122.4c0,22.5-18.4,40.8-40.8,40.8h-88.4c-22.5,0-40.8-18.4-40.8-40.8V480.1c0-22.5,18.4-40.8,40.8-40.8h88.4
	C236.8,439.3,255.2,457.7,255.2,480.1z"/>
<g>
	<path class="st9" d="M140.7,502.5c0-1.4,0.2-2.5,0.6-3.6c0.4-1,1-1.9,1.6-2.5s1.5-1.2,2.3-1.5c0.9-0.3,1.8-0.5,2.7-0.5
		c2.2,0,3.9,0.7,5.1,2c1.3,1.3,1.9,3.3,1.9,5.8c0,0.3,0,0.5,0,0.8c0,0.3,0,0.6-0.1,0.8h-9.8c0.1,0.9,0.5,1.6,1.2,2.1
		c0.7,0.5,1.7,0.8,3,0.8c0.8,0,1.6-0.1,2.3-0.2c0.8-0.1,1.4-0.3,1.9-0.5l0.6,3.5c-0.2,0.1-0.5,0.2-0.9,0.3c-0.4,0.1-0.8,0.2-1.3,0.3
		c-0.5,0.1-1,0.2-1.5,0.2c-0.5,0.1-1.1,0.1-1.6,0.1c-1.4,0-2.6-0.2-3.6-0.6c-1-0.4-1.9-1-2.5-1.7s-1.2-1.5-1.5-2.5
		C140.9,504.7,140.7,503.6,140.7,502.5z M150.9,500.9c0-0.4-0.1-0.7-0.2-1.1c-0.1-0.3-0.3-0.7-0.5-0.9c-0.2-0.3-0.5-0.5-0.8-0.7
		c-0.3-0.2-0.8-0.3-1.3-0.3c-0.5,0-0.9,0.1-1.2,0.2c-0.3,0.2-0.6,0.4-0.9,0.7c-0.2,0.3-0.4,0.6-0.5,0.9c-0.1,0.4-0.2,0.7-0.3,1.1
		H150.9z"/>
	<path class="st9" d="M171.9,509.5c-0.4,0.1-0.8,0.2-1.3,0.3c-0.5,0.1-1,0.2-1.6,0.3c-0.6,0.1-1.1,0.1-1.7,0.2
		c-0.6,0-1.1,0.1-1.6,0.1c-1.3,0-2.4-0.2-3.4-0.6c-1-0.4-1.8-0.9-2.5-1.6c-0.7-0.7-1.2-1.5-1.6-2.5c-0.4-1-0.5-2.1-0.5-3.3
		c0-1.2,0.2-2.4,0.5-3.3c0.3-1,0.8-1.8,1.3-2.5c0.6-0.7,1.3-1.2,2.1-1.6c0.8-0.4,1.8-0.6,2.9-0.6c0.6,0,1.1,0.1,1.6,0.2
		c0.5,0.1,1,0.3,1.4,0.5v-6.9l4.3-0.7V509.5z M162.1,502.3c0,1.3,0.3,2.4,0.9,3.2c0.6,0.8,1.5,1.2,2.7,1.2c0.4,0,0.7,0,1.1,0
		c0.3,0,0.6-0.1,0.8-0.1v-7.9c-0.3-0.2-0.6-0.3-1.1-0.4s-0.9-0.2-1.3-0.2C163.1,498.1,162.1,499.5,162.1,502.3z"/>
	<path class="st9" d="M188.9,509.5c-0.7,0.2-1.7,0.4-2.8,0.6s-2.4,0.3-3.7,0.3c-1.3,0-2.4-0.2-3.2-0.5c-0.9-0.3-1.5-0.8-2-1.5
		c-0.5-0.6-0.9-1.4-1.1-2.2c-0.2-0.9-0.3-1.8-0.3-2.9v-8.5h4.3v8c0,1.4,0.2,2.4,0.6,3s1.1,0.9,2.1,0.9c0.3,0,0.6,0,1,0
		c0.3,0,0.7-0.1,0.9-0.1v-11.8h4.3V509.5z"/>
	<path class="st9" d="M191.7,499.4h8.4v3.9h-8.4V499.4z"/>
	<path class="st9" d="M125.5,536.9c0.8,0,1.4-0.1,1.7-0.2c0.3-0.2,0.5-0.5,0.5-0.9c0-0.3-0.2-0.7-0.6-0.9s-1.1-0.6-1.9-0.9
		c-0.7-0.3-1.3-0.5-1.8-0.8c-0.6-0.3-1-0.6-1.4-1s-0.7-0.8-0.9-1.3c-0.2-0.5-0.3-1.2-0.3-1.9c0-1.4,0.5-2.6,1.6-3.4
		c1.1-0.8,2.5-1.2,4.4-1.2c0.9,0,1.8,0.1,2.7,0.2c0.9,0.2,1.5,0.3,2,0.5l-0.8,3.4c-0.5-0.2-1-0.3-1.6-0.5c-0.6-0.1-1.3-0.2-2-0.2
		c-1.4,0-2,0.4-2,1.1c0,0.2,0,0.3,0.1,0.5c0.1,0.1,0.2,0.3,0.3,0.4c0.2,0.1,0.4,0.3,0.7,0.4c0.3,0.1,0.7,0.3,1.1,0.5
		c0.9,0.4,1.7,0.7,2.3,1c0.6,0.3,1.1,0.7,1.5,1.1c0.4,0.4,0.6,0.8,0.8,1.3c0.1,0.5,0.2,1,0.2,1.7c0,1.5-0.6,2.6-1.7,3.4
		c-1.1,0.8-2.7,1.2-4.8,1.2c-1.4,0-2.5-0.1-3.4-0.3c-0.9-0.2-1.5-0.4-1.9-0.6l0.7-3.5c0.7,0.3,1.5,0.5,2.3,0.7
		C124,536.8,124.7,536.9,125.5,536.9z"/>
	<path class="st9" d="M135.2,540v-21.8l4.3-0.7v7.3c0.3-0.1,0.7-0.2,1.1-0.3s0.9-0.1,1.3-0.1c1.2,0,2.3,0.2,3.1,0.5
		c0.8,0.3,1.5,0.8,2,1.4c0.5,0.6,0.8,1.4,1,2.2s0.3,1.8,0.3,2.8v8.6H144v-8.1c0-1.4-0.2-2.4-0.5-3c-0.4-0.6-1-0.9-2-0.9
		c-0.4,0-0.7,0-1.1,0.1c-0.3,0.1-0.6,0.1-0.9,0.2V540H135.2z"/>
	<path class="st9" d="M157.7,524.4c1.3,0,2.3,0.1,3.2,0.4c0.9,0.3,1.5,0.7,2,1.2c0.5,0.5,0.9,1.2,1.1,2c0.2,0.8,0.3,1.6,0.3,2.6v9
		c-0.6,0.1-1.5,0.3-2.6,0.5c-1.1,0.2-2.4,0.3-4,0.3c-1,0-1.9-0.1-2.7-0.3c-0.8-0.2-1.5-0.5-2.1-0.9c-0.6-0.4-1-0.9-1.3-1.6
		c-0.3-0.6-0.5-1.4-0.5-2.3c0-0.9,0.2-1.6,0.5-2.3c0.4-0.6,0.8-1.1,1.4-1.5c0.6-0.4,1.3-0.6,2.1-0.8c0.8-0.2,1.6-0.2,2.4-0.2
		c0.6,0,1.1,0,1.5,0.1c0.4,0,0.8,0.1,1.1,0.2v-0.4c0-0.7-0.2-1.3-0.7-1.8c-0.4-0.4-1.2-0.7-2.3-0.7c-0.7,0-1.5,0.1-2.2,0.2
		s-1.3,0.3-1.9,0.4l-0.6-3.5c0.3-0.1,0.6-0.2,0.9-0.2s0.8-0.2,1.2-0.2c0.4-0.1,0.9-0.1,1.4-0.2C156.7,524.4,157.2,524.4,157.7,524.4
		z M158.1,537c0.4,0,0.8,0,1.2,0c0.4,0,0.7,0,0.9-0.1v-3.3c-0.2,0-0.4-0.1-0.8-0.1c-0.3,0-0.7-0.1-1-0.1c-0.4,0-0.8,0-1.1,0.1
		c-0.4,0-0.7,0.1-0.9,0.3c-0.3,0.1-0.5,0.3-0.6,0.6c-0.2,0.2-0.2,0.5-0.2,0.9c0,0.7,0.2,1.1,0.7,1.4
		C156.7,536.9,157.3,537,158.1,537z"/>
	<path class="st9" d="M177.5,528.6c-0.4-0.1-0.8-0.2-1.4-0.3s-1.1-0.2-1.7-0.2c-0.3,0-0.6,0-1,0.1c-0.4,0-0.7,0.1-0.9,0.2V540h-4.3
		v-14.4c0.8-0.3,1.7-0.5,2.7-0.8c1.1-0.2,2.2-0.4,3.5-0.4c0.2,0,0.5,0,0.8,0c0.3,0,0.7,0.1,1,0.1c0.3,0,0.7,0.1,1,0.2
		c0.3,0.1,0.6,0.1,0.8,0.2L177.5,528.6z"/>
	<path class="st9" d="M185.3,520.4c0,0.8-0.3,1.4-0.8,1.9s-1.1,0.7-1.8,0.7c-0.7,0-1.3-0.2-1.8-0.7s-0.8-1.1-0.8-1.9
		c0-0.8,0.3-1.4,0.8-1.9s1.1-0.7,1.8-0.7c0.7,0,1.3,0.2,1.8,0.7S185.3,519.6,185.3,520.4z M184.9,540h-4.3v-15.3h4.3V540z"/>
	<path class="st9" d="M188.9,525.3c0.7-0.2,1.7-0.4,2.8-0.6s2.4-0.3,3.7-0.3c1.3,0,2.4,0.2,3.2,0.5c0.9,0.3,1.5,0.8,2,1.4
		c0.5,0.6,0.9,1.4,1.1,2.2c0.2,0.9,0.3,1.8,0.3,2.8v8.6h-4.3v-8.1c0-1.4-0.2-2.4-0.6-3c-0.4-0.6-1.1-0.9-2.1-0.9c-0.3,0-0.6,0-1,0
		c-0.3,0-0.7,0.1-0.9,0.1V540h-4.3V525.3z"/>
	<path class="st9" d="M219.2,538.1c0,2.5-0.6,4.3-1.9,5.6c-1.3,1.2-3.2,1.8-5.9,1.8c-0.9,0-1.9-0.1-2.8-0.2
		c-0.9-0.2-1.8-0.4-2.6-0.7l0.8-3.6c0.7,0.3,1.4,0.5,2.1,0.6c0.7,0.2,1.6,0.2,2.5,0.2c1.2,0,2.1-0.3,2.6-0.8
		c0.5-0.5,0.8-1.2,0.8-2.1v-0.6c-0.5,0.2-0.9,0.4-1.4,0.5c-0.5,0.1-1,0.2-1.6,0.2c-2.1,0-3.7-0.6-4.8-1.9s-1.7-3-1.7-5.2
		c0-1.1,0.2-2.1,0.5-3.1c0.3-0.9,0.9-1.7,1.5-2.4s1.5-1.2,2.5-1.5s2.1-0.5,3.3-0.5c0.5,0,1.1,0,1.6,0.1s1.1,0.1,1.6,0.2
		c0.5,0.1,1.1,0.2,1.6,0.3s0.9,0.2,1.3,0.3V538.1z M209.7,531.9c0,2.4,1,3.6,2.9,3.6c0.4,0,0.9-0.1,1.2-0.2c0.4-0.1,0.7-0.3,1-0.4
		V528c-0.2,0-0.5-0.1-0.8-0.1c-0.3,0-0.6,0-1,0c-1.1,0-2,0.4-2.6,1.1C210,529.8,209.7,530.7,209.7,531.9z"/>
	<path class="st9" d="M165.7,597.7c0,0.9-0.3,1.5-0.8,2s-1.2,0.7-1.9,0.7c-0.7,0-1.3-0.2-1.9-0.7c-0.6-0.5-0.8-1.1-0.8-2
		s0.3-1.5,0.8-2c0.6-0.5,1.2-0.7,1.9-0.7c0.7,0,1.3,0.2,1.9,0.7S165.7,596.9,165.7,597.7z"/>
	<path class="st9" d="M172.8,597.7c0,0.9-0.3,1.5-0.8,2s-1.2,0.7-1.9,0.7c-0.7,0-1.3-0.2-1.9-0.7c-0.6-0.5-0.8-1.1-0.8-2
		s0.3-1.5,0.8-2c0.6-0.5,1.2-0.7,1.9-0.7c0.7,0,1.3,0.2,1.9,0.7S172.8,596.9,172.8,597.7z"/>
	<path class="st9" d="M180,597.7c0,0.9-0.3,1.5-0.8,2s-1.2,0.7-1.9,0.7c-0.7,0-1.3-0.2-1.9-0.7c-0.6-0.5-0.8-1.1-0.8-2
		s0.3-1.5,0.8-2c0.6-0.5,1.2-0.7,1.9-0.7c0.7,0,1.3,0.2,1.9,0.7S180,596.9,180,597.7z"/>
</g>
<linearGradient id="SVGID_00000002346456398313765370000008824942422414348699_" gradientUnits="userSpaceOnUse" x1="321.8467" y1="482.3822" x2="489.5408" y2="482.3822" gradientTransform="matrix(1.0658 -1.1231 0.8645 0.5602 -480.3469 669.6588)">
	<stop  offset="0" style="stop-color:#28C8AF"/>
	<stop  offset="1" style="stop-color:#0F554B"/>
</linearGradient>
<line style="fill:none;stroke:url(#SVGID_00000002346456398313765370000008824942422414348699_);stroke-width:4.8142;stroke-linecap:round;stroke-linejoin:round;stroke-miterlimit:10;stroke-dasharray:0.1605,12.8379;" x1="255.2" y1="558.2" x2="482.9" y2="410.3"/>
</svg>
