<?xml version="1.0" encoding="utf-8"?>
<!-- Generator: Adobe Illustrator 27.0.0, SVG Export Plug-In . SVG Version: 6.00 Build 0)  -->
<svg version="1.1" id="Ebene_1" xmlns="http://www.w3.org/2000/svg" xmlns:xlink="http://www.w3.org/1999/xlink" x="0px" y="0px"
	 viewBox="0 0 226.8 334.5" style="enable-background:new 0 0 226.8 334.5;" xml:space="preserve">
<style type="text/css">
	.st0{fill:#0F554B;}
	.st1{fill:#14968C;}
</style>
<g>
	<g>
		<path class="st0" d="M29.2,310.6c-1.2-1.2-2.7-2.2-4.4-3c-1.7-0.8-3.7-1.6-5.8-2.4c-1.2-0.4-2.3-0.9-3.4-1.4c-1-0.5-1.9-1-2.6-1.5
			c-0.7-0.5-1.3-1.1-1.6-1.8c-0.4-0.6-0.6-1.4-0.6-2.3c0-1.5,0.5-2.6,1.7-3.5c1.2-0.9,2.8-1.3,4.9-1.3c1.8,0,3.7,0.2,5.4,0.6
			c1.7,0.4,3.3,1.1,4.8,1.9c0.1,0.1,0.3,0.1,0.5,0c0.2-0.1,0.3-0.2,0.3-0.3l2.6-6.8c0.1-0.3,0-0.5-0.2-0.7c-1.3-0.8-3.1-1.5-5.4-2.1
			c-2.3-0.7-4.9-1-7.8-1c-5.1,0-9.1,1.2-12.1,3.7c-3,2.5-4.5,5.9-4.5,10.2c0,2.1,0.4,3.9,1.1,5.3c0.7,1.5,1.7,2.8,2.8,3.8
			c1.2,1,2.5,1.9,4,2.6c1.5,0.7,3.1,1.3,4.7,1.9c1.6,0.5,3,1.1,4.2,1.6c1.2,0.5,2.2,1.1,3,1.7c0.8,0.6,1.4,1.3,1.8,2
			c0.4,0.7,0.6,1.6,0.6,2.6c0,1.7-0.6,2.9-1.8,3.9c-1.3,0.9-3.4,1.4-6.2,1.4c-2.8,0-5.2-0.3-7.2-1c-2-0.6-3.6-1.3-4.7-1.9
			c-0.1-0.1-0.3-0.1-0.5,0c-0.2,0.1-0.3,0.2-0.3,0.3L0,329.9c-0.1,0.2,0,0.5,0.2,0.7c0.6,0.3,1.3,0.7,2.2,1.1c0.9,0.4,2,0.8,3.2,1.1
			c1.2,0.4,2.7,0.7,4.2,0.9c1.6,0.2,3.4,0.4,5.3,0.4c5.7,0,10.2-1.2,13.2-3.5c3.1-2.4,4.6-5.8,4.6-10.1c0-2.2-0.3-4.2-1-5.7
			C31.4,313.1,30.5,311.7,29.2,310.6z"/>
		<path class="st0" d="M67.5,327.3c-1.2-1.8-2.5-3.6-3.9-5.3c-1.4-1.8-2.8-3.5-4.3-5c-1.3-1.4-2.6-2.6-3.8-3.7
			c2.3-2.4,4.7-4.8,7-7.3c2.5-2.7,4.8-5.3,7-7.7c0.1-0.2,0.2-0.4,0.1-0.6c-0.1-0.2-0.3-0.3-0.5-0.3h-9.5c-0.2,0-0.3,0.1-0.4,0.2
			c-0.7,0.8-1.6,1.8-2.5,2.9c-1,1.1-2,2.3-3.1,3.5c-1.1,1.2-2.2,2.4-3.4,3.6c-0.8,0.8-1.6,1.6-2.3,2.4v-28.9c0-0.2-0.1-0.3-0.2-0.4
			c-0.1-0.1-0.3-0.2-0.4-0.1l-8,1.3c-0.3,0-0.5,0.3-0.5,0.5v50c0,0.3,0.2,0.6,0.6,0.6h8c0.3,0,0.6-0.2,0.6-0.6v-14.8
			c0.9,0.7,1.8,1.5,2.7,2.5c1.2,1.2,2.4,2.6,3.6,4c1.2,1.4,2.3,2.9,3.3,4.3c1,1.5,1.9,2.9,2.7,4.3c0.1,0.2,0.3,0.3,0.5,0.3h9.3
			c0.2,0,0.4-0.1,0.5-0.3c0.1-0.2,0.1-0.4,0-0.5C69.7,330.7,68.7,329.1,67.5,327.3z"/>
		<path class="st0" d="M101.3,301.6c-1.5-1.6-3.3-2.9-5.5-3.8c-2.1-0.9-4.4-1.3-6.9-1.3c-2.5,0-4.8,0.4-6.9,1.3
			c-2.1,0.9-3.9,2.2-5.5,3.8c-1.5,1.6-2.7,3.6-3.6,5.9c-0.8,2.3-1.3,4.8-1.3,7.6c0,2.8,0.4,5.4,1.3,7.7c0.8,2.3,2,4.3,3.5,5.9
			c1.5,1.6,3.3,2.9,5.4,3.8c2.1,0.9,4.4,1.4,7,1.4c2.5,0,4.9-0.5,7-1.4c2.1-0.9,3.9-2.2,5.5-3.8c1.5-1.6,2.7-3.6,3.5-5.9
			c0.8-2.3,1.2-4.9,1.2-7.7c0-2.8-0.4-5.4-1.3-7.6C103.9,305.2,102.7,303.2,101.3,301.6z M96.7,315.2c0,3.4-0.7,6-2.1,7.9
			c-1.4,1.9-3.3,2.8-5.7,2.8c-2.5,0-4.4-0.9-5.7-2.8c-1.4-1.9-2.1-4.6-2.1-7.9c0-3.3,0.7-5.9,2.1-7.8c1.4-1.9,3.3-2.8,5.7-2.8
			c2.5,0,4.4,0.9,5.7,2.8C96,309.2,96.7,311.9,96.7,315.2z"/>
		<path class="st0" d="M150.8,286.1h-8.3c-0.3,0-0.6,0.2-0.6,0.6v17.8H123v-17.8c0-0.3-0.2-0.6-0.6-0.6h-8.3c-0.3,0-0.6,0.2-0.6,0.6
			v45.9c0,0.3,0.2,0.6,0.6,0.6h8.3c0.3,0,0.6-0.2,0.6-0.6v-19.8h18.8v19.8c0,0.3,0.2,0.6,0.6,0.6h8.3c0.3,0,0.6-0.2,0.6-0.6v-45.9
			C151.3,286.3,151.1,286.1,150.8,286.1z"/>
		<path class="st0" d="M187.2,297.3h-8c-0.3,0-0.6,0.2-0.6,0.6v27.6c-0.5,0.1-1.1,0.2-1.9,0.2c-1.1,0.1-2.1,0.1-3,0.1
			c-2.5,0-4.2-0.7-5.2-2.1c-1-1.5-1.5-4.1-1.5-7.6v-18.1c0-0.3-0.2-0.6-0.6-0.6h-8c-0.3,0-0.6,0.2-0.6,0.6v19.4
			c0,2.4,0.2,4.6,0.7,6.6c0.5,2,1.4,3.8,2.5,5.3c1.2,1.5,2.8,2.6,4.7,3.5c1.9,0.8,4.4,1.2,7.2,1.2c3,0,5.7-0.2,8.2-0.6
			c2.5-0.4,4.5-0.8,6.1-1.2c0.2-0.1,0.4-0.3,0.4-0.5v-33.6C187.8,297.6,187.6,297.3,187.2,297.3z"/>
		<path class="st0" d="M225.6,307.7c-0.7-2.3-1.7-4.3-3-5.9c-1.3-1.7-3-2.9-5-3.8c-2-0.9-4.2-1.3-6.7-1.3c-1.7,0-3.2,0.2-4.6,0.6
			c-1,0.3-1.9,0.6-2.7,1v-17.1c0-0.2-0.1-0.3-0.2-0.4c-0.1-0.1-0.3-0.2-0.4-0.1l-8,1.3c-0.3,0-0.5,0.3-0.5,0.5v49
			c0,0.2,0.2,0.5,0.4,0.5c1.6,0.5,3.6,0.9,6.1,1.3c2.4,0.4,5,0.6,7.7,0.6c2.8,0,5.3-0.4,7.5-1.3c2.2-0.9,4.2-2.1,5.7-3.8
			c1.6-1.6,2.8-3.6,3.6-5.9c0.8-2.3,1.3-4.9,1.3-7.7C226.7,312.5,226.3,310,225.6,307.7z M217.4,315.1c0,3.4-0.8,6.1-2.4,8
			c-1.6,1.9-3.7,2.8-6.5,2.8c-1.3,0-2.3-0.1-3.2-0.2c-0.7-0.1-1.3-0.2-1.7-0.3v-19.2c0.6-0.4,1.5-0.8,2.4-1.1
			c1.1-0.4,2.3-0.6,3.6-0.6c2.7,0,4.7,0.9,5.9,2.7C216.7,309.2,217.4,311.8,217.4,315.1z"/>
	</g>
	<g>
		<g>
			<g>
				<path class="st1" d="M189.7,123.8L56,45.3C43,37.6,23.3,23.5,19.6,0.4l-8.9,15.7c-28.1,49.4,6.8,76,26.6,87.5l133.7,78.6
					c13,7.6,32.7,21.8,36.4,44.8l8.9-15.7C244.3,162,209.4,135.4,189.7,123.8z"/>
			</g>
			<g>
				<path class="st1" d="M0.1,139.2v31.2c0,31.2,25.5,56.7,56.7,56.7h71.9l-96.5-56.7C21.9,164.4,7.6,154.4,0.1,139.2z"/>
			</g>
			<g>
				<path class="st1" d="M170.1,0.4H98.2l96.5,56.7c10.2,6,24.5,16,32,31.1V57.1C226.8,25.9,201.3,0.4,170.1,0.4z"/>
			</g>
		</g>
	</g>
</g>
</svg>
