<?xml version="1.0" encoding="utf-8"?>
<!-- Generator: Adobe Illustrator 27.0.0, SVG Export Plug-In . SVG Version: 6.00 Build 0)  -->
<svg version="1.1" id="Ebene_1" xmlns="http://www.w3.org/2000/svg" xmlns:xlink="http://www.w3.org/1999/xlink" x="0px" y="0px"
	 viewBox="0 0 850.4 272.1" style="enable-background:new 0 0 850.4 272.1;" xml:space="preserve">
<style type="text/css">
	.st0{fill:url(#SVGID_1_);}
	.st1{fill:url(#SVGID_00000081638396888850445730000007386161916021221797_);}
	.st2{fill:url(#SVGID_00000049223900714408472860000001539354034561016452_);}
	.st3{fill:url(#SVGID_00000139978348714822494810000005449686703621145504_);}
	.st4{fill:url(#SVGID_00000040549242770292127770000012693731036299456164_);}
	.st5{fill:url(#SVGID_00000086691355094044513520000017016243188313324168_);}
</style>
<g>
	<g>
		<g>
			<linearGradient id="SVGID_1_" gradientUnits="userSpaceOnUse" x1="382.7665" y1="-310.2536" x2="851.9928" y2="37.0117">
				<stop  offset="0" style="stop-color:#28C8AF"/>
				<stop  offset="1" style="stop-color:#0F554B"/>
			</linearGradient>
			<path class="st0" d="M806.6,5.5c-0.1,0-0.2,0-0.2,0c-1.2-0.1-2-1.2-1.9-2.3c0.1-1.2,1.2-2,2.3-1.9c1.2,0.1,2,1.1,1.9,2.3l0,0.1
				C808.6,4.7,807.6,5.5,806.6,5.5z"/>
		</g>
		<g>
			
				<linearGradient id="SVGID_00000058551236105255476090000007287528685640691081_" gradientUnits="userSpaceOnUse" x1="191.724" y1="-55.691" x2="662.8624" y2="292.9893">
				<stop  offset="0" style="stop-color:#28C8AF"/>
				<stop  offset="1" style="stop-color:#0F554B"/>
			</linearGradient>
			<path style="fill:url(#SVGID_00000058551236105255476090000007287528685640691081_);" d="M630,211.7h-0.1c-1.2,0-2.1-0.9-2.1-2.1
				c0-1.2,0.9-2.1,2.1-2.1h0.1c1.2,0,2.1,0.9,2.1,2.1C632.1,210.7,631.1,211.7,630,211.7z M618.5,211.5
				C618.5,211.5,618.5,211.5,618.5,211.5l-0.2,0c-1.2,0-2.1-1-2.1-2.2c0-1.2,1-2.1,2.2-2.1l0.2,0c1.2,0,2.1,1,2,2.2
				C620.6,210.6,619.6,211.5,618.5,211.5z M641.3,211.4c-1.1,0-2.1-0.9-2.1-2c0-1.2,0.9-2.1,2-2.2l0.1,0c0,0,0.1,0,0.1,0
				c1.1,0,2.1,0.9,2.1,2c0,1.2-0.9,2.1-2,2.2L641.3,211.4C641.3,211.4,641.3,211.4,641.3,211.4z M607.1,210.8c0,0-0.1,0-0.1,0
				l-0.2,0c-1.2-0.1-2-1.1-1.9-2.3c0.1-1.2,1.1-2,2.3-1.9l0.1,0c1.2,0.1,2,1.1,2,2.2C609.1,210,608.2,210.8,607.1,210.8z
				 M652.7,210.7c-1.1,0-2-0.8-2.1-1.9c-0.1-1.2,0.7-2.2,1.9-2.3l0.2,0c1.2-0.1,2.2,0.8,2.3,1.9c0.1,1.2-0.8,2.2-1.9,2.3l-0.1,0
				C652.8,210.7,652.8,210.7,652.7,210.7z M595.7,209.8c-0.1,0-0.1,0-0.2,0l-0.1,0c-1.2-0.1-2-1.2-1.9-2.3c0.1-1.2,1.2-2,2.3-1.9
				l0.1,0c1.2,0.1,2,1.2,1.9,2.3C597.7,209,596.8,209.8,595.7,209.8z M664.1,209.4c-1,0-2-0.8-2.1-1.8c-0.1-1.2,0.7-2.2,1.8-2.4
				c1.2-0.2,2.3,0.6,2.4,1.8c0.2,1.2-0.6,2.2-1.7,2.4l-0.2,0C664.2,209.4,664.1,209.4,664.1,209.4z M584.3,208.6c-0.1,0-0.2,0-0.2,0
				l-0.1,0c-1.2-0.1-2-1.2-1.9-2.3c0.1-1.2,1.2-2,2.3-1.9l0.1,0c1.2,0.1,2,1.2,1.9,2.3C586.3,207.8,585.4,208.6,584.3,208.6z
				 M675.4,207.4c-1,0-1.9-0.7-2.1-1.7c-0.2-1.1,0.5-2.2,1.6-2.5c0,0,0.1,0,0.1,0c1.1-0.2,2.3,0.5,2.5,1.6c0.2,1.1-0.5,2.2-1.6,2.5
				c0,0-0.1,0-0.1,0C675.7,207.4,675.5,207.4,675.4,207.4z M572.9,207.4c-0.1,0-0.2,0-0.2,0l-0.1,0c-1.2-0.1-2-1.2-1.9-2.3
				c0.1-1.2,1.2-2,2.3-1.9l0.1,0c1.2,0.1,2,1.2,1.9,2.3C574.9,206.6,574,207.4,572.9,207.4z M561.6,206.2c-0.1,0-0.2,0-0.2,0l-0.1,0
				c-1.2-0.1-2-1.2-1.9-2.3c0.1-1.2,1.2-2,2.3-1.9l0.1,0c1.2,0.1,2,1.2,1.9,2.3C563.5,205.4,562.6,206.2,561.6,206.2z M550.2,205
				c-0.1,0-0.2,0-0.2,0l-0.1,0c-1.2-0.1-2-1.2-1.9-2.3c0.1-1.2,1.2-2,2.3-1.9l0.1,0c1.2,0.1,2,1.2,1.9,2.3
				C552.2,204.2,551.2,205,550.2,205z M686.5,204.9c-0.9,0-1.8-0.6-2-1.5c-0.3-1.1,0.3-2.3,1.5-2.6l0.2,0c1.1-0.3,2.3,0.4,2.6,1.5
				c0.3,1.1-0.4,2.3-1.5,2.6l-0.1,0C686.9,204.9,686.7,204.9,686.5,204.9z M538.8,203.8c-0.1,0-0.2,0-0.2,0l-0.1,0
				c-1.2-0.1-2-1.2-1.9-2.3c0.1-1.2,1.2-2,2.3-1.9l0.1,0c1.2,0.1,2,1.2,1.9,2.3C540.8,203,539.9,203.8,538.8,203.8z M527.4,202.6
				c-0.1,0-0.2,0-0.2,0l-0.1,0c-1.2-0.1-2-1.2-1.9-2.3c0.1-1.2,1.2-2,2.3-1.9l0.1,0c1.2,0.1,2,1.2,1.9,2.3
				C529.4,201.8,528.5,202.6,527.4,202.6z M697.5,201.6c-0.9,0-1.7-0.5-2-1.4c-0.4-1.1,0.2-2.3,1.3-2.7l0.1,0
				c1.1-0.4,2.3,0.2,2.7,1.3c0.4,1.1-0.2,2.3-1.3,2.7c0,0-0.1,0-0.1,0C698,201.5,697.7,201.6,697.5,201.6z M516.1,201.4
				c-0.1,0-0.2,0-0.2,0l-0.1,0c-1.2-0.1-2-1.2-1.9-2.3c0.1-1.2,1.2-2,2.3-1.9l0.1,0c1.2,0.1,2,1.2,1.9,2.3
				C518,200.6,517.1,201.4,516.1,201.4z M504.7,200.2c-0.1,0-0.2,0-0.2,0l-0.1,0c-1.2-0.1-2-1.2-1.9-2.3c0.1-1.2,1.2-2,2.3-1.9
				l0.1,0c1.2,0.1,2,1.2,1.9,2.3C506.7,199.4,505.7,200.2,504.7,200.2z M493.3,199c-0.1,0-0.2,0-0.2,0l-0.1,0
				c-1.2-0.1-2-1.2-1.9-2.3c0.1-1.2,1.2-2,2.3-1.9l0.1,0c1.2,0.1,2,1.2,1.9,2.3C495.3,198.2,494.4,199,493.3,199z M481.9,197.8
				c-0.1,0-0.2,0-0.2,0l-0.1,0c-1.2-0.1-2-1.2-1.9-2.3c0.1-1.2,1.2-2,2.3-1.9l0.1,0c1.2,0.1,2,1.2,1.9,2.3
				C483.9,197,483,197.8,481.9,197.8z M708.2,197.6c-0.8,0-1.6-0.5-2-1.3c-0.4-1.1,0.1-2.3,1.2-2.8l0.1,0c1.1-0.5,2.3,0,2.8,1.1
				c0.5,1.1,0,2.3-1.1,2.8l-0.2,0.1C708.7,197.5,708.4,197.6,708.2,197.6z M470.5,196.5c-0.1,0-0.2,0-0.2,0l-0.1,0
				c-1.2-0.1-2-1.2-1.9-2.3c0.1-1.2,1.2-2,2.3-1.9l0.1,0c1.2,0.1,2,1.2,1.9,2.3C472.5,195.7,471.6,196.5,470.5,196.5z M10.8,196.2
				c-0.6,0-1.2-0.3-1.6-0.8c-0.7-0.9-0.6-2.2,0.3-3l0.1-0.1c0.9-0.7,2.2-0.6,3,0.3c0.7,0.9,0.6,2.2-0.3,3l-0.1,0.1
				C11.7,196.1,11.2,196.2,10.8,196.2z M459.2,195.3c-0.1,0-0.2,0-0.2,0l-0.1,0c-1.2-0.1-2-1.2-1.9-2.3s1.2-2,2.3-1.9l0.1,0
				c1.2,0.1,2,1.2,1.9,2.3C461.1,194.5,460.2,195.3,459.2,195.3z M447.8,194.1c-0.1,0-0.2,0-0.2,0l-0.1,0c-1.2-0.1-2-1.2-1.9-2.3
				c0.1-1.2,1.2-2,2.3-1.9l0.1,0c1.2,0.1,2,1.2,1.9,2.3C449.8,193.3,448.9,194.1,447.8,194.1z M436.4,192.9c-0.1,0-0.2,0-0.2,0
				l-0.1,0c-1.2-0.1-2-1.2-1.9-2.3c0.1-1.2,1.2-2,2.3-1.9l0.1,0c1.2,0.1,2,1.2,1.9,2.3C438.4,192.1,437.5,192.9,436.4,192.9z
				 M718.5,192.7c-0.8,0-1.5-0.4-1.9-1.1c-0.5-1-0.2-2.3,0.9-2.9l0.2-0.1c1-0.5,2.3-0.1,2.8,0.9c0.5,1,0.1,2.3-0.9,2.8l-0.1,0
				C719.2,192.7,718.9,192.7,718.5,192.7z M425,191.7c-0.1,0-0.2,0-0.2,0l-0.1,0c-1.2-0.1-2-1.2-1.9-2.3c0.1-1.2,1.2-2,2.3-1.9
				l0.1,0c1.2,0.1,2,1.2,1.9,2.3C427,190.9,426.1,191.7,425,191.7z M413.7,190.5c-0.1,0-0.2,0-0.2,0l-0.1,0c-1.2-0.1-2-1.2-1.9-2.3
				c0.1-1.2,1.2-2,2.3-1.9l0.1,0c1.2,0.1,2,1.2,1.9,2.3C415.6,189.7,414.7,190.5,413.7,190.5z M19.9,189.3c-0.7,0-1.3-0.3-1.7-0.9
				c-0.7-1-0.4-2.3,0.5-2.9l0.1-0.1c1-0.7,2.3-0.4,2.9,0.6c0.7,1,0.4,2.3-0.6,2.9l-0.1,0.1C20.8,189.2,20.3,189.3,19.9,189.3z
				 M402.3,189.3c-0.1,0-0.1,0-0.2,0l-0.1,0c-1.2-0.1-2-1.2-1.9-2.3c0.1-1.2,1.2-2,2.3-1.9l0.1,0c1.2,0.1,2,1.2,1.9,2.3
				C404.3,188.5,403.3,189.3,402.3,189.3z M390.9,188.1c-0.1,0-0.1,0-0.2,0l-0.1,0c-1.2-0.1-2-1.2-1.9-2.3c0.1-1.2,1.2-2,2.3-1.9
				l0.1,0c1.2,0.1,2,1.2,1.9,2.3C392.9,187.3,392,188.1,390.9,188.1z M728.5,187.1c-0.7,0-1.4-0.4-1.8-1c-0.6-1-0.3-2.3,0.7-2.9
				l0.1-0.1c1-0.6,2.3-0.3,2.9,0.7c0.6,1,0.3,2.3-0.7,2.9l-0.2,0.1C729.2,187,728.8,187.1,728.5,187.1z M379.5,186.9
				c-0.1,0-0.1,0-0.2,0l-0.1,0c-1.2-0.1-2-1.2-1.9-2.3c0.1-1.2,1.2-2,2.3-1.9l0.1,0c1.2,0.1,2,1.2,1.9,2.3
				C381.5,186.1,380.6,186.9,379.5,186.9z M368.1,185.7c-0.1,0-0.1,0-0.2,0l-0.1,0c-1.2-0.1-2-1.2-1.9-2.3c0.1-1.2,1.2-2,2.3-1.9
				l0.1,0c1.2,0.1,2,1.2,1.9,2.3C370.1,184.8,369.2,185.7,368.1,185.7z M356.8,184.4c-0.1,0-0.1,0-0.2,0l-0.1,0
				c-1.2-0.1-2-1.2-1.9-2.3c0.1-1.2,1.2-2,2.3-1.9l0.1,0c1.2,0.1,2,1.2,1.9,2.3C358.8,183.6,357.8,184.4,356.8,184.4z M29.6,183.3
				c-0.7,0-1.5-0.4-1.8-1.1c-0.6-1-0.2-2.3,0.8-2.9l0.1-0.1c1-0.6,2.3-0.2,2.9,0.8c0.6,1,0.2,2.3-0.8,2.9l-0.1,0.1
				C30.3,183.2,30,183.3,29.6,183.3z M345.4,183.2c-0.1,0-0.1,0-0.2,0l-0.1,0c-1.2-0.1-2-1.2-1.9-2.3c0.1-1.2,1.2-2,2.3-1.9l0.1,0
				c1.2,0.1,2,1.2,1.9,2.3C347.4,182.4,346.5,183.2,345.4,183.2z M334,182c-0.1,0-0.1,0-0.2,0l-0.1,0c-1.2-0.1-2-1.2-1.9-2.3
				c0.1-1.2,1.2-2,2.3-1.9l0.1,0c1.2,0.1,2,1.2,1.9,2.3C336,181.2,335.1,182,334,182z M322.6,180.8c-0.1,0-0.1,0-0.2,0l-0.1,0
				c-1.2-0.1-2-1.2-1.9-2.3c0.1-1.2,1.2-2,2.3-1.9l0.1,0c1.2,0.1,2,1.2,1.9,2.3C324.6,180,323.7,180.8,322.6,180.8z M737.9,180.7
				c-0.6,0-1.3-0.3-1.7-0.8c-0.7-0.9-0.5-2.3,0.4-3l0.1-0.1c0.9-0.7,2.3-0.5,3,0.4c0.7,0.9,0.5,2.3-0.4,3l-0.1,0.1
				C738.8,180.5,738.4,180.7,737.9,180.7z M311.3,179.6c-0.1,0-0.1,0-0.2,0l-0.1,0c-1.2-0.1-2-1.2-1.9-2.3c0.1-1.2,1.1-2,2.3-1.9
				l0.1,0c1.2,0.1,2,1.2,1.9,2.3C313.2,178.8,312.3,179.6,311.3,179.6z M299.9,178.4c-0.1,0-0.1,0-0.2,0l-0.1,0
				c-1.2-0.1-2-1.2-1.9-2.3c0.1-1.2,1.2-2,2.3-1.9l0.1,0c1.2,0.1,2,1.2,1.9,2.3C301.9,177.6,300.9,178.4,299.9,178.4z M288.5,177.2
				c-0.1,0-0.1,0-0.2,0l-0.1,0c-1.2-0.1-2-1.2-1.9-2.3c0.1-1.2,1.2-2,2.3-1.9l0.1,0c1.2,0.1,2,1.2,1.9,2.3
				C290.5,176.4,289.6,177.2,288.5,177.2z M277.1,176c-0.1,0-0.1,0-0.2,0l-0.1,0c-1.2-0.1-2-1.2-1.9-2.3c0.1-1.2,1.2-2,2.3-1.9
				l0.1,0c1.2,0.1,2,1.2,1.9,2.3C279.1,175.2,278.2,176,277.1,176z M265.7,174.8c-0.1,0-0.1,0-0.2,0l-0.1,0c-1.2-0.1-2-1.2-1.9-2.3
				c0.1-1.2,1.1-2,2.3-1.9l0.1,0c1.2,0.1,2,1.2,1.9,2.3C267.7,174,266.8,174.8,265.7,174.8z M50.3,173.6c-0.9,0-1.7-0.5-2-1.4
				c-0.4-1.1,0.1-2.3,1.2-2.7l0.1,0c1.1-0.4,2.3,0.1,2.7,1.2c0.4,1.1-0.1,2.3-1.2,2.7l-0.1,0.1C50.8,173.5,50.6,173.6,50.3,173.6z
				 M254.4,173.6c-0.1,0-0.1,0-0.2,0l-0.1,0c-1.2-0.1-2-1.2-1.9-2.3c0.1-1.2,1.1-2,2.3-1.9l0.1,0c1.2,0.1,2,1.2,1.9,2.3
				C256.4,172.7,255.4,173.6,254.4,173.6z M746.8,173.5c-0.6,0-1.2-0.2-1.6-0.7c-0.8-0.9-0.7-2.2,0.2-3l0.1-0.1
				c0.9-0.8,2.2-0.7,3,0.2c0.8,0.9,0.7,2.2-0.2,3l-0.1,0.1C747.8,173.3,747.3,173.5,746.8,173.5z M243,172.3c-0.1,0-0.1,0-0.2,0
				l-0.1,0c-1.2-0.1-2-1.2-1.9-2.3c0.1-1.2,1.2-2,2.3-1.9l0.1,0c1.2,0.1,2,1.2,1.9,2.3C245,171.5,244.1,172.3,243,172.3z
				 M231.6,171.1c-0.1,0-0.1,0-0.2,0l-0.1,0c-1.2-0.1-2-1.2-1.9-2.3c0.1-1.2,1.2-2,2.3-1.9l0.1,0c1.2,0.1,2,1.2,1.9,2.3
				C233.6,170.3,232.7,171.1,231.6,171.1z M220.2,169.9c-0.1,0-0.1,0-0.2,0l-0.1,0c-1.2-0.1-2-1.2-1.9-2.3c0.1-1.2,1.1-2,2.3-1.9
				l0.1,0c1.2,0.1,2,1.2,1.9,2.3C222.2,169.1,221.3,169.9,220.2,169.9z M61.1,169.9c-0.9,0-1.7-0.6-2-1.5c-0.3-1.1,0.3-2.3,1.4-2.6
				l0.1,0c1.1-0.3,2.3,0.3,2.6,1.4c0.3,1.1-0.3,2.3-1.4,2.6l-0.1,0C61.5,169.9,61.3,169.9,61.1,169.9z M208.9,168.7
				c-0.1,0-0.1,0-0.2,0l-0.1,0c-1.2-0.1-2-1.2-1.9-2.3c0.1-1.2,1.1-2,2.3-1.9l0.1,0c1.2,0.1,2,1.2,1.9,2.3
				C210.8,167.9,209.9,168.7,208.9,168.7z M197.5,167.5c-0.1,0-0.1,0-0.2,0l-0.1,0c-1.2-0.1-2-1.2-1.9-2.3c0.1-1.2,1.2-2,2.3-1.9
				l0.1,0c1.2,0.1,2,1.2,1.9,2.3C199.5,166.7,198.6,167.5,197.5,167.5z M72.2,167c-1,0-1.8-0.7-2.1-1.6c-0.3-1.1,0.4-2.3,1.6-2.5
				l0.1,0c1.1-0.3,2.3,0.4,2.5,1.6c0.3,1.1-0.4,2.3-1.6,2.5l-0.1,0C72.5,166.9,72.3,167,72.2,167z M186.1,166.3c-0.1,0-0.1,0-0.2,0
				l-0.1,0c-1.2-0.1-2-1.2-1.9-2.3c0.1-1.2,1.2-2,2.3-1.9l0.1,0c1.2,0.1,2,1.2,1.9,2.3C188.1,165.5,187.2,166.3,186.1,166.3z
				 M755,165.5c-0.5,0-1-0.2-1.4-0.6c-0.8-0.8-0.9-2.1-0.1-3l0.1-0.1c0.8-0.8,2.1-0.9,3-0.1c0.8,0.8,0.9,2.1,0.1,3l-0.1,0.1
				C756.1,165.3,755.5,165.5,755,165.5z M174.7,165.1c-0.1,0-0.1,0-0.2,0l-0.1,0c-1.2-0.1-2-1.2-1.9-2.3c0.1-1.2,1.2-2,2.3-1.9
				l0.1,0c1.2,0.1,2,1.2,1.9,2.3C176.7,164.3,175.8,165.1,174.7,165.1z M83.4,164.7c-1,0-1.9-0.7-2.1-1.8c-0.2-1.1,0.6-2.2,1.7-2.4
				l0.1,0c1.2-0.2,2.2,0.6,2.4,1.7c0.2,1.1-0.6,2.2-1.7,2.4l-0.1,0C83.6,164.7,83.5,164.7,83.4,164.7z M163.4,163.9
				c-0.1,0-0.1,0-0.2,0l-0.1,0c-1.2-0.1-2-1.2-1.9-2.3c0.1-1.2,1.1-2,2.3-1.9l0.1,0c1.2,0.1,2,1.2,1.9,2.3
				C165.3,163.1,164.4,163.9,163.4,163.9z M94.7,163.1c-1.1,0-2-0.8-2.1-1.9c-0.1-1.2,0.7-2.2,1.9-2.3c1.2-0.2,2.3,0.7,2.4,1.8
				c0.1,1.2-0.6,2.2-1.8,2.4l-0.2,0C94.9,163.1,94.8,163.1,94.7,163.1z M152,162.7c-0.1,0-0.1,0-0.2,0l0.2-2.1l-0.2,2.1l-0.2,0
				c-1.2-0.1-2-1.2-1.9-2.3c0.1-1.2,1.2-2,2.3-1.9c1.2,0.1,2.1,1.1,2,2.3C153.9,161.9,153,162.7,152,162.7z M106.1,162
				c-1.1,0-2-0.8-2.1-1.9c-0.1-1.2,0.8-2.2,1.9-2.3l0.2,0c1.2-0.1,2.2,0.8,2.2,2c0.1,1.2-0.8,2.2-2,2.2l-0.1,0
				C106.2,162,106.2,162,106.1,162z M140.6,161.9c0,0-0.1,0-0.1,0l-0.1,0c-1.2,0-2.1-1-2-2.2c0-1.2,1-2,2.2-2l0.2,0
				c1.2,0.1,2,1.1,2,2.2C142.6,161.1,141.7,161.9,140.6,161.9z M117.5,161.5c-1.1,0-2.1-0.9-2.1-2.1c0-1.2,0.9-2.1,2.1-2.2l0.1,0
				c0,0,0,0,0,0c1.1,0,2.1,0.9,2.1,2.1c0,1.2-0.9,2.1-2.1,2.2L117.5,161.5C117.6,161.5,117.5,161.5,117.5,161.5z M129.1,161.5
				C129.1,161.5,129.1,161.5,129.1,161.5l-0.2,0c-1.2,0-2.1-1-2.1-2.2c0-1.2,1-2.1,2.2-2.1l0.1,0c1.2,0,2.1,1,2.1,2.2
				C131.2,160.6,130.3,161.5,129.1,161.5z M762.5,156.9c-0.5,0-0.9-0.2-1.3-0.5c-0.9-0.7-1-2.1-0.3-3l0.1-0.1c0.7-0.9,2.1-1.1,3-0.3
				c0.9,0.7,1.1,2,0.3,3l-0.1,0.1C763.7,156.6,763.1,156.9,762.5,156.9z M769.3,147.7c-0.4,0-0.8-0.1-1.2-0.4c-1-0.7-1.2-2-0.5-2.9
				l0.1-0.1c0.7-1,2-1.2,2.9-0.6c1,0.7,1.2,2,0.6,2.9l-0.1,0.1C770.6,147.4,769.9,147.7,769.3,147.7z M775.3,138
				c-0.4,0-0.7-0.1-1-0.3c-1-0.6-1.4-1.9-0.8-2.9l0.1-0.1c0.6-1,1.9-1.4,2.9-0.8c1,0.6,1.4,1.9,0.8,2.9l-0.1,0.1
				C776.8,137.7,776.1,138,775.3,138z M780.7,127.9c-0.3,0-0.6-0.1-0.9-0.2c-1-0.5-1.5-1.8-1-2.8l0.1-0.1c0.5-1.1,1.8-1.5,2.8-1
				c1.1,0.5,1.5,1.8,1,2.8l-0.1,0.1C782.2,127.5,781.4,127.9,780.7,127.9z M785.3,117.5c-0.3,0-0.6-0.1-0.8-0.2
				c-1.1-0.5-1.6-1.7-1.1-2.8l0-0.1c0.4-1.1,1.7-1.6,2.7-1.2c1.1,0.4,1.6,1.7,1.2,2.7l-0.1,0.2C786.9,117,786.1,117.5,785.3,117.5z
				 M789.3,106.8c-0.2,0-0.4,0-0.7-0.1c-1.1-0.4-1.7-1.6-1.4-2.7l0.1-0.2c0.4-1.1,1.6-1.7,2.7-1.3c1.1,0.4,1.7,1.6,1.3,2.7l0,0.1
				C791,106.2,790.2,106.8,789.3,106.8z M792.7,95.9c-0.2,0-0.4,0-0.6-0.1c-1.1-0.3-1.8-1.5-1.5-2.6l0-0.1c0.3-1.1,1.5-1.8,2.6-1.5
				c1.1,0.3,1.8,1.5,1.5,2.6l0,0.1C794.5,95.3,793.6,95.9,792.7,95.9z M795.5,84.8c-0.1,0-0.3,0-0.4,0c-1.1-0.2-1.9-1.4-1.6-2.5
				l0-0.2c0.3-1.1,1.4-1.8,2.5-1.6c1.1,0.3,1.8,1.4,1.6,2.5l0,0.1C797.4,84.1,796.5,84.8,795.5,84.8z M797.8,73.6
				c-0.1,0-0.2,0-0.3,0c-1.1-0.2-1.9-1.3-1.7-2.4l0-0.2c0.2-1.1,1.3-1.9,2.5-1.7c1.1,0.2,1.9,1.3,1.7,2.5l0,0.1
				C799.7,72.9,798.8,73.6,797.8,73.6z M799.6,62.3c-0.1,0-0.2,0-0.3,0c-1.2-0.1-2-1.2-1.8-2.4l0-0.2c0.2-1.2,1.2-1.9,2.4-1.8
				c1.2,0.2,2,1.2,1.8,2.4l0,0.1C801.6,61.5,800.7,62.3,799.6,62.3z M801.1,51c-0.1,0-0.2,0-0.3,0c-1.2-0.1-2-1.2-1.8-2.4l0-0.1
				c0.1-1.2,1.2-2,2.4-1.8c1.2,0.1,2,1.2,1.8,2.4l0,0.1C803,50.2,802.1,51,801.1,51z M802.5,39.6c-0.1,0-0.2,0-0.3,0
				c-1.2-0.1-2-1.2-1.8-2.4l0-0.1c0.1-1.2,1.2-2,2.4-1.8c1.2,0.1,2,1.2,1.8,2.4l0,0.1C804.4,38.8,803.5,39.6,802.5,39.6z
				 M803.8,28.3c-0.1,0-0.2,0-0.2,0c-1.2-0.1-2-1.2-1.8-2.3l0-0.1c0.1-1.2,1.2-2,2.3-1.8c1.2,0.1,2,1.2,1.8,2.3l0,0.1
				C805.8,27.5,804.9,28.3,803.8,28.3z M805.2,16.9c-0.1,0-0.2,0-0.2,0c-1.2-0.1-2-1.2-1.8-2.3l0-0.1c0.1-1.2,1.2-2,2.3-1.8
				c1.2,0.1,2,1.2,1.8,2.3l0,0.1C807.2,16.1,806.3,16.9,805.2,16.9z M37.7,175.9c0,1.2,1,2.2,2.2,2.2c1.2,0,2.2-1,2.2-2.2
				s-1-2.2-2.2-2.2C38.6,173.8,37.7,174.7,37.7,175.9z"/>
		</g>
		<g>
			
				<linearGradient id="SVGID_00000138553415763736172560000012052811406597963396_" gradientUnits="userSpaceOnUse" x1="0.4196" y1="200.5666" x2="472.7758" y2="550.1483">
				<stop  offset="0" style="stop-color:#28C8AF"/>
				<stop  offset="1" style="stop-color:#0F554B"/>
			</linearGradient>
			<path style="fill:url(#SVGID_00000138553415763736172560000012052811406597963396_);" d="M2.1,203.9c-0.6,0-1.1-0.2-1.5-0.7
				c-0.8-0.8-0.8-2.2,0.1-3c0.8-0.8,2.2-0.8,3,0c0.8,0.8,0.8,2.1,0,3c0,0-0.1,0.1-0.1,0.1C3.2,203.7,2.6,203.9,2.1,203.9z"/>
		</g>
	</g>
	<g>
		<g>
			
				<linearGradient id="SVGID_00000136378350564473700910000006459634363223927943_" gradientUnits="userSpaceOnUse" x1="-1.5751" y1="235.1305" x2="467.4361" y2="582.2365">
				<stop  offset="0" style="stop-color:#28C8AF"/>
				<stop  offset="1" style="stop-color:#0F554B"/>
			</linearGradient>
			<path style="fill:url(#SVGID_00000136378350564473700910000006459634363223927943_);" d="M43.8,270.8c-0.1,0-0.2,0-0.3,0
				c-1.2-0.1-2-1.2-1.8-2.3l0-0.1c0.1-1.2,1.2-2,2.4-1.8c1.2,0.1,2,1.2,1.8,2.4C45.8,270,44.9,270.8,43.8,270.8z"/>
		</g>
		<g>
			
				<linearGradient id="SVGID_00000058590948103353392230000017717913797150280366_" gradientUnits="userSpaceOnUse" x1="187.5358" y1="-20.8625" x2="658.6749" y2="327.8184">
				<stop  offset="0" style="stop-color:#28C8AF"/>
				<stop  offset="1" style="stop-color:#0F554B"/>
			</linearGradient>
			<path style="fill:url(#SVGID_00000058590948103353392230000017717913797150280366_);" d="M45.2,259.6c-0.1,0-0.2,0-0.3,0
				c-1.2-0.1-2-1.2-1.8-2.3l0-0.1c0.1-1.2,1.2-2,2.3-1.8c1.2,0.1,2,1.2,1.8,2.3l0,0.1C47.1,258.8,46.2,259.6,45.2,259.6z
				 M46.6,248.2c-0.1,0-0.2,0-0.3,0c-1.2-0.1-2-1.2-1.8-2.3l0-0.1c0.1-1.2,1.2-2,2.3-1.8c1.2,0.1,2,1.2,1.8,2.3l0,0.1
				C48.5,247.5,47.6,248.2,46.6,248.2z M47.9,236.9c-0.1,0-0.2,0-0.3,0c-1.2-0.1-2-1.2-1.8-2.3l0-0.1c0.1-1.2,1.2-2,2.3-1.8
				c1.2,0.1,2,1.2,1.8,2.3l0,0.1C49.9,236.1,49,236.9,47.9,236.9z M49.3,225.5c-0.1,0-0.2,0-0.3,0c-1.2-0.1-2-1.2-1.8-2.3l0-0.1
				c0.1-1.2,1.2-2,2.3-1.8c1.2,0.1,2,1.2,1.8,2.3l0,0.1C51.3,224.7,50.4,225.5,49.3,225.5z M50.7,214.2c-0.1,0-0.2,0-0.3,0
				c-1.2-0.2-2-1.2-1.8-2.4l0-0.1c0.2-1.2,1.2-2,2.4-1.8c1.2,0.2,2,1.2,1.8,2.4l0,0.2C52.7,213.4,51.8,214.2,50.7,214.2z
				 M52.6,202.9c-0.1,0-0.2,0-0.4,0c-1.1-0.2-1.9-1.3-1.7-2.4l0-0.2c0.2-1.1,1.3-1.9,2.5-1.7c1.1,0.2,1.9,1.3,1.7,2.5l0,0.1
				C54.5,202.2,53.6,202.9,52.6,202.9z M54.9,191.7c-0.2,0-0.3,0-0.5-0.1c-1.1-0.3-1.8-1.4-1.6-2.5l0-0.1c0.2-1.1,1.4-1.9,2.5-1.6
				c1.1,0.2,1.9,1.4,1.6,2.5l0,0.2C56.7,191,55.8,191.7,54.9,191.7z M57.7,180.6c-0.2,0-0.4,0-0.6-0.1c-1.1-0.3-1.8-1.5-1.5-2.6
				l0-0.2c0.3-1.1,1.5-1.8,2.6-1.4c1.1,0.3,1.8,1.5,1.4,2.6l0,0.1C59.4,180,58.6,180.6,57.7,180.6z M61,169.7c-0.2,0-0.5,0-0.7-0.1
				c-1.1-0.4-1.7-1.6-1.3-2.7l0-0.1c0.4-1.1,1.6-1.7,2.7-1.3c1.1,0.4,1.7,1.6,1.3,2.7l0,0.1C62.8,169.1,61.9,169.7,61,169.7z
				 M65,159c-0.3,0-0.5,0-0.8-0.2c-1.1-0.4-1.6-1.7-1.2-2.7c0,0,0-0.1,0-0.1c0.4-1.1,1.7-1.6,2.8-1.2c1.1,0.4,1.6,1.6,1.2,2.7
				l-0.1,0.1C66.7,158.5,65.9,159,65,159z M69.7,148.5c-0.3,0-0.6-0.1-0.9-0.2c-1.1-0.5-1.5-1.8-1-2.8l0.1-0.2
				c0.5-1,1.8-1.5,2.8-0.9c1,0.5,1.5,1.8,0.9,2.8l0,0.1C71.2,148.1,70.5,148.5,69.7,148.5z M75,138.4c-0.4,0-0.7-0.1-1-0.3
				c-1-0.6-1.4-1.9-0.8-2.9l0.1-0.1c0.6-1,1.9-1.3,2.9-0.8c1,0.6,1.3,1.9,0.8,2.9l-0.1,0.1C76.4,138.1,75.7,138.4,75,138.4z
				 M81,128.7c-0.4,0-0.8-0.1-1.2-0.4c-1-0.7-1.2-2-0.6-2.9l0.1-0.1c0.7-1,2-1.2,2.9-0.5c1,0.7,1.2,2,0.5,2.9l-0.1,0.1
				C82.4,128.4,81.7,128.7,81,128.7z M87.8,119.5c-0.5,0-0.9-0.2-1.3-0.5c-0.9-0.7-1.1-2.1-0.3-3l0.1-0.1c0.7-0.9,2-1.1,3-0.3
				c0.9,0.7,1.1,2,0.3,3l-0.1,0.1C89,119.3,88.4,119.5,87.8,119.5z M721.4,114.8C721.4,114.8,721.4,114.8,721.4,114.8l-0.2,0
				c-1.2,0-2.1-1-2.1-2.2c0-1.2,1-2.1,2.1-2.1c0,0,0,0,0,0l0.1,0c1.2,0,2.1,1,2.1,2.2C723.5,113.9,722.6,114.8,721.4,114.8z
				 M732.7,114.8c-1.1,0-2.1-0.9-2.1-2.1c0-1.2,0.9-2.1,2.1-2.2l0.1,0c0,0,0,0,0,0c1.1,0,2.1,0.9,2.1,2.1c0,1.2-0.9,2.1-2.1,2.2
				L732.7,114.8C732.8,114.8,732.7,114.8,732.7,114.8z M710,114.4C710,114.4,709.9,114.4,710,114.4l-0.3,0c-1.2-0.1-2-1.1-2-2.2
				c0.1-1.2,1.1-2,2.2-2l0.1,0c1.2,0,2.1,1,2,2.2C712,113.5,711.1,114.4,710,114.4z M744.2,114.3c-1.1,0-2-0.9-2.1-2
				c-0.1-1.2,0.8-2.2,2-2.2l0.1,0c1.2-0.1,2.2,0.8,2.3,1.9c0.1,1.2-0.8,2.2-1.9,2.3l-0.2,0C744.2,114.3,744.2,114.3,744.2,114.3z
				 M698.6,113.6c-0.1,0-0.1,0-0.2,0l-0.1,0c-1.2-0.1-2-1.1-1.9-2.3c0.1-1.2,1.1-2,2.3-1.9l0.2,0c1.2,0.1,2,1.2,1.9,2.3
				C700.6,112.8,699.6,113.6,698.6,113.6z M755.6,113.3c-1.1,0-2-0.8-2.1-1.8c-0.1-1.2,0.6-2.2,1.8-2.3l0.2,0
				c1.1-0.1,2.2,0.7,2.3,1.9c0.1,1.2-0.7,2.2-1.9,2.3C755.8,113.3,755.7,113.3,755.6,113.3z M687.2,112.5c-0.1,0-0.1,0-0.2,0l-0.1,0
				c-1.2-0.1-2-1.2-1.9-2.3s1.2-2,2.3-1.9l0.1,0c1.2,0.1,2,1.2,1.9,2.3C689.2,111.7,688.3,112.5,687.2,112.5z M766.9,111.7
				c-1,0-1.9-0.7-2.1-1.8c-0.2-1.1,0.6-2.2,1.7-2.4l0.1,0c1.1-0.2,2.2,0.6,2.4,1.7c0.2,1.1-0.6,2.2-1.7,2.4l-0.1,0
				C767.1,111.7,767,111.7,766.9,111.7z M675.8,111.3c-0.1,0-0.1,0-0.2,0l-0.1,0c-1.2-0.1-2-1.2-1.9-2.3c0.1-1.2,1.2-2,2.3-1.9
				l0.1,0c1.2,0.1,2,1.2,1.9,2.3C677.8,110.5,676.9,111.3,675.8,111.3z M95.3,110.9c-0.5,0-1-0.2-1.5-0.6c-0.8-0.8-0.9-2.1-0.1-3
				l0.1-0.1c0.8-0.9,2.1-0.9,3-0.1c0.9,0.8,0.9,2.1,0.1,3l-0.1,0.1C96.4,110.7,95.9,110.9,95.3,110.9z M664.4,110.1
				c-0.1,0-0.1,0-0.2,0l-0.1,0c-1.2-0.1-2-1.2-1.9-2.3c0.1-1.2,1.2-2,2.3-1.9l0.1,0c1.2,0.1,2,1.2,1.9,2.3
				C666.4,109.3,665.5,110.1,664.4,110.1z M778.1,109.4c-1,0-1.8-0.7-2.1-1.6c-0.3-1.1,0.4-2.3,1.6-2.5l0.1,0
				c1.1-0.3,2.3,0.4,2.5,1.6c0.3,1.1-0.4,2.3-1.6,2.5l-0.1,0C778.4,109.4,778.2,109.4,778.1,109.4z M653.1,108.9c-0.1,0-0.1,0-0.2,0
				l-0.1,0c-1.2-0.1-2-1.2-1.9-2.3c0.1-1.2,1.2-2,2.3-1.9l0.1,0c1.2,0.1,2,1.2,1.9,2.3C655,108,654.1,108.9,653.1,108.9z
				 M641.7,107.6c-0.1,0-0.1,0-0.2,0l-0.1,0c-1.2-0.1-2-1.2-1.9-2.3c0.1-1.2,1.2-2,2.3-1.9l0.1,0c1.2,0.1,2,1.2,1.9,2.3
				C643.7,106.8,642.7,107.6,641.7,107.6z M789.1,106.5c-0.9,0-1.7-0.6-2-1.5c-0.3-1.1,0.3-2.3,1.4-2.6l0.1,0
				c1.1-0.3,2.3,0.3,2.6,1.4c0.3,1.1-0.3,2.3-1.4,2.6l-0.1,0C789.5,106.5,789.3,106.5,789.1,106.5z M630.3,106.4c-0.1,0-0.1,0-0.2,0
				l-0.1,0c-1.2-0.1-2-1.2-1.9-2.3c0.1-1.2,1.2-2,2.3-1.9l0.1,0c1.2,0.1,2,1.2,1.9,2.3C632.3,105.6,631.4,106.4,630.3,106.4z
				 M618.9,105.2c-0.1,0-0.1,0-0.2,0l-0.1,0c-1.2-0.1-2-1.2-1.9-2.3c0.1-1.2,1.2-2,2.3-1.9l0.1,0c1.2,0.1,2,1.2,1.9,2.3
				C620.9,104.4,620,105.2,618.9,105.2z M607.6,104c-0.1,0-0.1,0-0.2,0l-0.1,0c-1.2-0.1-2-1.2-1.9-2.3c0.1-1.2,1.2-2,2.3-1.9l0.1,0
				c1.2,0.1,2,1.2,1.9,2.3C609.5,103.2,608.6,104,607.6,104z M103.5,103c-0.6,0-1.2-0.2-1.6-0.7c-0.8-0.9-0.7-2.2,0.2-3l0.1-0.1
				c0.9-0.8,2.2-0.7,3,0.1c0.8,0.9,0.7,2.2-0.2,3l-0.1,0.1C104.5,102.8,104,103,103.5,103z M800,102.8c-0.9,0-1.7-0.5-2-1.4
				c-0.4-1.1,0.1-2.3,1.2-2.7l0.1,0c1.1-0.4,2.3,0.1,2.7,1.2c0.4,1.1-0.1,2.3-1.2,2.7l-0.1,0C800.5,102.8,800.2,102.8,800,102.8z
				 M596.2,102.8c-0.1,0-0.1,0-0.2,0l-0.1,0c-1.2-0.1-2-1.2-1.9-2.3c0.1-1.2,1.2-2,2.3-1.9l0.1,0c1.2,0.1,2,1.2,1.9,2.3
				C598.2,102,597.2,102.8,596.2,102.8z M584.8,101.6c-0.1,0-0.1,0-0.2,0l-0.1,0c-1.2-0.1-2-1.2-1.9-2.3c0.1-1.2,1.2-2,2.3-1.9
				l0.1,0c1.2,0.1,2,1.2,1.9,2.3C586.8,100.8,585.9,101.6,584.8,101.6z M573.4,100.4c-0.1,0-0.1,0-0.2,0l-0.1,0
				c-1.2-0.1-2-1.2-1.9-2.3c0.1-1.2,1.2-2,2.3-1.9l0.1,0c1.2,0.1,2,1.2,1.9,2.3C575.4,99.6,574.5,100.4,573.4,100.4z M562,99.2
				c-0.1,0-0.1,0-0.2,0l-0.1,0c-1.2-0.1-2-1.2-1.9-2.3c0.1-1.2,1.2-2,2.3-1.9l0.1,0c1.2,0.1,2,1.2,1.9,2.3
				C564,98.4,563.1,99.2,562,99.2z M550.7,98c-0.1,0-0.1,0-0.2,0l-0.1,0c-1.2-0.1-2-1.2-1.9-2.3c0.1-1.2,1.2-2,2.3-1.9l0.1,0
				c1.2,0.1,2,1.2,1.9,2.3C552.6,97.2,551.7,98,550.7,98z M539.3,96.8c-0.1,0-0.1,0-0.2,0l-0.1,0c-1.2-0.1-2-1.2-1.9-2.3
				c0.1-1.2,1.2-2,2.3-1.9l0.1,0c1.2,0.1,2,1.2,1.9,2.3C541.3,96,540.4,96.8,539.3,96.8z M112.4,95.8c-0.6,0-1.3-0.3-1.7-0.9
				c-0.7-0.9-0.5-2.3,0.4-3l0.1-0.1c0.9-0.7,2.3-0.5,3,0.4c0.7,0.9,0.5,2.3-0.4,3l-0.1,0.1C113.3,95.6,112.8,95.8,112.4,95.8z
				 M527.9,95.5c-0.1,0-0.2,0-0.2,0l-0.1,0c-1.2-0.1-2-1.2-1.9-2.3c0.1-1.2,1.2-2,2.3-1.9l0.1,0c1.2,0.1,2,1.2,1.9,2.3
				C529.9,94.7,529,95.5,527.9,95.5z M516.5,94.3c-0.1,0-0.2,0-0.2,0l-0.1,0c-1.2-0.1-2-1.2-1.9-2.3c0.1-1.2,1.2-2,2.3-1.9l0.1,0
				c1.2,0.1,2,1.2,1.9,2.3C518.5,93.5,517.6,94.3,516.5,94.3z M820.7,93.1c-0.7,0-1.4-0.4-1.8-1.1c-0.6-1-0.2-2.3,0.8-2.9l0.1-0.1
				c1-0.6,2.3-0.2,2.9,0.8c0.6,1,0.2,2.3-0.8,2.9l-0.1,0.1C821.4,93,821,93.1,820.7,93.1z M505.2,93.1c-0.1,0-0.2,0-0.2,0l-0.1,0
				c-1.2-0.1-2-1.2-1.9-2.3c0.1-1.2,1.2-2,2.3-1.9l0.1,0c1.2,0.1,2,1.2,1.9,2.3C507.1,92.3,506.2,93.1,505.2,93.1z M493.8,91.9
				c-0.1,0-0.2,0-0.2,0l-0.1,0c-1.2-0.1-2-1.2-1.9-2.3c0.1-1.2,1.2-2,2.3-1.9l0.1,0c1.2,0.1,2,1.2,1.9,2.3
				C495.8,91.1,494.8,91.9,493.8,91.9z M482.4,90.7c-0.1,0-0.2,0-0.2,0l-0.1,0c-1.2-0.1-2-1.2-1.9-2.3c0.1-1.2,1.2-2,2.3-1.9l0.1,0
				c1.2,0.1,2,1.2,1.9,2.3C484.4,89.9,483.5,90.7,482.4,90.7z M471,89.5c-0.1,0-0.2,0-0.2,0l-0.1,0c-1.2-0.1-2-1.2-1.9-2.3
				c0.1-1.2,1.2-2,2.3-1.9l0.1,0c1.2,0.1,2,1.2,1.9,2.3C473,88.7,472.1,89.5,471,89.5z M121.8,89.3c-0.7,0-1.4-0.4-1.8-1
				c-0.6-1-0.3-2.3,0.7-2.9l0.1-0.1c1-0.6,2.3-0.3,2.9,0.7c0.6,1,0.3,2.3-0.7,2.9l-0.1,0.1C122.6,89.2,122.2,89.3,121.8,89.3z
				 M459.6,88.3c-0.1,0-0.2,0-0.2,0l-0.1,0c-1.2-0.1-2-1.2-1.9-2.3c0.1-1.2,1.2-2,2.3-1.9l0.1,0c1.2,0.1,2,1.2,1.9,2.3
				C461.6,87.5,460.7,88.3,459.6,88.3z M830.4,87.1c-0.7,0-1.3-0.3-1.7-0.9c-0.7-1-0.4-2.3,0.5-2.9l0.1-0.1c1-0.7,2.3-0.4,2.9,0.6
				c0.7,1,0.4,2.3-0.6,2.9l-0.1,0.1C831.2,87,830.8,87.1,830.4,87.1z M448.3,87.1c-0.1,0-0.2,0-0.2,0l-0.1,0c-1.2-0.1-2-1.2-1.9-2.3
				c0.1-1.2,1.2-2,2.3-1.9l0.1,0c1.2,0.1,2,1.2,1.9,2.3C450.2,86.3,449.3,87.1,448.3,87.1z M436.9,85.9c-0.1,0-0.2,0-0.2,0l-0.1,0
				c-1.2-0.1-2-1.2-1.9-2.3c0.1-1.2,1.2-2,2.3-1.9l0.1,0c1.2,0.1,2,1.2,1.9,2.3C438.9,85.1,438,85.9,436.9,85.9z M425.5,84.7
				c-0.1,0-0.2,0-0.2,0l-0.1,0c-1.2-0.1-2-1.2-1.9-2.3c0.1-1.2,1.2-2,2.3-1.9l0.1,0c1.2,0.1,2,1.2,1.9,2.3
				C427.5,83.9,426.6,84.7,425.5,84.7z M131.8,83.7c-0.8,0-1.5-0.4-1.9-1.2c-0.5-1-0.1-2.3,0.9-2.8l0.1-0.1c1-0.5,2.3-0.1,2.8,0.9
				c0.5,1,0.1,2.3-0.9,2.8l-0.1,0.1C132.4,83.6,132.1,83.7,131.8,83.7z M414.1,83.5c-0.1,0-0.2,0-0.2,0l-0.1,0
				c-1.2-0.1-2-1.2-1.9-2.3c0.1-1.2,1.2-2,2.3-1.9l0.1,0c1.2,0.1,2,1.2,1.9,2.3C416.1,82.6,415.2,83.5,414.1,83.5z M402.8,82.2
				c-0.1,0-0.2,0-0.2,0l-0.1,0c-1.2-0.1-2-1.2-1.9-2.3c0.1-1.2,1.2-2,2.3-1.9l0.1,0c1.2,0.1,2,1.2,1.9,2.3
				C404.7,81.4,403.8,82.2,402.8,82.2z M391.4,81c-0.1,0-0.2,0-0.2,0l-0.1,0c-1.2-0.1-2-1.2-1.9-2.3c0.1-1.2,1.2-2,2.3-1.9l0.1,0
				c1.2,0.1,2,1.2,1.9,2.3C393.4,80.2,392.4,81,391.4,81z M839.5,80.2c-0.6,0-1.2-0.3-1.6-0.8c-0.7-0.9-0.6-2.2,0.3-3l0.1-0.1
				c0.9-0.7,2.2-0.6,3,0.3c0.7,0.9,0.6,2.2-0.3,3l-0.1,0.1C840.5,80.1,840,80.2,839.5,80.2z M380,79.8c-0.1,0-0.2,0-0.2,0l-0.1,0
				c-1.2-0.1-2-1.2-1.9-2.3c0.1-1.2,1.2-2,2.3-1.9l0.1,0c1.2,0.1,2,1.2,1.9,2.3C382,79,381.1,79.8,380,79.8z M142.1,78.8
				c-0.8,0-1.6-0.5-1.9-1.3c-0.5-1.1,0-2.3,1.1-2.8l0.2-0.1c1.1-0.4,2.3,0.1,2.8,1.1c0.4,1.1-0.1,2.3-1.1,2.8l-0.1,0
				C142.7,78.8,142.4,78.8,142.1,78.8z M368.6,78.6c-0.1,0-0.2,0-0.2,0l-0.1,0c-1.2-0.1-2-1.2-1.9-2.3c0.1-1.2,1.2-2,2.3-1.9l0.1,0
				c1.2,0.1,2,1.2,1.9,2.3C370.6,77.8,369.7,78.6,368.6,78.6z M357.2,77.4c-0.1,0-0.2,0-0.2,0l-0.1,0c-1.2-0.1-2-1.2-1.9-2.3
				c0.1-1.2,1.2-2,2.3-1.9l0.1,0c1.2,0.1,2,1.2,1.9,2.3C359.2,76.6,358.3,77.4,357.2,77.4z M345.9,76.2c-0.1,0-0.2,0-0.2,0l-0.1,0
				c-1.2-0.1-2-1.2-1.9-2.3c0.1-1.2,1.2-2,2.3-1.9l0.1,0c1.2,0.1,2,1.2,1.9,2.3C347.8,75.4,346.9,76.2,345.9,76.2z M334.5,75
				c-0.1,0-0.2,0-0.2,0l-0.1,0c-1.2-0.1-2-1.2-1.9-2.3c0.1-1.2,1.2-2,2.3-1.9l0.1,0c1.2,0.1,2,1.2,1.9,2.3
				C336.5,74.2,335.6,75,334.5,75z M152.8,74.8c-0.9,0-1.7-0.6-2-1.4c-0.4-1.1,0.2-2.3,1.3-2.7l0.1,0c1.1-0.4,2.3,0.2,2.7,1.3
				c0.4,1.1-0.2,2.3-1.3,2.7l-0.1,0C153.3,74.8,153,74.8,152.8,74.8z M323.1,73.8c-0.1,0-0.2,0-0.2,0l-0.1,0c-1.2-0.1-2-1.2-1.9-2.3
				c0.1-1.2,1.2-2,2.3-1.9l0.1,0c1.2,0.1,2,1.2,1.9,2.3C325.1,73,324.2,73.8,323.1,73.8z M311.7,72.6c-0.1,0-0.2,0-0.2,0l-0.1,0
				c-1.2-0.1-2-1.2-1.9-2.3c0.1-1.2,1.2-2,2.3-1.9l0.1,0c1.2,0.1,2,1.2,1.9,2.3C313.7,71.8,312.8,72.6,311.7,72.6z M163.8,71.5
				c-0.9,0-1.8-0.6-2-1.6c-0.3-1.1,0.4-2.3,1.5-2.6l0.2,0c1.1-0.3,2.3,0.4,2.6,1.5c0.3,1.1-0.4,2.3-1.5,2.6l-0.1,0
				C164.1,71.5,163.9,71.5,163.8,71.5z M300.4,71.4c-0.1,0-0.2,0-0.2,0l-0.1,0c-1.2-0.1-2-1.2-1.9-2.3c0.1-1.2,1.2-2,2.3-1.9l0.1,0
				c1.2,0.1,2,1.2,1.9,2.3C302.3,70.6,301.4,71.4,300.4,71.4z M289,70.1c-0.1,0-0.2,0-0.2,0l-0.1,0c-1.2-0.1-2-1.2-1.9-2.3
				s1.2-2,2.3-1.9l0.1,0c1.2,0.1,2,1.2,1.9,2.3C291,69.3,290,70.1,289,70.1z M277.6,68.9c-0.1,0-0.2,0-0.2,0l-0.1,0
				c-1.2-0.1-2-1.2-1.9-2.3c0.1-1.2,1.2-2,2.3-1.9l0.1,0c1.2,0.1,2,1.2,1.9,2.3C279.6,68.1,278.7,68.9,277.6,68.9z M174.9,68.9
				c-1,0-1.9-0.7-2.1-1.7c-0.2-1.1,0.5-2.3,1.7-2.5l0.1,0c1.1-0.2,2.3,0.5,2.5,1.7c0.2,1.1-0.5,2.3-1.7,2.5l-0.1,0
				C175.2,68.9,175.1,68.9,174.9,68.9z M266.2,67.7c-0.1,0-0.1,0-0.2,0l-0.1,0c-1.2-0.1-2-1.2-1.9-2.3c0.1-1.2,1.2-2,2.3-1.9l0.1,0
				c1.2,0.1,2,1.2,1.9,2.3C268.2,66.9,267.3,67.7,266.2,67.7z M186.2,67c-1,0-1.9-0.8-2.1-1.8c-0.2-1.2,0.6-2.2,1.8-2.4l0.2,0
				c1.2-0.2,2.2,0.7,2.4,1.8c0.2,1.2-0.7,2.2-1.8,2.4l-0.1,0C186.4,67,186.3,67,186.2,67z M254.8,66.5c-0.1,0-0.1,0-0.2,0l-0.1,0
				c-1.2-0.1-2-1.2-1.9-2.3c0.1-1.2,1.2-2,2.3-1.9l0.1,0c1.2,0.1,2,1.2,1.9,2.3C256.8,65.7,255.9,66.5,254.8,66.5z M197.6,65.7
				c-1.1,0-2-0.8-2.1-1.9c-0.1-1.2,0.7-2.2,1.9-2.3l0.2,0c1.2-0.1,2.2,0.8,2.3,1.9c0.1,1.2-0.8,2.2-1.9,2.3l-0.1,0
				C197.7,65.7,197.6,65.7,197.6,65.7z M243.4,65.5c-0.1,0-0.1,0-0.2,0l-0.1,0c-1.2-0.1-2-1.1-2-2.3c0.1-1.2,1.1-2,2.3-2l0.1,0
				c1.2,0.1,2,1.1,2,2.3C245.5,64.7,244.5,65.5,243.4,65.5z M209,64.9c-1.1,0-2.1-0.9-2.1-2c0-1.2,0.9-2.1,2-2.2l0.1,0
				c1.1-0.1,2.2,0.8,2.2,2c0.1,1.2-0.8,2.2-2,2.2L209,64.9C209.1,64.9,209,64.9,209,64.9z M232,64.9C232,64.9,232,64.9,232,64.9
				l-0.2,0c-1.2,0-2.1-1-2-2.2c0-1.2,1-2.1,2.2-2l0.1,0c1.2,0,2.1,1,2,2.2C234.1,64,233.2,64.9,232,64.9z M220.6,64.7h-0.1
				c-1.2,0-2.1-0.9-2.1-2.1s0.9-2.1,2.1-2.1h0.1c1.2,0,2.1,0.9,2.1,2.1S221.7,64.7,220.6,64.7z M812.6,96.3c0,1.2-0.9,2.1-2.1,2.1
				c-1.2,0-2.1-0.9-2.1-2.1s1-2.1,2.1-2.1C811.7,94.1,812.6,95.1,812.6,96.3z"/>
		</g>
		<g>
			
				<linearGradient id="SVGID_00000099622401032550241980000014894329221117209021_" gradientUnits="userSpaceOnUse" x1="377.6414" y1="-277.9993" x2="849.9745" y2="71.5653">
				<stop  offset="0" style="stop-color:#28C8AF"/>
				<stop  offset="1" style="stop-color:#0F554B"/>
			</linearGradient>
			<path style="fill:url(#SVGID_00000099622401032550241980000014894329221117209021_);" d="M848.3,72.4c-0.5,0-1.1-0.2-1.5-0.6
				c-0.8-0.8-0.8-2.1,0-3c0,0,0,0,0,0c0.8-0.8,2.2-0.8,3,0c0.8,0.8,0.8,2.1,0,3C849.4,72.2,848.8,72.4,848.3,72.4z"/>
		</g>
	</g>
</g>
</svg>
